IBM Plex Mono-Bold.ufo
<glyph name="exclam" format="2">
  <advance width="600"/>
  <unicode hex="0021"/>
  <outline>
    <contour>
      <point x="324" y="243" type="line" identifier="2ETr5sVm14"/>
      <point x="381" y="495" type="line" identifier="7iajGc3VRL"/>
      <point x="381" y="698" type="line" identifier="15b7ECL6Wv"/>
      <point x="219" y="698" type="line" identifier="cGSH1wrk3m"/>
      <point x="219" y="495" type="line" identifier="kdWFGpdkha"/>
      <point x="276" y="243" type="line" identifier="f9xqf6AaCc"/>
    </contour>
    <contour>
      <point x="300" y="-12" type="curve" smooth="yes" identifier="tfQJc8FCyK"/>
      <point x="371" y="-12" identifier="OSvT7MPxnt"/>
      <point x="398" y="23" identifier="kLAD8NtTx9"/>
      <point x="398" y="66" type="curve" smooth="yes" identifier="SoxfDTiGEJ"/>
      <point x="398" y="98" type="line" smooth="yes" identifier="MqkXEI5WuB"/>
      <point x="398" y="140" identifier="R9HzU4svXn"/>
      <point x="371" y="175" identifier="zbk3GNbbOJ"/>
      <point x="300" y="175" type="curve" smooth="yes" identifier="ZzgfUrY9YZ"/>
      <point x="229" y="175" identifier="Am33NHxsyO"/>
      <point x="202" y="140" identifier="1xaHZC68mv"/>
      <point x="202" y="98" type="curve" smooth="yes" identifier="5Xd96vmHWO"/>
      <point x="202" y="66" type="line" smooth="yes" identifier="x4xU9uJTst"/>
      <point x="202" y="23" identifier="Xzwbz2VqWN"/>
      <point x="229" y="-12" identifier="UhgCgmoAZP"/>
    </contour>
  </outline>
</glyph>
<glyph name="numbersign" format="2">
  <advance width="600"/>
  <unicode hex="0023"/>
  <outline>
    <contour>
      <point x="83" y="0" type="line" identifier="kei8Zd8XcY"/>
      <point x="200" y="0" type="line" identifier="YCy5z3KdYH"/>
      <point x="323" y="698" type="line" identifier="rsne4hJzDk"/>
      <point x="206" y="698" type="line" identifier="KKYHBpdDOM"/>
      <point x="172" y="504" type="line" identifier="u3pxKmmf2C"/>
      <point x="47" y="504" type="line" identifier="9rjdGTSoOl"/>
      <point x="47" y="394" type="line" identifier="u7qkyaHRHg"/>
      <point x="152" y="394" type="line" identifier="3cN598r6wM"/>
      <point x="137" y="304" type="line" identifier="gObpmHEpoU"/>
      <point x="9" y="304" type="line" identifier="V7wDZxPpaG"/>
      <point x="9" y="194" type="line" identifier="tvJR9Mm8VG"/>
      <point x="117" y="194" type="line" identifier="JA5IJfK0d7"/>
    </contour>
    <contour>
      <point x="277" y="0" type="line" identifier="f8dcjbiCRx"/>
      <point x="394" y="0" type="line" identifier="DUYNPxhuqg"/>
      <point x="428" y="194" type="line" identifier="QthUjF8AIl"/>
      <point x="553" y="194" type="line" identifier="RbtXT321Lf"/>
      <point x="553" y="304" type="line" identifier="pYKU70x5p8"/>
      <point x="448" y="304" type="line" identifier="j4sD1gNBsL"/>
      <point x="463" y="394" type="line" identifier="QB2OeEJJW3"/>
      <point x="591" y="394" type="line" identifier="QmdZ615HCm"/>
      <point x="591" y="504" type="line" identifier="G89CrEQXaQ"/>
      <point x="483" y="504" type="line" identifier="ricBLgDHHX"/>
      <point x="517" y="698" type="line" identifier="iTM6BKXq4s"/>
      <point x="400" y="698" type="line" identifier="PKpdm9ek0e"/>
    </contour>
  </outline>
</glyph>
<glyph name="dollar" format="2">
  <advance width="600"/>
  <unicode hex="0024"/>
  <outline>
    <contour>
      <point x="253" y="-113" type="line" identifier="My99SOOMrg"/>
      <point x="367" y="-113" type="line" identifier="LalZfaF97G"/>
      <point x="367" y="-5" type="line" identifier="StVvlEw00M"/>
      <point x="496" y="18" identifier="Y45yAsWWuo"/>
      <point x="568" y="102" identifier="VOB6CMwkk6"/>
      <point x="568" y="212" type="curve" smooth="yes" identifier="0aYiTW7Bou"/>
      <point x="568" y="313" identifier="rbzgPFW9LD"/>
      <point x="507" y="385" identifier="wuJPKUvr9c"/>
      <point x="380" y="409" type="curve" smooth="yes" identifier="SppUEK7X4X"/>
      <point x="357" y="413" type="line" identifier="CgqFdvXXmL"/>
      <point x="357" y="580" type="line" identifier="Y2DAzsJm8G"/>
      <point x="399" y="571" identifier="4dEeATnqpe"/>
      <point x="435" y="551" identifier="CLuc2Gn1TI"/>
      <point x="463" y="520" type="curve" identifier="bo9jP2X8eI"/>
      <point x="549" y="616" type="line" identifier="7sxlxFEpMy"/>
      <point x="509" y="662" identifier="5QAkNYFnTh"/>
      <point x="450" y="696" identifier="DouWRTzsyt"/>
      <point x="367" y="707" type="curve" identifier="382XSGelHC"/>
      <point x="367" y="811" type="line" identifier="YRoxaSekh2"/>
      <point x="253" y="811" type="line" identifier="ud1opm4fLL"/>
      <point x="253" y="706" type="line" identifier="BfgRvzRvdV"/>
      <point x="124" y="689" identifier="2QRVTJSTQj"/>
      <point x="52" y="614" identifier="UvQo1NYKAb"/>
      <point x="52" y="502" type="curve" smooth="yes" identifier="CGStAOZPxq"/>
      <point x="52" y="400" identifier="JjiNl2N86z"/>
      <point x="112" y="324" identifier="HhuWMZtnPu"/>
      <point x="240" y="301" type="curve" smooth="yes" identifier="dgu4v3UXyi"/>
      <point x="263" y="297" type="line" identifier="mwxe8QdESm"/>
      <point x="263" y="113" type="line" identifier="6S9U3bZ9pY"/>
      <point x="209" y="121" identifier="vubi1sNvl4"/>
      <point x="159" y="146" identifier="An1krFNznP"/>
      <point x="117" y="191" type="curve" identifier="gSsajnPuJE"/>
      <point x="30" y="96" type="line" identifier="AOnEfhQmpZ"/>
      <point x="77" y="37" identifier="NcRtf3J1Lx"/>
      <point x="154" y="-2" identifier="UjfcPR6hx1"/>
      <point x="253" y="-10" type="curve" identifier="imFA0vYGKW"/>
    </contour>
    <contour>
      <point x="193" y="507" type="curve" smooth="yes" identifier="55AK1NVYbh"/>
      <point x="193" y="549" identifier="9yfCA6mA0S"/>
      <point x="214" y="575" identifier="Qjv3dFEKc2"/>
      <point x="263" y="583" type="curve" identifier="h4DFSO2184"/>
      <point x="263" y="432" type="line" identifier="lvqL4JAEG7"/>
      <point x="214" y="445" identifier="vTJyZP8OHN"/>
      <point x="193" y="465" identifier="WpjArCKQZU"/>
    </contour>
    <contour>
      <point x="428" y="202" type="curve" smooth="yes" identifier="hM28J9t9Aq"/>
      <point x="428" y="156" identifier="RJvlRwTdRx"/>
      <point x="405" y="125" identifier="gTAwohjsZX"/>
      <point x="357" y="114" type="curve" identifier="meG4f12bWZ"/>
      <point x="357" y="279" type="line" identifier="vvo09N9pEN"/>
      <point x="406" y="267" identifier="Uxjbr8u7NW"/>
      <point x="428" y="247" identifier="lv6sbP69xt"/>
    </contour>
  </outline>
</glyph>
<glyph name="percent" format="2">
  <advance width="600"/>
  <unicode hex="0025"/>
  <outline>
    <contour>
      <point x="165" y="338" type="curve" smooth="yes" identifier="SgUqthuH0R"/>
      <point x="264" y="338" identifier="7tRWPvXJbl"/>
      <point x="322" y="409" identifier="Ge5xMSXUOI"/>
      <point x="322" y="524" type="curve" smooth="yes" identifier="2K7mkBtGa3"/>
      <point x="322" y="639" identifier="vLPkfaRls5"/>
      <point x="264" y="710" identifier="dgMWUWbjK8"/>
      <point x="165" y="710" type="curve" smooth="yes" identifier="M9sZcb1TJ7"/>
      <point x="66" y="710" identifier="NUHORdJQgM"/>
      <point x="8" y="639" identifier="iXoQNg9VmH"/>
      <point x="8" y="524" type="curve" smooth="yes" identifier="feSrleEYiq"/>
      <point x="8" y="409" identifier="xyYvsCMhKH"/>
      <point x="66" y="338" identifier="p7tnEtIOOp"/>
    </contour>
    <contour>
      <point x="165" y="425" type="curve" smooth="yes" identifier="0vzZSQ28Va"/>
      <point x="126" y="425" identifier="svgIvAHS0d"/>
      <point x="113" y="455" identifier="SRlluuSG68"/>
      <point x="113" y="502" type="curve" smooth="yes" identifier="yy4HU0k3Db"/>
      <point x="113" y="546" type="line" smooth="yes" identifier="ZciTZjuCly"/>
      <point x="113" y="593" identifier="D7XWA9RtGC"/>
      <point x="126" y="623" identifier="Faq8cOpxXX"/>
      <point x="165" y="623" type="curve" smooth="yes" identifier="UnSVO0dGYP"/>
      <point x="204" y="623" identifier="Vcq91qAMb8"/>
      <point x="217" y="593" identifier="Qu9EUkSW3d"/>
      <point x="217" y="546" type="curve" smooth="yes" identifier="Dt3ejRnABT"/>
      <point x="217" y="502" type="line" smooth="yes" identifier="BzjDLNqGLx"/>
      <point x="217" y="455" identifier="WMyFU4Fu6U"/>
      <point x="204" y="425" identifier="5plHjuO8Kg"/>
    </contour>
    <contour>
      <point x="334" y="398" type="line" identifier="q9O7QiWE2h"/>
      <point x="447" y="398" type="line" identifier="9Ua8Uo7hgL"/>
      <point x="598" y="698" type="line" identifier="GBHV9R8W1i"/>
      <point x="485" y="698" type="line" identifier="hPT6E9dIUb"/>
    </contour>
    <contour>
      <point x="2" y="0" type="line" identifier="1uOFNzqx6l"/>
      <point x="115" y="0" type="line" identifier="BaMnkzpQTe"/>
      <point x="266" y="300" type="line" identifier="gQsU6nyXVL"/>
      <point x="153" y="300" type="line" identifier="KjeFW88ZsB"/>
    </contour>
    <contour>
      <point x="436" y="-12" type="curve" smooth="yes" identifier="b4gCmn0hLi"/>
      <point x="535" y="-12" identifier="b8ghDqeTDO"/>
      <point x="593" y="59" identifier="sWNQjMxFuY"/>
      <point x="593" y="174" type="curve" smooth="yes" identifier="IIHtoTKExm"/>
      <point x="593" y="289" identifier="BThrnG7L63"/>
      <point x="535" y="360" identifier="rn6NEk6sb3"/>
      <point x="436" y="360" type="curve" smooth="yes" identifier="S8foy6fDyl"/>
      <point x="337" y="360" identifier="tTtHQv1Khv"/>
      <point x="279" y="289" identifier="ERmP15V1Es"/>
      <point x="279" y="174" type="curve" smooth="yes" identifier="neOPhJ6uFa"/>
      <point x="279" y="59" identifier="3CoP2fGAOa"/>
      <point x="337" y="-12" identifier="yhpLKWsBIT"/>
    </contour>
    <contour>
      <point x="436" y="75" type="curve" smooth="yes" identifier="ubWVuKFTbj"/>
      <point x="397" y="75" identifier="GSsRR0HPlT"/>
      <point x="384" y="105" identifier="lthtoM3LQv"/>
      <point x="384" y="152" type="curve" smooth="yes" identifier="kXBa7ZwEtl"/>
      <point x="384" y="196" type="line" smooth="yes" identifier="jvFsA6TwxU"/>
      <point x="384" y="243" identifier="TmBW4V6Xn6"/>
      <point x="397" y="273" identifier="9rbuClCbEX"/>
      <point x="436" y="273" type="curve" smooth="yes" identifier="OG6eO8UjDz"/>
      <point x="475" y="273" identifier="KmDp2Nm9gC"/>
      <point x="488" y="243" identifier="tpqnQcO5w6"/>
      <point x="488" y="196" type="curve" smooth="yes" identifier="12iZg6SCHW"/>
      <point x="488" y="152" type="line" smooth="yes" identifier="7EpsZAR2Eb"/>
      <point x="488" y="105" identifier="zd7HGNVICy"/>
      <point x="475" y="75" identifier="OG4kOKt2c6"/>
    </contour>
  </outline>
</glyph>
<glyph name="ampersand" format="2">
  <advance width="600"/>
  <unicode hex="0026"/>
  <outline>
    <contour>
      <point x="207" y="-12" type="curve" smooth="yes" identifier="caBaeyL9J7"/>
      <point x="289" y="-12" identifier="wjoy53jDMY"/>
      <point x="345" y="29" identifier="IAAbuKPqh7"/>
      <point x="354" y="97" type="curve" identifier="EAxeLXuxdr"/>
      <point x="361" y="97" type="line" identifier="dgSePCyitS"/>
      <point x="441" y="0" type="line" identifier="rGkU80VL27"/>
      <point x="599" y="0" type="line" identifier="nOMvDL1veW"/>
      <point x="469" y="158" type="line" identifier="t8M1v1lcbt"/>
      <point x="490" y="205" identifier="ZtzwK5x1jh"/>
      <point x="503" y="250" identifier="lKvhBJoNfD"/>
      <point x="510" y="292" type="curve" identifier="9OEW4w5QvV"/>
      <point x="580" y="292" type="line" identifier="yO2qqXxA1l"/>
      <point x="580" y="402" type="line" identifier="7pcpg71pkh"/>
      <point x="402" y="402" type="line" identifier="euIkUNtvo7"/>
      <point x="402" y="358" identifier="q2xhfcmQmz"/>
      <point x="399" y="288" identifier="uyjSqzNjrS"/>
      <point x="391" y="243" type="curve" identifier="3w1r21WWRg"/>
      <point x="385" y="243" type="line" identifier="dQUFJAkmHh"/>
      <point x="337" y="317" type="line" identifier="IkRtqQZ0AJ"/>
      <point x="280" y="389" type="line" smooth="yes" identifier="1h7thXH5uD"/>
      <point x="217" y="469" identifier="2nB7okvovF"/>
      <point x="197" y="492" identifier="5ikz2neZcQ"/>
      <point x="197" y="530" type="curve" smooth="yes" identifier="eK1YtmM7YW"/>
      <point x="197" y="535" type="line" smooth="yes" identifier="KcIhoZL71S"/>
      <point x="197" y="573" identifier="A610bbXwsw"/>
      <point x="224" y="600" identifier="D4ZvqcQIgH"/>
      <point x="264" y="600" type="curve" smooth="yes" identifier="iFyC0cEfTQ"/>
      <point x="304" y="600" identifier="JXJNdObwWx"/>
      <point x="337" y="574" identifier="lEgOwqeNkx"/>
      <point x="351" y="531" type="curve" identifier="1mH2P9K74a"/>
      <point x="453" y="586" type="line" identifier="PAdZ2nGkoj"/>
      <point x="432" y="650" identifier="wD4MdHiEMM"/>
      <point x="362" y="710" identifier="5TD71o8ZtF"/>
      <point x="262" y="710" type="curve" smooth="yes" identifier="DvAtCCPMAC"/>
      <point x="150" y="710" identifier="we8g2qClYL"/>
      <point x="67" y="634" identifier="iwBySKL0Xo"/>
      <point x="67" y="534" type="curve" smooth="yes" identifier="7uMrHxTSj7"/>
      <point x="67" y="483" identifier="1lBXjrtM9k"/>
      <point x="89" y="440" identifier="XMItCRw1Pn"/>
      <point x="132" y="381" type="curve" identifier="MHm98o3L9Y"/>
      <point x="55" y="336" identifier="MycZriUFmG"/>
      <point x="14" y="274" identifier="yTTbK4yZBm"/>
      <point x="14" y="190" type="curve" smooth="yes" identifier="evs9j3SZ3W"/>
      <point x="14" y="82" identifier="6FyZla5uDi"/>
      <point x="82" y="-12" identifier="hdXoBXVwGG"/>
    </contour>
    <contour>
      <point x="244" y="101" type="curve" smooth="yes" identifier="pYhx448bqn"/>
      <point x="187" y="101" identifier="UwTpwkhrQ9"/>
      <point x="150" y="135" identifier="0rtIfBZt4Y"/>
      <point x="150" y="198" type="curve" identifier="neRuRIDCRz"/>
      <point x="150" y="200" type="line" smooth="yes" identifier="uSx7HtJLnn"/>
      <point x="150" y="238" identifier="I9tJl7AnU3"/>
      <point x="158" y="272" identifier="FfDgqSP6Ye"/>
      <point x="192" y="305" type="curve" identifier="fZjKkpRNhH"/>
      <point x="321" y="141" type="line" identifier="TbbXzYgXI3"/>
      <point x="303" y="111" identifier="iBxhZm4kf7"/>
      <point x="274" y="101" identifier="cXAWQCoyW8"/>
    </contour>
  </outline>
</glyph>
<glyph name="quotesingle" format="2">
  <advance width="600"/>
  <unicode hex="0027"/>
  <outline>
    <contour>
      <point x="366" y="414" type="line" identifier="SXRsPoG8TH"/>
      <point x="366" y="740" type="line" identifier="lV9aVIXyn8"/>
      <point x="234" y="740" type="line" identifier="T6FOyAR3zO"/>
      <point x="234" y="414" type="line" identifier="3lplqdtdMH"/>
    </contour>
  </outline>
</glyph>
<glyph name="parenleft" format="2">
  <advance width="600"/>
  <unicode hex="0028"/>
  <outline>
    <contour>
      <point x="174" y="311" type="curve" smooth="yes" identifier="XdidvUah3y"/>
      <point x="174" y="116" identifier="i0X5R6lhya"/>
      <point x="269" y="-54" identifier="M3X0053nWK"/>
      <point x="382" y="-138" type="curve" identifier="glgyGEwV3T"/>
      <point x="530" y="-138" type="line" identifier="ERK3QMgacd"/>
      <point x="406" y="-53" identifier="X8JbJ7FpvM"/>
      <point x="298" y="93" identifier="Yc3UXup28X"/>
      <point x="298" y="260" type="curve" smooth="yes" identifier="EhQXJerqCm"/>
      <point x="298" y="362" type="line" smooth="yes" identifier="suWLfa0Evu"/>
      <point x="298" y="529" identifier="oohGnTxiX2"/>
      <point x="406" y="675" identifier="59eB4t14pP"/>
      <point x="530" y="760" type="curve" identifier="KG10KU7lJ9"/>
      <point x="382" y="760" type="line" identifier="8IXdRGElPc"/>
      <point x="269" y="676" identifier="wpEGugC71n"/>
      <point x="174" y="506" identifier="3d4rc41bT5"/>
    </contour>
  </outline>
</glyph>
<glyph name="parenright" format="2">
  <advance width="600"/>
  <unicode hex="0029"/>
  <outline>
    <contour>
      <point x="426" y="311" type="curve" smooth="yes" identifier="sEvEMtgA3m"/>
      <point x="426" y="506" identifier="ITXx7yobsJ"/>
      <point x="331" y="676" identifier="yeUmdRjNdB"/>
      <point x="218" y="760" type="curve" identifier="yrTj23GV6A"/>
      <point x="70" y="760" type="line" identifier="hf4AAbLwsM"/>
      <point x="194" y="675" identifier="LnzIjQF9HV"/>
      <point x="302" y="529" identifier="G2FHkR7k7I"/>
      <point x="302" y="362" type="curve" smooth="yes" identifier="wnKKPrsWQP"/>
      <point x="302" y="260" type="line" smooth="yes" identifier="0EgdTOIsU8"/>
      <point x="302" y="93" identifier="ILOufIx45Q"/>
      <point x="194" y="-53" identifier="aHEi6yCnlu"/>
      <point x="70" y="-138" type="curve" identifier="8dBTM9sZL5"/>
      <point x="218" y="-138" type="line" identifier="kkkMJAb4IM"/>
      <point x="331" y="-54" identifier="gOHjzVJQvt"/>
      <point x="426" y="116" identifier="AO4zCHjbie"/>
    </contour>
  </outline>
</glyph>
<glyph name="asterisk" format="2">
  <advance width="600"/>
  <unicode hex="002A"/>
  <outline>
    <contour>
      <point x="300" y="189" type="line" identifier="ZmluFTwbT6"/>
      <point x="409" y="40" type="line" identifier="tpPhWKvpTi"/>
      <point x="513" y="109" type="line" identifier="IYTP8Hv2oa"/>
      <point x="399" y="259" type="line" identifier="keCDjSqvqx"/>
      <point x="570" y="317" type="line" identifier="7FoTZMANHN"/>
      <point x="531" y="432" type="line" identifier="97fJYuMfnT"/>
      <point x="364" y="371" type="line" identifier="09BuzuMdM4"/>
      <point x="364" y="548" type="line" identifier="u1x9tBQ6s2"/>
      <point x="236" y="548" type="line" identifier="6jmEY7JMKW"/>
      <point x="236" y="371" type="line" identifier="gacKANiMRW"/>
      <point x="69" y="432" type="line" identifier="IvkJUNozm7"/>
      <point x="30" y="317" type="line" identifier="cPey1FikI3"/>
      <point x="201" y="259" type="line" identifier="Lh4ExGOhor"/>
      <point x="87" y="109" type="line" identifier="wcmZbaHnN8"/>
      <point x="191" y="40" type="line" identifier="W9cEmTW2JP"/>
    </contour>
  </outline>
</glyph>
<glyph name="plus" format="2">
  <advance width="600"/>
  <unicode hex="002B"/>
  <outline>
    <contour>
      <point x="364" y="62" type="line" identifier="QT9m5P6CqZ"/>
      <point x="364" y="246" type="line" identifier="o9iskfNime"/>
      <point x="538" y="246" type="line" identifier="nNXTg1097L"/>
      <point x="538" y="364" type="line" identifier="Pwr6oPmlxy"/>
      <point x="364" y="364" type="line" identifier="1hLtpfIKZB"/>
      <point x="364" y="548" type="line" identifier="UWCMILEMY5"/>
      <point x="236" y="548" type="line" identifier="gh5Zd5VxUr"/>
      <point x="236" y="364" type="line" identifier="qck2dBL39G"/>
      <point x="62" y="364" type="line" identifier="R71MsTOjbM"/>
      <point x="62" y="246" type="line" identifier="xZW7JLlFOW"/>
      <point x="236" y="246" type="line" identifier="GDIqeuodkF"/>
      <point x="236" y="62" type="line" identifier="6vL9h7q6H3"/>
    </contour>
  </outline>
</glyph>
<glyph name="comma" format="2">
  <advance width="600"/>
  <unicode hex="002C"/>
  <outline>
    <contour>
      <point x="170" y="-151" type="line" identifier="1w98LNpEsv"/>
      <point x="280" y="-151" type="line" identifier="sKzxjnmNBC"/>
      <point x="417" y="174" type="line" identifier="x8DSJmd57W"/>
      <point x="227" y="174" type="line" identifier="VF70XQnK0Z"/>
    </contour>
  </outline>
</glyph>
<glyph name="hyphen" format="2">
  <advance width="600"/>
  <unicode hex="002D"/>
  <outline>
    <contour>
      <point x="460" y="234" type="line" identifier="yOjJkwEqRd"/>
      <point x="460" y="376" type="line" identifier="Y3Ba0UQCVX"/>
      <point x="140" y="376" type="line" identifier="3VUybeIQkD"/>
      <point x="140" y="234" type="line" identifier="OvpqADUY1M"/>
    </contour>
  </outline>
</glyph>
<glyph name="period" format="2">
  <advance width="600"/>
  <unicode hex="002E"/>
  <outline>
    <contour>
      <point x="300" y="-12" type="curve" smooth="yes" identifier="Gh7KPxiXxk"/>
      <point x="375" y="-12" identifier="dp1GoYsSGi"/>
      <point x="405" y="26" identifier="7iJ8jUv8It"/>
      <point x="405" y="71" type="curve" smooth="yes" identifier="UftLPAezuJ"/>
      <point x="405" y="106" type="line" identifier="jZRUujO4O3"/>
      <point x="405" y="151" identifier="5ZcH5yBoU3"/>
      <point x="375" y="189" identifier="sLauHB3CKi"/>
      <point x="300" y="189" type="curve" smooth="yes" identifier="BH7s8nLNyW"/>
      <point x="225" y="189" identifier="moB5thnyDz"/>
      <point x="195" y="151" identifier="DNkRaKBWlB"/>
      <point x="195" y="106" type="curve" smooth="yes" identifier="UgzYI2KBTt"/>
      <point x="195" y="71" type="line" smooth="yes" identifier="1fiM9zoylC"/>
      <point x="195" y="26" identifier="Qg343PS7Ph"/>
      <point x="225" y="-12" identifier="4lLfk1tFDp"/>
    </contour>
  </outline>
</glyph>
<glyph name="slash" format="2">
  <advance width="600"/>
  <unicode hex="002F"/>
  <outline>
    <contour>
      <point x="206" y="-138" type="line" identifier="XbdJAM512p"/>
      <point x="527" y="760" type="line" identifier="ppgnU9AYGr"/>
      <point x="394" y="760" type="line" identifier="OSrC5QXGgY"/>
      <point x="73" y="-138" type="line" identifier="PbcOYw5vyB"/>
    </contour>
  </outline>
</glyph>
<glyph name="zero" format="2">
  <advance width="600"/>
  <unicode hex="0030"/>
  <outline>
    <contour>
      <point x="300" y="-12" type="curve" smooth="yes" identifier="wMHwHfqHbv"/>
      <point x="487" y="-12" identifier="Mkc2REiJP5"/>
      <point x="573" y="121" identifier="hYa3fRGSz2"/>
      <point x="573" y="349" type="curve" smooth="yes" identifier="PSdcYb4JHN"/>
      <point x="573" y="577" identifier="uiFq4bBhEC"/>
      <point x="487" y="710" identifier="2YkzerZC55"/>
      <point x="300" y="710" type="curve" smooth="yes" identifier="HXZAGrff3t"/>
      <point x="113" y="710" identifier="ZTzUJK68Dq"/>
      <point x="27" y="577" identifier="k5oZXk7nET"/>
      <point x="27" y="349" type="curve" smooth="yes" identifier="ijzvITbiWX"/>
      <point x="27" y="121" identifier="vzp4Ziy8tA"/>
      <point x="113" y="-12" identifier="PK2dvm3jvs"/>
    </contour>
    <contour>
      <point x="300" y="106" type="curve" smooth="yes" identifier="AY6hx19tSs"/>
      <point x="211" y="106" identifier="jV4TFcWPMu"/>
      <point x="180" y="173" identifier="yjn8cpNRUC"/>
      <point x="180" y="284" type="curve" smooth="yes" identifier="RBCQplRTQT"/>
      <point x="180" y="414" type="line" smooth="yes" identifier="do8nquvOeb"/>
      <point x="180" y="525" identifier="TNSl3PHUyU"/>
      <point x="211" y="592" identifier="bvR4voLkL3"/>
      <point x="300" y="592" type="curve" smooth="yes" identifier="3VF7LSGrcs"/>
      <point x="389" y="592" identifier="kZIVpzUj8Y"/>
      <point x="420" y="525" identifier="xMKOThvWHm"/>
      <point x="420" y="414" type="curve" smooth="yes" identifier="rhJ1ZbtTh8"/>
      <point x="420" y="284" type="line" identifier="1b1XS0stjz"/>
      <point x="420" y="173" identifier="kdWfkVRXHX"/>
      <point x="389" y="106" identifier="FkqYM4AJbP"/>
    </contour>
    <contour>
      <point x="300" y="290" type="curve" smooth="yes" identifier="aP9gEPsyDS"/>
      <point x="346" y="290" identifier="nfCxDUlIIi"/>
      <point x="362" y="311" identifier="fa7HmDpTNG"/>
      <point x="362" y="338" type="curve" smooth="yes" identifier="RKE5aRb2ky"/>
      <point x="362" y="360" type="line" smooth="yes" identifier="JrIMxDjH8z"/>
      <point x="362" y="387" identifier="D13h9ykY21"/>
      <point x="346" y="408" identifier="1UBDt9e2uL"/>
      <point x="300" y="408" type="curve" smooth="yes" identifier="UpLcK2dpMX"/>
      <point x="254" y="408" identifier="U3LIq286Dp"/>
      <point x="238" y="387" identifier="IG4pK2MkjO"/>
      <point x="238" y="360" type="curve" smooth="yes" identifier="VlaLz5M4SZ"/>
      <point x="238" y="338" type="line" identifier="89QklwADCW"/>
      <point x="238" y="311" identifier="qJOE4DDsPg"/>
      <point x="254" y="290" identifier="LMOqyCKKOo"/>
    </contour>
  </outline>
</glyph>
<glyph name="one" format="2">
  <advance width="600"/>
  <unicode hex="0031"/>
  <outline>
    <contour>
      <point x="580" y="0" type="line" identifier="7AmpeN7jna"/>
      <point x="580" y="121" type="line" identifier="eexeChtN1c"/>
      <point x="432" y="121" type="line" identifier="ZkZY5I5CvP"/>
      <point x="432" y="698" type="line" identifier="Ylet8XVdVK"/>
      <point x="202" y="698" type="line" identifier="bUowI7hZtO"/>
      <point x="35" y="478" type="line" identifier="c3afwpKWJi"/>
      <point x="131" y="403" type="line" identifier="A3TjMDFjxi"/>
      <point x="273" y="589" type="line" identifier="HN7qQhbZf3"/>
      <point x="282" y="589" type="line" identifier="siPc2QQTET"/>
      <point x="282" y="121" type="line" identifier="VdZIN0GO6u"/>
      <point x="94" y="121" type="line" identifier="fSnJy4li4t"/>
      <point x="94" y="0" type="line" identifier="4zf11IB1XH"/>
    </contour>
  </outline>
</glyph>
<glyph name="two" format="2">
  <advance width="600"/>
  <unicode hex="0032"/>
  <outline>
    <contour>
      <point x="555" y="126" type="line" identifier="q2Wd1cH3ZY"/>
      <point x="219" y="126" type="line" identifier="ZCReT26XdU"/>
      <point x="352" y="229" type="line" smooth="yes" identifier="5ur8sNaItD"/>
      <point x="457" y="309" identifier="CqhoFvjkZa"/>
      <point x="540" y="384" identifier="2TICgJoigD"/>
      <point x="540" y="500" type="curve" smooth="yes" identifier="cK3emjST02"/>
      <point x="540" y="621" identifier="sqsj8wPXAJ"/>
      <point x="452" y="710" identifier="tpqKO2HTYS"/>
      <point x="299" y="710" type="curve" smooth="yes" identifier="Piat0lBaNI"/>
      <point x="151" y="710" identifier="ySGUjtNjvO"/>
      <point x="69" y="628" identifier="FIEDWV5ixy"/>
      <point x="38" y="532" type="curve" identifier="TBbakK5uY9"/>
      <point x="169" y="482" type="line" identifier="528nheVHGj"/>
      <point x="184" y="535" identifier="7mYxlcDeYj"/>
      <point x="217" y="580" identifier="rOSwdSYxtV"/>
      <point x="284" y="580" type="curve" smooth="yes" identifier="6lsMUsTxzy"/>
      <point x="342" y="580" identifier="qfNeOk3LBW"/>
      <point x="380" y="549" identifier="jCUK83SfJg"/>
      <point x="380" y="491" type="curve" smooth="yes" identifier="VdDcscigBI"/>
      <point x="380" y="481" type="line" smooth="yes" identifier="JM9wlaanM3"/>
      <point x="380" y="428" identifier="u05BNgDP9G"/>
      <point x="349" y="385" identifier="XgUjSDMW7n"/>
      <point x="273" y="320" type="curve" smooth="yes" identifier="5dMMgT21bp"/>
      <point x="53" y="137" type="line" identifier="fZ0iCzEnzz"/>
      <point x="53" y="0" type="line" identifier="1tKLT5D7g3"/>
      <point x="555" y="0" type="line" identifier="xwspJMIFHD"/>
    </contour>
  </outline>
</glyph>
<glyph name="three" format="2">
  <advance width="600"/>
  <unicode hex="0033"/>
  <outline>
    <contour>
      <point x="207" y="422" type="line" identifier="yLDPNJ4PRs"/>
      <point x="207" y="297" type="line" identifier="FDmyZHvwsv"/>
      <point x="272" y="297" type="line" smooth="yes" identifier="Vwy33fTZ7s"/>
      <point x="350" y="297" identifier="sm4ssDOIyX"/>
      <point x="397" y="268" identifier="Jw3xSDIp5v"/>
      <point x="397" y="211" type="curve" smooth="yes" identifier="r8K7blRwXz"/>
      <point x="397" y="204" type="line" smooth="yes" identifier="jzrLVL2WhR"/>
      <point x="397" y="146" identifier="I8RwWt2Wmd"/>
      <point x="356" y="110" identifier="hY4k453gB8"/>
      <point x="285" y="110" type="curve" smooth="yes" identifier="8GojMm1fpo"/>
      <point x="208" y="110" identifier="3ALGs70hZR"/>
      <point x="166" y="151" identifier="xOMwl5ULUn"/>
      <point x="135" y="208" type="curve" identifier="XoaEsfniUC"/>
      <point x="24" y="122" type="line" identifier="S4x4QGtc6Y"/>
      <point x="69" y="52" identifier="siLIr5LZrv"/>
      <point x="142" y="-12" identifier="QjZWeOGxiQ"/>
      <point x="282" y="-12" type="curve" smooth="yes" identifier="BDSxlbXgEv"/>
      <point x="447" y="-12" identifier="2ZCJyDdEDa"/>
      <point x="555" y="69" identifier="C8nTa4OZU6"/>
      <point x="555" y="194" type="curve" smooth="yes" identifier="8AGW9CIbM7"/>
      <point x="555" y="290" identifier="lrM0rdd8KE"/>
      <point x="491" y="347" identifier="DNEAKPzS8E"/>
      <point x="406" y="362" type="curve" identifier="kMZiaG56hy"/>
      <point x="406" y="368" type="line" identifier="z1ujKbjcvv"/>
      <point x="480" y="381" identifier="uniIBDF7gX"/>
      <point x="542" y="436" identifier="MjjSkgr30o"/>
      <point x="542" y="525" type="curve" smooth="yes" identifier="RfB5DzlLB4"/>
      <point x="542" y="637" identifier="7FrN02VQGe"/>
      <point x="443" y="710" identifier="CrZVAJTBW4"/>
      <point x="292" y="710" type="curve" smooth="yes" identifier="6O9Odb8joQ"/>
      <point x="170" y="710" identifier="TXZym8CmKv"/>
      <point x="101" y="662" identifier="ajG6gKmU7Q"/>
      <point x="47" y="593" type="curve" identifier="OzHQCZOmuW"/>
      <point x="142" y="505" type="line" identifier="hdnrkQ6xBG"/>
      <point x="177" y="558" identifier="BGkq4BHRTP"/>
      <point x="229" y="588" identifier="TbeAMjGxvr"/>
      <point x="286" y="588" type="curve" smooth="yes" identifier="L6skCkCFbo"/>
      <point x="348" y="588" identifier="5s4U23waG3"/>
      <point x="384" y="555" identifier="VOO2uxX7c6"/>
      <point x="384" y="505" type="curve" smooth="yes" identifier="2R3aAVQ5M7"/>
      <point x="384" y="498" type="line" smooth="yes" identifier="SUYc6nchFa"/>
      <point x="384" y="455" identifier="OD0P5nR2b2"/>
      <point x="350" y="422" identifier="aOcGqw4FOA"/>
      <point x="273" y="422" type="curve" smooth="yes" identifier="odFNUjvclV"/>
    </contour>
  </outline>
</glyph>
<glyph name="four" format="2">
  <advance width="600"/>
  <unicode hex="0034"/>
  <outline>
    <contour>
      <point x="483" y="0" type="line" identifier="VaD2Ci4GGd"/>
      <point x="483" y="134" type="line" identifier="peGJJQnXf9"/>
      <point x="573" y="134" type="line" identifier="94FpLTbDmd"/>
      <point x="573" y="250" type="line" identifier="wR1wtiY7iU"/>
      <point x="483" y="250" type="line" identifier="UtX0vmaNJn"/>
      <point x="483" y="698" type="line" identifier="C9dlX6le8b"/>
      <point x="303" y="698" type="line" identifier="iTEOpY7W0L"/>
      <point x="25" y="262" type="line" identifier="FzuMFJ3h3L"/>
      <point x="25" y="134" type="line" identifier="P47m3Cr8Oy"/>
      <point x="339" y="134" type="line" identifier="s66aiXHCQv"/>
      <point x="339" y="0" type="line" identifier="nKpi8SPvaQ"/>
    </contour>
    <contour>
      <point x="330" y="543" type="line" identifier="Ez9Z6423Fo"/>
      <point x="339" y="543" type="line" identifier="UerLk3wksQ"/>
      <point x="339" y="250" type="line" identifier="Y8xmmFrqgc"/>
      <point x="146" y="250" type="line" identifier="9zGOwybOA9"/>
    </contour>
  </outline>
</glyph>
<glyph name="five" format="2">
  <advance width="600"/>
  <unicode hex="0035"/>
  <outline>
    <contour>
      <point x="525" y="698" type="line" identifier="ayBFyIh5XM"/>
      <point x="92" y="698" type="line" identifier="PHXFF9tsK3"/>
      <point x="66" y="303" type="line" identifier="UGWQp6teXw"/>
      <point x="189" y="286" type="line" identifier="L5v33YYfMq"/>
      <point x="208" y="307" identifier="CwolrXh43c"/>
      <point x="244" y="335" identifier="vid80JWolF"/>
      <point x="300" y="335" type="curve" smooth="yes" identifier="NfrW5mtHFR"/>
      <point x="367" y="335" identifier="yuLW4s5UAD"/>
      <point x="409" y="295" identifier="8Fo4vU35vO"/>
      <point x="409" y="230" type="curve" smooth="yes" identifier="DA7UaLp6kM"/>
      <point x="409" y="222" type="line" smooth="yes" identifier="gQk8Cvkjzi"/>
      <point x="409" y="154" identifier="62zYFyLiHg"/>
      <point x="370" y="110" identifier="NpUA7FmDqV"/>
      <point x="296" y="110" type="curve" identifier="I6SFNvY6KQ"/>
      <point x="222" y="110" identifier="vNXPUmB1gF"/>
      <point x="182" y="154" identifier="XQ4h14ngOl"/>
      <point x="151" y="208" type="curve" identifier="czbcR9dDsw"/>
      <point x="42" y="122" type="line" identifier="9jYktBkRDN"/>
      <point x="85" y="52" identifier="YcVcCganO8"/>
      <point x="158" y="-12" identifier="JADU9Tu792"/>
      <point x="295" y="-12" type="curve" smooth="yes" identifier="I7ZizJjiBH"/>
      <point x="469" y="-12" identifier="CQOFYRQAvY"/>
      <point x="567" y="93" identifier="Hz0HSusSt4"/>
      <point x="567" y="234" type="curve" smooth="yes" identifier="vWngIGelB5"/>
      <point x="567" y="374" identifier="bC83Jt38Cu"/>
      <point x="469" y="456" identifier="MiI837Fmuv"/>
      <point x="354" y="456" type="curve" smooth="yes" identifier="Q2uwMDWUnp"/>
      <point x="268" y="456" identifier="dMoXOv5Iba"/>
      <point x="224" y="411" identifier="AE3aXjebYg"/>
      <point x="195" y="346" type="curve" identifier="ZSuZMBllYQ"/>
      <point x="186" y="346" type="line" identifier="0ek3lwEHWU"/>
      <point x="202" y="567" type="line" identifier="taEcHLLmKq"/>
      <point x="525" y="567" type="line" identifier="A9iTeNr90S"/>
    </contour>
  </outline>
</glyph>
<glyph name="six" format="2">
  <advance width="600"/>
  <unicode hex="0036"/>
  <outline>
    <contour>
      <point x="304" y="-12" type="curve" smooth="yes" identifier="RKdlrrUzU0"/>
      <point x="465" y="-12" identifier="23ntYzHT52"/>
      <point x="569" y="90" identifier="qiVVSfGmpP"/>
      <point x="569" y="232" type="curve" smooth="yes" identifier="zj7MyUUZbM"/>
      <point x="569" y="365" identifier="wLVgghZpYf"/>
      <point x="479" y="450" identifier="ZwPRUMVlrn"/>
      <point x="362" y="450" type="curve" smooth="yes" identifier="EQpKtRd6SL"/>
      <point x="271" y="450" identifier="kDdIUn8HTF"/>
      <point x="229" y="398" identifier="Z2jBB2Botv"/>
      <point x="204" y="345" type="curve" identifier="r9CqdsasUF"/>
      <point x="195" y="348" type="line" identifier="Vf1c4V8ecv"/>
      <point x="224" y="483" identifier="l7QA3pWWZa"/>
      <point x="327" y="577" identifier="B9f7wgBFwD"/>
      <point x="500" y="698" type="curve" identifier="3HzJgYZRi0"/>
      <point x="293" y="698" type="line" identifier="9rPQ0H0N0U"/>
      <point x="172" y="617" identifier="VSrK5gofZC"/>
      <point x="38" y="461" identifier="BTbwl3ka0t"/>
      <point x="38" y="265" type="curve" smooth="yes" identifier="hGx8FpM9gG"/>
      <point x="38" y="97" identifier="IXSMsg3N4z"/>
      <point x="136" y="-12" identifier="B60US2mPuM"/>
    </contour>
    <contour>
      <point x="303" y="105" type="curve" identifier="B1svRyWdeO"/>
      <point x="232" y="105" identifier="Q0vyU1SyYc"/>
      <point x="194" y="145" identifier="PmxyODBxxF"/>
      <point x="194" y="214" type="curve" smooth="yes" identifier="jMwicaVrM5"/>
      <point x="194" y="228" type="line" smooth="yes" identifier="Hp4VqxvtTo"/>
      <point x="194" y="297" identifier="jGZVz0A3hy"/>
      <point x="235" y="335" identifier="Y98YloqAdJ"/>
      <point x="303" y="335" type="curve" smooth="yes" identifier="R6fDN6hpmm"/>
      <point x="373" y="335" identifier="IMphDG6rVc"/>
      <point x="413" y="297" identifier="l9fKtgi8x5"/>
      <point x="413" y="228" type="curve" smooth="yes" identifier="iXe89ZTZpr"/>
      <point x="413" y="214" type="line" smooth="yes" identifier="v0Y2vlfNPv"/>
      <point x="413" y="145" identifier="rgoxDizXyJ"/>
      <point x="375" y="105" identifier="vdqnDmsy0k"/>
    </contour>
  </outline>
</glyph>
<glyph name="seven" format="2">
  <advance width="600"/>
  <unicode hex="0037"/>
  <outline>
    <contour>
      <point x="322" y="0" type="line" identifier="pJNRrVtbUr"/>
      <point x="553" y="568" type="line" identifier="Fuv6MqmjTy"/>
      <point x="553" y="698" type="line" identifier="LwUStnNPWn"/>
      <point x="51" y="698" type="line" identifier="Gm8WRJZ3B4"/>
      <point x="51" y="449" type="line" identifier="mM3xZnjGYT"/>
      <point x="178" y="449" type="line" identifier="MLqlE37Z8Q"/>
      <point x="178" y="576" type="line" identifier="4O5CfHXQQR"/>
      <point x="404" y="576" type="line" identifier="JBknsvNFjx"/>
      <point x="164" y="0" type="line" identifier="VvgDOHhWoh"/>
    </contour>
  </outline>
</glyph>
<glyph name="eight" format="2">
  <advance width="600"/>
  <unicode hex="0038"/>
  <outline>
    <contour>
      <point x="300" y="-12" type="curve" smooth="yes" identifier="LLr4UbbQBS"/>
      <point x="468" y="-12" identifier="KjvUG1PfEO"/>
      <point x="564" y="74" identifier="BTc2p2cXgS"/>
      <point x="564" y="192" type="curve" smooth="yes" identifier="V1OaUhUVlY"/>
      <point x="564" y="282" identifier="s7fdSa04ca"/>
      <point x="506" y="338" identifier="HUpM6DaWge"/>
      <point x="425" y="360" type="curve" identifier="VTNQSQ77im"/>
      <point x="425" y="368" type="line" identifier="UH6C6XQCca"/>
      <point x="494" y="393" identifier="v76nayJscE"/>
      <point x="543" y="445" identifier="taiEvfm9G5"/>
      <point x="543" y="526" type="curve" smooth="yes" identifier="5S0QTT8npS"/>
      <point x="543" y="633" identifier="FJ7W7wmEsr"/>
      <point x="456" y="710" identifier="ztJ1dAA6J5"/>
      <point x="300" y="710" type="curve" smooth="yes" identifier="2GTgOvdZYS"/>
      <point x="144" y="710" identifier="ZVG4Lq7cJU"/>
      <point x="57" y="633" identifier="wCl4DII7J0"/>
      <point x="57" y="526" type="curve" smooth="yes" identifier="7PSikr75Ai"/>
      <point x="57" y="445" identifier="lrfoQ0VKa5"/>
      <point x="106" y="393" identifier="UebgRnivHm"/>
      <point x="175" y="368" type="curve" identifier="VloShUdbEl"/>
      <point x="175" y="360" type="line" identifier="t5ohOYmbBu"/>
      <point x="94" y="338" identifier="1Mzdw4ywaI"/>
      <point x="36" y="282" identifier="59Su5U3xue"/>
      <point x="36" y="192" type="curve" smooth="yes" identifier="KmnmpH0vYl"/>
      <point x="36" y="74" identifier="NHhJvUjk1T"/>
      <point x="132" y="-12" identifier="a20VFgWP7J"/>
    </contour>
    <contour>
      <point x="300" y="103" type="curve" smooth="yes" identifier="VgCDc8aRVK"/>
      <point x="231" y="103" identifier="d97CGsCR6c"/>
      <point x="193" y="138" identifier="wlnFrldVd6"/>
      <point x="193" y="192" type="curve" smooth="yes" identifier="vpLsJfeI5H"/>
      <point x="193" y="212" type="line" smooth="yes" identifier="k5A8RNFoOV"/>
      <point x="193" y="267" identifier="h2Udx2CvSQ"/>
      <point x="230" y="301" identifier="sOnCGSWxkn"/>
      <point x="300" y="301" type="curve" smooth="yes" identifier="Wyo5Ws6W1R"/>
      <point x="370" y="301" identifier="Ps6qS15qBq"/>
      <point x="407" y="267" identifier="u145GAntFq"/>
      <point x="407" y="212" type="curve" smooth="yes" identifier="l3cCgLHLvi"/>
      <point x="407" y="192" type="line" smooth="yes" identifier="8uJoggEqcW"/>
      <point x="407" y="138" identifier="oKO9yQzcLb"/>
      <point x="369" y="103" identifier="v8RhqVjWXc"/>
    </contour>
    <contour>
      <point x="300" y="411" type="curve" smooth="yes" identifier="27cz4ZZPzO"/>
      <point x="234" y="411" identifier="X608hhtgQA"/>
      <point x="198" y="444" identifier="U3V7GYutiT"/>
      <point x="198" y="496" type="curve" smooth="yes" identifier="s5x8KecvUM"/>
      <point x="198" y="511" type="line" smooth="yes" identifier="BvGZ36wR4z"/>
      <point x="198" y="563" identifier="5AhZkjELVd"/>
      <point x="235" y="595" identifier="7KxpP5OSAQ"/>
      <point x="300" y="595" type="curve" smooth="yes" identifier="aK1yailKcU"/>
      <point x="365" y="595" identifier="Z5OPU6KPJ9"/>
      <point x="402" y="563" identifier="mm9xiOY7BE"/>
      <point x="402" y="511" type="curve" smooth="yes" identifier="kCEJqYuw3N"/>
      <point x="402" y="496" type="line" smooth="yes" identifier="tfPLrRnQge"/>
      <point x="402" y="444" identifier="y0wL7McLHP"/>
      <point x="366" y="411" identifier="b1X3tHzAIu"/>
    </contour>
  </outline>
</glyph>
<glyph name="nine" format="2">
  <advance width="600"/>
  <unicode hex="0039"/>
  <outline>
    <contour>
      <point x="562" y="433" type="curve" smooth="yes" identifier="J6Blrr51Qj"/>
      <point x="562" y="601" identifier="pEo8VhNsgd"/>
      <point x="464" y="710" identifier="PRP9f3nQHK"/>
      <point x="296" y="710" type="curve" smooth="yes" identifier="FUML92axbW"/>
      <point x="135" y="710" identifier="ibxMKZ0eek"/>
      <point x="31" y="608" identifier="lUFfvwxVl8"/>
      <point x="31" y="466" type="curve" smooth="yes" identifier="Bpmj4ZMIJi"/>
      <point x="31" y="333" identifier="9AMp5Bad5i"/>
      <point x="121" y="248" identifier="77hHHQlvzr"/>
      <point x="238" y="248" type="curve" smooth="yes" identifier="rxM7wISkrY"/>
      <point x="329" y="248" identifier="2LaWZGWU2N"/>
      <point x="371" y="300" identifier="tPCIhmFrPw"/>
      <point x="396" y="353" type="curve" identifier="ZT9X5fjxxz"/>
      <point x="405" y="350" type="line" identifier="TGYaNfFLbI"/>
      <point x="376" y="215" identifier="osTtfHwnHp"/>
      <point x="273" y="121" identifier="dXZ3jmfiOV"/>
      <point x="100" y="0" type="curve" identifier="62G6CAWJ85"/>
      <point x="307" y="0" type="line" identifier="WB0OLG1nKs"/>
      <point x="428" y="81" identifier="Fq0QaebhmX"/>
      <point x="562" y="237" identifier="Fk9DqDBZkp"/>
    </contour>
    <contour>
      <point x="297" y="363" type="curve" smooth="yes" identifier="r9M1R6hHvh"/>
      <point x="227" y="363" identifier="jZhayKwZs3"/>
      <point x="187" y="401" identifier="wXNUq1F8Es"/>
      <point x="187" y="470" type="curve" smooth="yes" identifier="5pIo0JlM5L"/>
      <point x="187" y="484" type="line" smooth="yes" identifier="yuvXM3D0aW"/>
      <point x="187" y="553" identifier="mpp0Tfbaj6"/>
      <point x="225" y="593" identifier="TOQqKuF6Yd"/>
      <point x="297" y="593" type="curve" smooth="yes" identifier="wYlmMZfVB3"/>
      <point x="368" y="593" identifier="nh0GFBHQry"/>
      <point x="406" y="553" identifier="nN6IvI6xuK"/>
      <point x="406" y="484" type="curve" smooth="yes" identifier="3dU547Np9u"/>
      <point x="406" y="470" type="line" smooth="yes" identifier="jl3nmmrgEn"/>
      <point x="406" y="401" identifier="wlzpponNHM"/>
      <point x="365" y="363" identifier="u41qyv2Kn7"/>
    </contour>
  </outline>
</glyph>
<glyph name="less" format="2">
  <advance width="600"/>
  <unicode hex="003C"/>
  <outline>
    <contour>
      <point x="515" y="6" type="line" identifier="vTft80qRnb"/>
      <point x="515" y="144" type="line" identifier="vOp1lLf8wd"/>
      <point x="218" y="301" type="line" identifier="R6XmMk98FF"/>
      <point x="218" y="309" type="line" identifier="MmacXQhyDP"/>
      <point x="515" y="466" type="line" identifier="2rzyhytrlQ"/>
      <point x="515" y="604" type="line" identifier="HpUfEXkGgG"/>
      <point x="85" y="374" type="line" identifier="zU52zRP6tL"/>
      <point x="85" y="236" type="line" identifier="hklCG9BUue"/>
    </contour>
  </outline>
</glyph>
<glyph name="equal" format="2">
  <advance width="600"/>
  <unicode hex="003D"/>
  <outline>
    <contour>
      <point x="538" y="361" type="line" identifier="EllKR8aRO2"/>
      <point x="538" y="479" type="line" identifier="Izl4lH7hAa"/>
      <point x="62" y="479" type="line" identifier="VeYmWlL811"/>
      <point x="62" y="361" type="line" identifier="OE4a85zzGB"/>
    </contour>
    <contour>
      <point x="538" y="131" type="line" identifier="HhcCwBRKyg"/>
      <point x="538" y="249" type="line" identifier="lby8McX6Xc"/>
      <point x="62" y="249" type="line" identifier="KTPSDPyn6E"/>
      <point x="62" y="131" type="line" identifier="8fxgpRD1K8"/>
    </contour>
  </outline>
</glyph>
<glyph name="greater" format="2">
  <advance width="600"/>
  <unicode hex="003E"/>
  <outline>
    <contour>
      <point x="85" y="6" type="line" identifier="EfxcSJIhtW"/>
      <point x="515" y="236" type="line" identifier="mMC0MpGs7o"/>
      <point x="515" y="374" type="line" identifier="t8EgvHAHE2"/>
      <point x="85" y="604" type="line" identifier="b37ZoHvXjL"/>
      <point x="85" y="466" type="line" identifier="cN7lJaNtx1"/>
      <point x="382" y="309" type="line" identifier="B8pRwzvYxc"/>
      <point x="382" y="301" type="line" identifier="oHGk45iQRk"/>
      <point x="85" y="144" type="line" identifier="3GZNh7rQBq"/>
    </contour>
  </outline>
</glyph>
<glyph name="question" format="2">
  <advance width="600"/>
  <unicode hex="003F"/>
  <outline>
    <contour>
      <point x="348" y="233" type="line" identifier="WNS7S2DOdx"/>
      <point x="348" y="305" type="line" identifier="1oZp2xuLau"/>
      <point x="444" y="321" identifier="qog2xERMD5"/>
      <point x="527" y="392" identifier="KKSHRBengM"/>
      <point x="527" y="505" type="curve" smooth="yes" identifier="9iQAwcxDIV"/>
      <point x="527" y="626" identifier="dSb3XEAZ3Y"/>
      <point x="433" y="710" identifier="dNgowraGjw"/>
      <point x="291" y="710" type="curve" smooth="yes" identifier="KTaabafueV"/>
      <point x="153" y="710" identifier="vSmYayRM1i"/>
      <point x="84" y="630" identifier="ha5PQhhVqN"/>
      <point x="61" y="550" type="curve" identifier="dY3axCK7JY"/>
      <point x="183" y="499" type="line" identifier="cvSD9b2Mtf"/>
      <point x="196" y="549" identifier="gbLoDwTx8i"/>
      <point x="232" y="584" identifier="N93X58fHZm"/>
      <point x="286" y="584" type="curve" smooth="yes" identifier="XT91JRAXyA"/>
      <point x="334" y="584" identifier="M51ahPgITV"/>
      <point x="371" y="561" identifier="A5svAr8Q7A"/>
      <point x="371" y="506" type="curve" smooth="yes" identifier="qlueFQGtLB"/>
      <point x="371" y="492" type="line" smooth="yes" identifier="rSed9yOEUf"/>
      <point x="371" y="416" identifier="F9DmtBqByo"/>
      <point x="308" y="390" identifier="dhmTAButKO"/>
      <point x="208" y="386" type="curve" identifier="au76GRYa1J"/>
      <point x="208" y="233" type="line" identifier="AODRcGMA5B"/>
    </contour>
    <contour>
      <point x="280" y="-12" type="curve" smooth="yes" identifier="p0nLUTe6bJ"/>
      <point x="351" y="-12" identifier="cbq6FXAQ7Y"/>
      <point x="379" y="23" identifier="4mOa3mWCnB"/>
      <point x="379" y="66" type="curve" smooth="yes" identifier="Mztr855dfg"/>
      <point x="379" y="98" type="line" smooth="yes" identifier="0QZzkZNB5q"/>
      <point x="379" y="140" identifier="6MsCTyUa2i"/>
      <point x="351" y="175" identifier="1oFNaTNqrS"/>
      <point x="280" y="175" type="curve" smooth="yes" identifier="W2X26Fmw2u"/>
      <point x="210" y="175" identifier="7aisy0NdpI"/>
      <point x="182" y="140" identifier="JEVs1Iv0Wv"/>
      <point x="182" y="98" type="curve" smooth="yes" identifier="14emgxF7He"/>
      <point x="182" y="66" type="line" smooth="yes" identifier="FbOPQD3bgO"/>
      <point x="182" y="23" identifier="h9uGXjNIPg"/>
      <point x="210" y="-12" identifier="3lFCuJ3D5Z"/>
    </contour>
  </outline>
</glyph>
<glyph name="at" format="2">
  <advance width="600"/>
  <unicode hex="0040"/>
  <outline>
    <contour>
      <point x="446" y="-17" type="line" identifier="7cYz7XY2xd"/>
      <point x="341" y="-17" type="line" smooth="yes" identifier="8zFjvGj11v"/>
      <point x="203" y="-17" identifier="ztFkxL66rZ"/>
      <point x="150" y="74" identifier="zFOKWHmjKr"/>
      <point x="150" y="229" type="curve" smooth="yes" identifier="XX40jJmSJT"/>
      <point x="150" y="358" type="line" smooth="yes" identifier="Fb7Expa82Q"/>
      <point x="150" y="559" identifier="zUAn6zfntc"/>
      <point x="209" y="615" identifier="WpNqLl3axP"/>
      <point x="307" y="615" type="curve" smooth="yes" identifier="4POszpsSig"/>
      <point x="390" y="615" identifier="DmnjejrARg"/>
      <point x="446" y="576" identifier="Hr6kUhyEkN"/>
      <point x="446" y="463" type="curve" smooth="yes" identifier="HRBirbqhxv"/>
      <point x="446" y="436" type="line" identifier="U8tnxgj8O2"/>
      <point x="439" y="436" type="line" identifier="QjHq3VIDPV"/>
      <point x="424" y="485" identifier="p56kyoEFdh"/>
      <point x="391" y="509" identifier="ZOSucCMErW"/>
      <point x="345" y="509" type="curve" smooth="yes" identifier="vskb0gVIRy"/>
      <point x="267" y="509" identifier="inLJhdpZw6"/>
      <point x="221" y="442" identifier="5Y7cOT02Ra"/>
      <point x="221" y="294" type="curve" smooth="yes" identifier="uX2XWMHYRK"/>
      <point x="221" y="146" identifier="jcNLt60KZS"/>
      <point x="267" y="79" identifier="zetXSpe41D"/>
      <point x="345" y="79" type="curve" smooth="yes" identifier="5kNkmGxWid"/>
      <point x="391" y="79" identifier="vlQaiVVZSA"/>
      <point x="424" y="103" identifier="dciDAasFss"/>
      <point x="439" y="152" type="curve" identifier="0pMHsz0eKj"/>
      <point x="446" y="152" type="line" identifier="RhVxppvtlT"/>
      <point x="446" y="91" type="line" identifier="mxRxa0MwHl"/>
      <point x="553" y="91" type="line" identifier="UfM50XQlTT"/>
      <point x="553" y="463" type="line" smooth="yes" identifier="YKRonSFPsK"/>
      <point x="553" y="602" identifier="dnuvBhETSe"/>
      <point x="474" y="710" identifier="3QoXzsVxQz"/>
      <point x="301" y="710" type="curve" smooth="yes" identifier="BcJYcC7xzQ"/>
      <point x="132" y="710" identifier="AGB6zk5Zzr"/>
      <point x="38" y="608" identifier="aFbYmvZq65"/>
      <point x="38" y="305" type="curve" smooth="yes" identifier="vzSFr12AoD"/>
      <point x="38" y="24" identifier="E5xYy4vWMj"/>
      <point x="119" y="-113" identifier="baC6UMf9w9"/>
      <point x="341" y="-113" type="curve" smooth="yes" identifier="DrwJw2jgGo"/>
      <point x="446" y="-113" type="line" identifier="gYZgGErFFS"/>
    </contour>
    <contour>
      <point x="389" y="165" type="curve" smooth="yes" identifier="83jSiGiHVo"/>
      <point x="353" y="165" identifier="Fo0ngVUHBM"/>
      <point x="333" y="187" identifier="k2nKx96MXr"/>
      <point x="333" y="261" type="curve" identifier="ydQHrIUT5k"/>
      <point x="333" y="327" type="line" smooth="yes" identifier="05U8m3zs6I"/>
      <point x="333" y="401" identifier="tr2xRcbbTs"/>
      <point x="353" y="423" identifier="YILX0ySYuR"/>
      <point x="389" y="423" type="curve" smooth="yes" identifier="f3804gEPTw"/>
      <point x="426" y="423" identifier="inaaJGuIFt"/>
      <point x="446" y="400" identifier="4RqeymMABi"/>
      <point x="446" y="364" type="curve" smooth="yes" identifier="FyafNbX5FB"/>
      <point x="446" y="224" type="line" smooth="yes" identifier="A5gq1oT9lx"/>
      <point x="446" y="188" identifier="zIB3b7yTJf"/>
      <point x="426" y="165" identifier="4hsANSQSMd"/>
    </contour>
  </outline>
</glyph>
<glyph name="A" format="2">
  <advance width="600"/>
  <unicode hex="0041"/>
  <anchor x="300.0" y="0.0" name="bottom"/>
  <anchor x="595.0" y="0.0" name="bottomright"/>
  <anchor x="300.0" y="698.0" name="top"/>
  <outline>
    <contour>
      <point x="595" y="0" type="line" identifier="U8zOG728Hp"/>
      <point x="406" y="698" type="line" identifier="jlMuvlNhqa"/>
      <point x="194" y="698" type="line" identifier="BIFkMYuPiv"/>
      <point x="5" y="0" type="line" identifier="ECXMGx8x76"/>
      <point x="157" y="0" type="line" identifier="Bk4X0rKSgs"/>
      <point x="200" y="168" type="line" identifier="yHPdoj28Af"/>
      <point x="391" y="168" type="line" identifier="70uPtUvhS3"/>
      <point x="435" y="0" type="line" identifier="A8KsHavzjV"/>
    </contour>
    <contour>
      <point x="368" y="289" type="line" identifier="JYins4Xn7D"/>
      <point x="224" y="289" type="line" identifier="SbtRrLZPIm"/>
      <point x="292" y="553" type="line" identifier="iRTSUu8162"/>
      <point x="300" y="553" type="line" identifier="EhFOYk3k0K"/>
    </contour>
  </outline>
</glyph>
<glyph name="B" format="2">
  <advance width="600"/>
  <unicode hex="0042"/>
  <anchor x="300.0" y="0.0" name="bottom"/>
  <anchor x="295.0" y="698.0" name="top"/>
  <outline>
    <contour>
      <point x="77" y="0" type="line" identifier="8fQgJQ4fgM"/>
      <point x="345" y="0" type="line" smooth="yes" identifier="plQC8ZlOGw"/>
      <point x="477" y="0" identifier="eox54avGw5"/>
      <point x="556" y="75" identifier="FuU3sck9uO"/>
      <point x="556" y="192" type="curve" smooth="yes" identifier="mAIP7tRjGE"/>
      <point x="556" y="286" identifier="J1UDbq2e6w"/>
      <point x="506" y="338" identifier="KKIaz41frk"/>
      <point x="420" y="359" type="curve" identifier="kPMC14XSQY"/>
      <point x="420" y="365" type="line" identifier="XGD2AO1f18"/>
      <point x="493" y="386" identifier="Y0eUczqAe0"/>
      <point x="534" y="433" identifier="6Uvjjz9GBO"/>
      <point x="534" y="512" type="curve" smooth="yes" identifier="kUvaGoe3VZ"/>
      <point x="534" y="626" identifier="fiai0hW2In"/>
      <point x="458" y="698" identifier="CgV2hHe5BD"/>
      <point x="322" y="698" type="curve" smooth="yes" identifier="r1I0NGtMnJ"/>
      <point x="77" y="698" type="line" identifier="xMI7VskMqN"/>
    </contour>
    <contour>
      <point x="223" y="105" type="line" identifier="vUnMN9YUs5"/>
      <point x="223" y="302" type="line" identifier="SbZ06a4Cl8"/>
      <point x="299" y="302" type="line" smooth="yes" identifier="uWtGb9J3JE"/>
      <point x="370" y="302" identifier="UmxbxOCIhf"/>
      <point x="403" y="281" identifier="jx21XoCYNJ"/>
      <point x="403" y="218" type="curve" smooth="yes" identifier="Eo9zOlZiTe"/>
      <point x="403" y="189" type="line" smooth="yes" identifier="vr3WFiHPHE"/>
      <point x="403" y="125" identifier="iYiJbyC3yp"/>
      <point x="370" y="105" identifier="twC5DMqx4c"/>
      <point x="299" y="105" type="curve" smooth="yes" identifier="bU2WHbtt7Q"/>
    </contour>
    <contour>
      <point x="223" y="402" type="line" identifier="JdEZ58OSIg"/>
      <point x="223" y="593" type="line" identifier="ZSZUDKhEPu"/>
      <point x="280" y="593" type="line" smooth="yes" identifier="39YZYZ6hDe"/>
      <point x="350" y="593" identifier="h1av5J220R"/>
      <point x="381" y="574" identifier="grTBgNuvSq"/>
      <point x="381" y="513" type="curve" smooth="yes" identifier="TqwHz7CkWb"/>
      <point x="381" y="483" type="line" smooth="yes" identifier="9vIF49drDY"/>
      <point x="381" y="422" identifier="ParcI1r2km"/>
      <point x="350" y="402" identifier="prJYJyCwRl"/>
      <point x="280" y="402" type="curve" smooth="yes" identifier="WTCTJiLjOD"/>
    </contour>
  </outline>
</glyph>
<glyph name="C" format="2">
  <advance width="600"/>
  <unicode hex="0043"/>
  <anchor x="303.0" y="0.0" name="bottom"/>
  <anchor x="312.0" y="698.0" name="top"/>
  <outline>
    <contour>
      <point x="316" y="-12" type="curve" smooth="yes" identifier="on0CwetRyk"/>
      <point x="460" y="-12" identifier="381i6Umu3Z"/>
      <point x="535" y="67" identifier="KTpUkCJcr4"/>
      <point x="563" y="189" type="curve" identifier="yUonvgmRIO"/>
      <point x="423" y="223" type="line" identifier="RKvg6uw94Y"/>
      <point x="408" y="157" identifier="mXLzRL6Ysc"/>
      <point x="383" y="109" identifier="PNhrjNUrCT"/>
      <point x="313" y="109" type="curve" smooth="yes" identifier="hx37B6JEBE"/>
      <point x="232" y="109" identifier="r1hVPkIIZ1"/>
      <point x="201" y="177" identifier="Ahsx2BvsH7"/>
      <point x="201" y="288" type="curve" smooth="yes" identifier="cUBou5dnhE"/>
      <point x="201" y="410" type="line" identifier="mYIn5o2E8R"/>
      <point x="201" y="521" identifier="QM6FIxmmLV"/>
      <point x="232" y="589" identifier="xZ7OPDWOjQ"/>
      <point x="313" y="589" type="curve" smooth="yes" identifier="8LWOhfVpJE"/>
      <point x="383" y="589" identifier="4HSMQfZCm2"/>
      <point x="408" y="541" identifier="KXLGcxSTWT"/>
      <point x="423" y="475" type="curve" identifier="Xb07alq9vA"/>
      <point x="563" y="509" type="line" identifier="FyRn8Ojk1m"/>
      <point x="535" y="631" identifier="zBshXz1qCS"/>
      <point x="460" y="710" identifier="6EwKqxUh3L"/>
      <point x="316" y="710" type="curve" smooth="yes" identifier="HiAcvym7Bd"/>
      <point x="129" y="710" identifier="dbHu9ks28j"/>
      <point x="41" y="578" identifier="mjt9uy8tHz"/>
      <point x="41" y="349" type="curve" smooth="yes" identifier="gI5fQnaly6"/>
      <point x="41" y="120" identifier="QPlE3NFz42"/>
      <point x="129" y="-12" identifier="QjzTMxMrFA"/>
    </contour>
  </outline>
</glyph>
<glyph name="D" format="2">
  <advance width="600"/>
  <unicode hex="0044"/>
  <anchor x="278.0" y="0.0" name="bottom"/>
  <anchor x="278.0" y="698.0" name="top"/>
  <outline>
    <contour>
      <point x="64" y="0" type="line" identifier="7AoeFGpqrF"/>
      <point x="289" y="0" type="line" identifier="GwJCLT6PFb"/>
      <point x="476" y="0" identifier="7ZSJ9l3KTz"/>
      <point x="566" y="125" identifier="hc1J1dqBty"/>
      <point x="566" y="349" type="curve" smooth="yes" identifier="2TyUdgXSk7"/>
      <point x="566" y="573" identifier="eG9SZ1zB3Q"/>
      <point x="476" y="698" identifier="X97qrfzJ5h"/>
      <point x="289" y="698" type="curve" smooth="yes" identifier="HaUZVBQbFu"/>
      <point x="64" y="698" type="line" identifier="at3nWSSmrn"/>
    </contour>
    <contour>
      <point x="212" y="118" type="line" identifier="fZdl7xftLt"/>
      <point x="212" y="580" type="line" identifier="qXem8LeRrh"/>
      <point x="279" y="580" type="line" smooth="yes" identifier="ih4AqTFlIi"/>
      <point x="368" y="580" identifier="2ly0GZedhn"/>
      <point x="408" y="521" identifier="O5zZG8hGDv"/>
      <point x="408" y="413" type="curve" smooth="yes" identifier="dhy87qQziv"/>
      <point x="408" y="286" type="line" identifier="kpeDPjKyzU"/>
      <point x="408" y="177" identifier="ECBkCJ0J7E"/>
      <point x="368" y="118" identifier="WnmEdSFqPx"/>
      <point x="279" y="118" type="curve" smooth="yes" identifier="lPBDRlSi3Y"/>
    </contour>
  </outline>
</glyph>
<glyph name="E" format="2">
  <advance width="600"/>
  <unicode hex="0045"/>
  <anchor x="303.0" y="0.0" name="bottom"/>
  <anchor x="526.0" y="0.0" name="bottomright"/>
  <anchor x="303.0" y="698.0" name="top"/>
  <outline>
    <contour>
      <point x="526" y="0" type="line" identifier="fm0zPZS06S"/>
      <point x="526" y="123" type="line" identifier="ZLU038vAvR"/>
      <point x="230" y="123" type="line" identifier="9s1CKF8Ef3"/>
      <point x="230" y="292" type="line" identifier="CNa6M2OMlQ"/>
      <point x="516" y="292" type="line" identifier="9LgjKGe3Hl"/>
      <point x="516" y="415" type="line" identifier="oGWLdhBI5K"/>
      <point x="230" y="415" type="line" identifier="lT5l6R8bwx"/>
      <point x="230" y="575" type="line" identifier="2P05aMXxZW"/>
      <point x="526" y="575" type="line" identifier="J73r2IhCzF"/>
      <point x="526" y="698" type="line" identifier="guxaUTaxRV"/>
      <point x="80" y="698" type="line" identifier="zYiehUsLaM"/>
      <point x="80" y="0" type="line" identifier="ffig6OFwdQ"/>
    </contour>
  </outline>
</glyph>
<glyph name="F" format="2">
  <advance width="600"/>
  <unicode hex="0046"/>
  <anchor x="151.0" y="0.0" name="bottom"/>
  <anchor x="311.0" y="698.0" name="top"/>
  <outline>
    <contour>
      <point x="230" y="0" type="line" identifier="kAWZXfOWjd"/>
      <point x="230" y="292" type="line" identifier="wd1Ne7brQ7"/>
      <point x="510" y="292" type="line" identifier="IDPMa9tUeE"/>
      <point x="510" y="415" type="line" identifier="LYJy6bNswf"/>
      <point x="230" y="415" type="line" identifier="yGZg3vspSr"/>
      <point x="230" y="575" type="line" identifier="TIpbE6WBqe"/>
      <point x="543" y="575" type="line" identifier="gWGyWXghw2"/>
      <point x="543" y="698" type="line" identifier="nt1XVcLQ0A"/>
      <point x="80" y="698" type="line" identifier="1iHiasZ6KG"/>
      <point x="80" y="0" type="line" identifier="ftu0Y1fH86"/>
    </contour>
  </outline>
</glyph>
<glyph name="G" format="2">
  <advance width="600"/>
  <unicode hex="0047"/>
  <anchor x="298.0" y="0.0" name="bottom"/>
  <anchor x="301.0" y="698.0" name="top"/>
  <outline>
    <contour>
      <point x="411" y="0" type="line" identifier="pv0er7oQl8"/>
      <point x="545" y="0" type="line" identifier="BuzHgJ2ex6"/>
      <point x="545" y="373" type="line" identifier="gK4zyHYVFR"/>
      <point x="292" y="373" type="line" identifier="xdGgQxq7DM"/>
      <point x="292" y="267" type="line" identifier="8Zn6pvPrLO"/>
      <point x="411" y="267" type="line" identifier="hlkY6UmeO4"/>
      <point x="411" y="216" type="line" smooth="yes" identifier="9erQNMxHnm"/>
      <point x="411" y="154" identifier="DqTJwnklQu"/>
      <point x="377" y="109" identifier="ECUL92d2SV"/>
      <point x="310" y="109" type="curve" smooth="yes" identifier="zHLtjfgXNf"/>
      <point x="223" y="109" identifier="zmmIQToCED"/>
      <point x="194" y="183" identifier="InuzIAnnu8"/>
      <point x="194" y="296" type="curve" smooth="yes" identifier="mSUNaYeKNO"/>
      <point x="194" y="410" type="line" smooth="yes" identifier="Xry4deBzEj"/>
      <point x="194" y="522" identifier="sxXSXtHE4u"/>
      <point x="222" y="589" identifier="6uOTFXbYzr"/>
      <point x="298" y="589" type="curve" smooth="yes" identifier="DIxUDkS2pc"/>
      <point x="367" y="589" identifier="sCt9NxloHU"/>
      <point x="390" y="534" identifier="Vow0PbRUqi"/>
      <point x="405" y="475" type="curve" identifier="nA7dqYPymM"/>
      <point x="545" y="509" type="line" identifier="tzMGMvu5bk"/>
      <point x="517" y="629" identifier="us7Ofa2LiT"/>
      <point x="445" y="710" identifier="c4mFbszQ2L"/>
      <point x="301" y="710" type="curve" smooth="yes" identifier="OsCxOsEqFO"/>
      <point x="120" y="710" identifier="YTgsXkRVhc"/>
      <point x="35" y="580" identifier="iaIHBqnFSj"/>
      <point x="35" y="343" type="curve" smooth="yes" identifier="n7KclOuMyB"/>
      <point x="35" y="121" identifier="r3HLDg8ziH"/>
      <point x="109" y="-12" identifier="XxQ7cdnvIg"/>
      <point x="246" y="-12" type="curve" smooth="yes" identifier="tPpXfzETg7"/>
      <point x="332" y="-12" identifier="wl0nTDohnJ"/>
      <point x="379" y="41" identifier="O0tUt7WWcQ"/>
      <point x="402" y="99" type="curve" identifier="9EgDAv81Do"/>
      <point x="411" y="99" type="line" identifier="zH8ITooVrb"/>
    </contour>
  </outline>
</glyph>
<glyph name="H" format="2">
  <advance width="600"/>
  <unicode hex="0048"/>
  <anchor x="300.0" y="0.0" name="bottom"/>
  <anchor x="300.0" y="698.0" name="top"/>
  <outline>
    <contour>
      <point x="388" y="0" type="line" identifier="f9CBJlU8Rc"/>
      <point x="539" y="0" type="line" identifier="CfGHMPQxln"/>
      <point x="539" y="698" type="line" identifier="bOOzdltggz"/>
      <point x="388" y="698" type="line" identifier="Qd97YGLF2D"/>
      <point x="388" y="415" type="line" identifier="5Srs3OxGRg"/>
      <point x="212" y="415" type="line" identifier="KCaVAk7pbq"/>
      <point x="212" y="698" type="line" identifier="TixCICHkQy"/>
      <point x="61" y="698" type="line" identifier="oVq8OQ9gwo"/>
      <point x="61" y="0" type="line" identifier="aUA9Hfn9am"/>
      <point x="212" y="0" type="line" identifier="1poCvKtc5t"/>
      <point x="212" y="292" type="line" identifier="5jjmF5B8GR"/>
      <point x="388" y="292" type="line" identifier="vitJTXRHLh"/>
    </contour>
  </outline>
</glyph>
<glyph name="I" format="2">
  <advance width="600"/>
  <unicode hex="0049"/>
  <anchor x="300.0" y="0.0" name="bottom"/>
  <anchor x="525.0" y="0.0" name="bottomright"/>
  <anchor x="300.0" y="698.0" name="top"/>
  <outline>
    <contour>
      <point x="525" y="0" type="line" identifier="jlNag221s3"/>
      <point x="525" y="111" type="line" identifier="oUyyc0xakB"/>
      <point x="375" y="111" type="line" identifier="Ccsh3rKbqd"/>
      <point x="375" y="587" type="line" identifier="z2JX7CA1mM"/>
      <point x="525" y="587" type="line" identifier="a7pgVkEXl2"/>
      <point x="525" y="698" type="line" identifier="eQbQ4kAPbP"/>
      <point x="75" y="698" type="line" identifier="FCLT020Xte"/>
      <point x="75" y="587" type="line" identifier="7aPhDUuhqL"/>
      <point x="225" y="587" type="line" identifier="uKqAvIyGig"/>
      <point x="225" y="111" type="line" identifier="SHyLEQJHhY"/>
      <point x="75" y="111" type="line" identifier="bi8vvNkekF"/>
      <point x="75" y="0" type="line" identifier="NA0T26tf9x"/>
    </contour>
  </outline>
</glyph>
<glyph name="J" format="2">
  <advance width="600"/>
  <unicode hex="004A"/>
  <anchor x="275.0" y="0.0" name="bottom"/>
  <anchor x="321.0" y="698.0" name="top"/>
  <outline>
    <contour>
      <point x="129" y="698" type="line" identifier="6P172Nu13Y"/>
      <point x="129" y="575" type="line" identifier="WTPBosQDc7"/>
      <point x="359" y="575" type="line" identifier="82OzuZmCa2"/>
      <point x="359" y="210" type="line" smooth="yes" identifier="AcUPm0UiSq"/>
      <point x="359" y="142" identifier="qCJgbchwkU"/>
      <point x="329" y="110" identifier="7VLEcCLJHX"/>
      <point x="278" y="110" type="curve" smooth="yes" identifier="UKr2J3mnVF"/>
      <point x="218" y="110" identifier="Y2MRGnCeE4"/>
      <point x="191" y="152" identifier="xy1O2M0wg7"/>
      <point x="180" y="211" type="curve" identifier="7uWQ2R1IyV"/>
      <point x="38" y="182" type="line" identifier="aWcMMNXiDh"/>
      <point x="60" y="66" identifier="9EVSWQdHYA"/>
      <point x="135" y="-12" identifier="Z2TPoTsIab"/>
      <point x="278" y="-12" type="curve" smooth="yes" identifier="dKbKazNTDn"/>
      <point x="420" y="-12" identifier="JInG8t3TQu"/>
      <point x="511" y="69" identifier="BbTXvicILH"/>
      <point x="511" y="195" type="curve" smooth="yes" identifier="gHghjWWOFx"/>
      <point x="511" y="698" type="line" identifier="F0AuPvEDQ0"/>
    </contour>
  </outline>
</glyph>
<glyph name="K" format="2">
  <advance width="600"/>
  <unicode hex="004B"/>
  <anchor x="325.0" y="0.0" name="bottom"/>
  <anchor x="317.0" y="698.0" name="top"/>
  <outline>
    <contour>
      <point x="434" y="0" type="line" identifier="RPTFbS3edO"/>
      <point x="603" y="0" type="line" identifier="U7ZEG4vRg1"/>
      <point x="384" y="403" type="line" identifier="imasN0odag"/>
      <point x="593" y="698" type="line" identifier="a1sXIhfSTc"/>
      <point x="425" y="698" type="line" identifier="D11Pyqw1uZ"/>
      <point x="302" y="522" type="line" identifier="LvQfWLgctb"/>
      <point x="226" y="406" type="line" identifier="67xr0MKLyL"/>
      <point x="218" y="406" type="line" identifier="lzZwdvpxkt"/>
      <point x="218" y="698" type="line" identifier="Z47KnbDecm"/>
      <point x="68" y="698" type="line" identifier="vWnfxwQigS"/>
      <point x="68" y="0" type="line" identifier="EpcKohghOo"/>
      <point x="218" y="0" type="line" identifier="YYFGNQTauf"/>
      <point x="218" y="204" type="line" identifier="lpG9VWBg9B"/>
      <point x="280" y="291" type="line" identifier="nTr9sNP2Vl"/>
    </contour>
  </outline>
</glyph>
<glyph name="L" format="2">
  <advance width="600"/>
  <unicode hex="004C"/>
  <anchor x="317.0" y="0.0" name="bottom"/>
  <anchor x="167.0" y="698.0" name="top"/>
  <anchor x="320.0" y="740.0" name="topright"/>
  <outline>
    <contour>
      <point x="543" y="0" type="line" identifier="7dnt7VSnIt"/>
      <point x="543" y="123" type="line" identifier="PTb9lWwmP0"/>
      <point x="243" y="123" type="line" identifier="JVx7G6cYZ6"/>
      <point x="243" y="698" type="line" identifier="IX33AoJjmX"/>
      <point x="92" y="698" type="line" identifier="OWD2gLMcoc"/>
      <point x="92" y="0" type="line" identifier="hDtUr6jTVP"/>
    </contour>
  </outline>
</glyph>
<glyph name="M" format="2">
  <advance width="600"/>
  <unicode hex="004D"/>
  <anchor x="300.0" y="0.0" name="bottom"/>
  <anchor x="300.0" y="698.0" name="top"/>
  <outline>
    <contour>
      <point x="431" y="0" type="line" identifier="AK5My3T6e3"/>
      <point x="561" y="0" type="line" identifier="v1VgMKMpMz"/>
      <point x="561" y="698" type="line" identifier="dm1in7EmQB"/>
      <point x="396" y="698" type="line" identifier="dm7x7KbXBi"/>
      <point x="310" y="463" type="line" identifier="JZ21hkLR3X"/>
      <point x="302" y="463" type="line" identifier="4b2cUsvxRa"/>
      <point x="216" y="698" type="line" identifier="o4NiIGI5vg"/>
      <point x="39" y="698" type="line" identifier="XFBQrYWw4v"/>
      <point x="39" y="0" type="line" identifier="EXNGbYxv0h"/>
      <point x="169" y="0" type="line" identifier="Zc3Gh4tqXY"/>
      <point x="169" y="311" type="line" identifier="8b6gHw3677"/>
      <point x="161" y="506" type="line" identifier="T9xAel7gJT"/>
      <point x="170" y="506" type="line" identifier="DrDsCU04Ba"/>
      <point x="300" y="147" type="line" identifier="wgvCEHXlMl"/>
      <point x="430" y="506" type="line" identifier="t0UK7MnK2o"/>
      <point x="439" y="506" type="line" identifier="KcYMbz4qkl"/>
      <point x="431" y="311" type="line" identifier="qODcf1vUaj"/>
    </contour>
  </outline>
</glyph>
<glyph name="N" format="2">
  <advance width="600"/>
  <unicode hex="004E"/>
  <anchor x="300.0" y="0.0" name="bottom"/>
  <anchor x="300.0" y="698.0" name="top"/>
  <outline>
    <contour>
      <point x="359" y="0" type="line" identifier="Nbn5UNr6cJ"/>
      <point x="539" y="0" type="line" identifier="0C3VZws3dM"/>
      <point x="539" y="698" type="line" identifier="0ooEd8k471"/>
      <point x="411" y="698" type="line" identifier="Pn5imnOHh9"/>
      <point x="411" y="234" type="line" identifier="bvQpm8IPBt"/>
      <point x="400" y="234" type="line" identifier="tIdoBPhpuy"/>
      <point x="241" y="698" type="line" identifier="DAzFH6NoOU"/>
      <point x="61" y="698" type="line" identifier="J8mIL6FD0z"/>
      <point x="61" y="0" type="line" identifier="5Z9tVFXA27"/>
      <point x="189" y="0" type="line" identifier="yOSNB7jhux"/>
      <point x="189" y="464" type="line" identifier="i6QvRX8UP5"/>
      <point x="200" y="464" type="line" identifier="A2yEoO4pby"/>
    </contour>
  </outline>
</glyph>
<glyph name="O" format="2">
  <advance width="600"/>
  <unicode hex="004F"/>
  <anchor x="300.0" y="0.0" name="bottom"/>
  <anchor x="300.0" y="698.0" name="top"/>
  <outline>
    <contour>
      <point x="300" y="-12" type="curve" smooth="yes" identifier="pZRbQJBAIq"/>
      <point x="487" y="-12" identifier="JM0KCJPO7s"/>
      <point x="573" y="121" identifier="VBP38zqKCD"/>
      <point x="573" y="349" type="curve" smooth="yes" identifier="q2g35kjzxF"/>
      <point x="573" y="577" identifier="quwEsllJcP"/>
      <point x="487" y="710" identifier="c6FaKHJxv4"/>
      <point x="300" y="710" type="curve" smooth="yes" identifier="YsMA66eJAp"/>
      <point x="113" y="710" identifier="j9UGcDVPmp"/>
      <point x="27" y="577" identifier="fORabRZwzs"/>
      <point x="27" y="349" type="curve" smooth="yes" identifier="KSffIHDdJY"/>
      <point x="27" y="121" identifier="hRPvU9Rbzc"/>
      <point x="113" y="-12" identifier="UugzifoZIG"/>
    </contour>
    <contour>
      <point x="300" y="109" type="curve" smooth="yes" identifier="V82Shm4ArD"/>
      <point x="215" y="109" identifier="TcSMJnoNGn"/>
      <point x="187" y="176" identifier="kAmJ2uG0oc"/>
      <point x="187" y="288" type="curve" smooth="yes" identifier="LIdJckA9GH"/>
      <point x="187" y="410" type="line" smooth="yes" identifier="hx8xKgPCiY"/>
      <point x="187" y="522" identifier="nAAzhDhbpu"/>
      <point x="215" y="589" identifier="0wMq0A6HQz"/>
      <point x="300" y="589" type="curve" smooth="yes" identifier="ctNBkN7lya"/>
      <point x="385" y="589" identifier="O5cf0dCyOk"/>
      <point x="413" y="522" identifier="YOdEfiIohi"/>
      <point x="413" y="410" type="curve" smooth="yes" identifier="24r3bz5oqE"/>
      <point x="413" y="289" type="line" identifier="9EK27bjFPm"/>
      <point x="413" y="176" identifier="XYMBju7lFt"/>
      <point x="385" y="109" identifier="suGnx6LiI1"/>
    </contour>
  </outline>
</glyph>
<glyph name="P" format="2">
  <advance width="600"/>
  <unicode hex="0050"/>
  <anchor x="151.0" y="0.0" name="bottom"/>
  <anchor x="300.0" y="698.0" name="top"/>
  <outline>
    <contour>
      <point x="227" y="0" type="line" identifier="ulCvPizFGr"/>
      <point x="227" y="254" type="line" identifier="P4ytM8RdME"/>
      <point x="346" y="254" type="line" smooth="yes" identifier="2rz0PVOw5Y"/>
      <point x="483" y="254" identifier="gykjG4vqvF"/>
      <point x="560" y="341" identifier="WmiwXMz58k"/>
      <point x="560" y="476" type="curve" smooth="yes" identifier="fIngneFF4F"/>
      <point x="560" y="611" identifier="JIo6z9Msu7"/>
      <point x="483" y="698" identifier="UveKn3u0Z3"/>
      <point x="346" y="698" type="curve" smooth="yes" identifier="8iNKxiuWp6"/>
      <point x="76" y="698" type="line" identifier="oHlwRRksAp"/>
      <point x="76" y="0" type="line" identifier="EzuTXgSknm"/>
    </contour>
    <contour>
      <point x="227" y="577" type="line" identifier="AV09SbyHJG"/>
      <point x="308" y="577" type="line" smooth="yes" identifier="XQLB5mYRyc"/>
      <point x="378" y="577" identifier="5xakLucmwE"/>
      <point x="402" y="552" identifier="6XHJHdQwbt"/>
      <point x="402" y="491" type="curve" smooth="yes" identifier="RqbSgoRxmr"/>
      <point x="402" y="461" type="line" identifier="1cqRKGAFAH"/>
      <point x="402" y="400" identifier="ZAqUtW9wqn"/>
      <point x="378" y="375" identifier="VSqsaCDnJB"/>
      <point x="308" y="375" type="curve" smooth="yes" identifier="QVtUZphIzS"/>
      <point x="227" y="375" type="line" identifier="g3jn8ryp3W"/>
    </contour>
  </outline>
</glyph>
<glyph name="Q" format="2">
  <advance width="600"/>
  <unicode hex="0051"/>
  <anchor x="300.0" y="698.0" name="top"/>
  <outline>
    <contour>
      <point x="526" y="-84" type="line" identifier="AQlx8yXhpt"/>
      <point x="365" y="-84" type="line" identifier="NzO7QfGz7Z"/>
      <point x="365" y="-6" type="line" identifier="b2h4JHp0Uz"/>
      <point x="507" y="22" identifier="Gvw6CaSLe2"/>
      <point x="573" y="149" identifier="rjvzIg1hD5"/>
      <point x="573" y="349" type="curve" smooth="yes" identifier="rZHh85VLSg"/>
      <point x="573" y="577" identifier="0cOszRaG0R"/>
      <point x="487" y="710" identifier="OExUo6le74"/>
      <point x="300" y="710" type="curve" smooth="yes" identifier="JSL7v2dc9o"/>
      <point x="113" y="710" identifier="cjn78CC1JU"/>
      <point x="27" y="577" identifier="ewtdaYHfRn"/>
      <point x="27" y="349" type="curve" smooth="yes" identifier="NzmZlV81DT"/>
      <point x="27" y="149" identifier="4LasyXmJXp"/>
      <point x="93" y="22" identifier="tMDII2c0Qh"/>
      <point x="235" y="-6" type="curve" identifier="VCx2BDXUXj"/>
      <point x="235" y="-47" type="line" smooth="yes" identifier="eogpH6ABsi"/>
      <point x="235" y="-134" identifier="9YkvXolANO"/>
      <point x="276" y="-191" identifier="ZY1AttUeTd"/>
      <point x="384" y="-191" type="curve" smooth="yes" identifier="fW4MpEAldO"/>
      <point x="526" y="-191" type="line" identifier="JYB9wX4O5T"/>
    </contour>
    <contour>
      <point x="300" y="109" type="curve" smooth="yes" identifier="lELeAhoVsz"/>
      <point x="215" y="109" identifier="09dG4gu5PE"/>
      <point x="187" y="176" identifier="LdoftVEWGe"/>
      <point x="187" y="288" type="curve" smooth="yes" identifier="3MJwktrbL1"/>
      <point x="187" y="410" type="line" smooth="yes" identifier="FfdOyrDeYB"/>
      <point x="187" y="522" identifier="B97ow4CfWU"/>
      <point x="215" y="589" identifier="4qtWO0sRPy"/>
      <point x="300" y="589" type="curve" smooth="yes" identifier="W7T3hChC6V"/>
      <point x="385" y="589" identifier="JXTc1ndwxh"/>
      <point x="413" y="522" identifier="sCgAoDtBZP"/>
      <point x="413" y="410" type="curve" smooth="yes" identifier="67tdeVGor2"/>
      <point x="413" y="289" type="line" smooth="yes" identifier="Zofcfk0RIp"/>
      <point x="413" y="176" identifier="ZeoAaffQtf"/>
      <point x="385" y="109" identifier="qrK1AlxdaJ"/>
    </contour>
  </outline>
</glyph>
<glyph name="R" format="2">
  <advance width="600"/>
  <unicode hex="0052"/>
  <anchor x="315.0" y="0.0" name="bottom"/>
  <anchor x="304.0" y="698.0" name="top"/>
  <outline>
    <contour>
      <point x="224" y="259" type="line" identifier="Q4ZVeQg9Ew"/>
      <point x="293" y="259" type="line" identifier="8urnrcyMKY"/>
      <point x="410" y="0" type="line" identifier="0ZPlxagocL"/>
      <point x="574" y="0" type="line" identifier="DrC2Cy4Yvi"/>
      <point x="437" y="279" type="line" identifier="n2UigyPNGZ"/>
      <point x="515" y="301" identifier="hE3GjnlgTI"/>
      <point x="560" y="378" identifier="YuhCljtpMW"/>
      <point x="560" y="476" type="curve" smooth="yes" identifier="ZwmOie28iD"/>
      <point x="560" y="611" identifier="ymL6IajC6X"/>
      <point x="483" y="698" identifier="x4n2kya4Gc"/>
      <point x="346" y="698" type="curve" smooth="yes" identifier="IXDUwUK3W6"/>
      <point x="76" y="698" type="line" identifier="8IbVMiihCK"/>
      <point x="76" y="0" type="line" identifier="aWkBLVckAW"/>
      <point x="224" y="0" type="line" identifier="Y7OgdYnoXU"/>
    </contour>
    <contour>
      <point x="224" y="375" type="line" identifier="xGL8KPqwIK"/>
      <point x="224" y="577" type="line" identifier="rABW0uyEjy"/>
      <point x="310" y="577" type="line" smooth="yes" identifier="MBcAV8O8WJ"/>
      <point x="380" y="577" identifier="m6jlyIDOAa"/>
      <point x="404" y="552" identifier="umpLjniCqd"/>
      <point x="404" y="491" type="curve" smooth="yes" identifier="HMAopVrtQ9"/>
      <point x="404" y="461" type="line" smooth="yes" identifier="v0yBvxzB2a"/>
      <point x="404" y="400" identifier="9YxTD47M1P"/>
      <point x="380" y="375" identifier="LYCGAEBnhT"/>
      <point x="310" y="375" type="curve" smooth="yes" identifier="ijlwywUEKc"/>
    </contour>
  </outline>
</glyph>
<glyph name="S" format="2">
  <advance width="600"/>
  <unicode hex="0053"/>
  <anchor x="292.0" y="0.0" name="bottom"/>
  <anchor x="305.0" y="698.0" name="top"/>
  <outline>
    <contour>
      <point x="289" y="-12" type="curve" smooth="yes" identifier="aQY7avufR5"/>
      <point x="464" y="-12" identifier="8nHhuevxXZ"/>
      <point x="556" y="84" identifier="6TGGGBJSp7"/>
      <point x="556" y="215" type="curve" smooth="yes" identifier="tFNB6jLmTc"/>
      <point x="556" y="325" identifier="LY56uauIbI"/>
      <point x="491" y="391" identifier="vX3Q5sYWRv"/>
      <point x="379" y="411" type="curve" smooth="yes" identifier="yzvubRC1xj"/>
      <point x="306" y="424" type="line" smooth="yes" identifier="cAFQ40qn9D"/>
      <point x="238" y="436" identifier="EiUEFHfQNV"/>
      <point x="210" y="457" identifier="1AIAswwhX5"/>
      <point x="210" y="505" type="curve" smooth="yes" identifier="ufm1tDkRuB"/>
      <point x="210" y="560" identifier="tU1i5ptwfl"/>
      <point x="244" y="588" identifier="2yRW9nf3JM"/>
      <point x="311" y="588" type="curve" smooth="yes" identifier="OoJcmpQppX"/>
      <point x="374" y="588" identifier="HSGuQ0Szpw"/>
      <point x="426" y="563" identifier="KunhnpWCVj"/>
      <point x="463" y="522" type="curve" identifier="rkDbvrZthK"/>
      <point x="548" y="617" type="line" identifier="GKzC6mdt7d"/>
      <point x="499" y="674" identifier="fHP2la88TX"/>
      <point x="417" y="710" identifier="xCSpjlbOEq"/>
      <point x="310" y="710" type="curve" smooth="yes" identifier="Hsa3ommtZk"/>
      <point x="152" y="710" identifier="xmau7Oqd6j"/>
      <point x="59" y="632" identifier="MOuQXBfbJp"/>
      <point x="59" y="498" type="curve" smooth="yes" identifier="YToQiPQGDl"/>
      <point x="59" y="396" identifier="O1kXQGV6fm"/>
      <point x="112" y="319" identifier="6dEsYSQun2"/>
      <point x="237" y="298" type="curve" smooth="yes" identifier="60RqUwq4q6"/>
      <point x="310" y="286" type="line" smooth="yes" identifier="z4tcB1rn8f"/>
      <point x="378" y="275" identifier="N4eFaYotbt"/>
      <point x="404" y="252" identifier="cbHcN8W8WD"/>
      <point x="404" y="203" type="curve" smooth="yes" identifier="6aeQ9fx1Qb"/>
      <point x="404" y="143" identifier="loRwSFzOaE"/>
      <point x="365" y="110" identifier="tPm7wdcBzn"/>
      <point x="294" y="110" type="curve" smooth="yes" identifier="mWavrfzw8m"/>
      <point x="232" y="110" identifier="Pb1npCAEze"/>
      <point x="169" y="136" identifier="CGSqsSZMZh"/>
      <point x="118" y="192" type="curve" identifier="lz39uNhs4E"/>
      <point x="31" y="96" type="line" identifier="ZRui2gFMgL"/>
      <point x="84" y="30" identifier="w63hXHB7uB"/>
      <point x="173" y="-12" identifier="ZvwuQVUaq8"/>
    </contour>
  </outline>
</glyph>
<glyph name="T" format="2">
  <advance width="600"/>
  <unicode hex="0054"/>
  <anchor x="300.0" y="0.0" name="bottom"/>
  <anchor x="300.0" y="698.0" name="top"/>
  <outline>
    <contour>
      <point x="576" y="575" type="line" identifier="NqJuGZtZ7r"/>
      <point x="576" y="698" type="line" identifier="5mkOvdk2cf"/>
      <point x="24" y="698" type="line" identifier="pkA8NxVgnQ"/>
      <point x="24" y="575" type="line" identifier="lrrDXIZIED"/>
      <point x="225" y="575" type="line" identifier="zMKlDdugVg"/>
      <point x="225" y="0" type="line" identifier="uJ5WQXCFms"/>
      <point x="375" y="0" type="line" identifier="oCDrPPlJud"/>
      <point x="375" y="575" type="line" identifier="ZBTHzrW8OS"/>
    </contour>
  </outline>
</glyph>
<glyph name="U" format="2">
  <advance width="600"/>
  <unicode hex="0055"/>
  <anchor x="300.0" y="0.0" name="bottom"/>
  <anchor x="404.0" y="0.0" name="bottomright"/>
  <anchor x="300.0" y="698.0" name="top"/>
  <outline>
    <contour>
      <point x="55" y="698" type="line" identifier="juX0Kd13yW"/>
      <point x="55" y="276" type="line" smooth="yes" identifier="7ZE1ukS1uq"/>
      <point x="55" y="85" identifier="2IJFtpxOLl"/>
      <point x="97" y="-12" identifier="2AxtcGntvQ"/>
      <point x="300" y="-12" type="curve" smooth="yes" identifier="ZjMF7ieds4"/>
      <point x="503" y="-12" identifier="I0lPD82SuS"/>
      <point x="545" y="85" identifier="BcFtJTQbK7"/>
      <point x="545" y="276" type="curve" smooth="yes" identifier="lDhOXR5wsT"/>
      <point x="545" y="698" type="line" identifier="joSOxJC7oz"/>
      <point x="395" y="698" type="line" identifier="jQhqxCuCSt"/>
      <point x="395" y="256" type="line" smooth="yes" identifier="qpRB58Bi1s"/>
      <point x="395" y="167" identifier="cWmjF8SzLR"/>
      <point x="388" y="109" identifier="mUYZFODJW2"/>
      <point x="300" y="109" type="curve" smooth="yes" identifier="4OsCGbfZjm"/>
      <point x="212" y="109" identifier="FoENQk9mwY"/>
      <point x="205" y="167" identifier="FCbdQW0x5W"/>
      <point x="205" y="256" type="curve" smooth="yes" identifier="7k0aTEcebw"/>
      <point x="205" y="698" type="line" identifier="2yDjBffzjX"/>
    </contour>
  </outline>
</glyph>
<glyph name="V" format="2">
  <advance width="600"/>
  <unicode hex="0056"/>
  <anchor x="300.0" y="0.0" name="bottom"/>
  <anchor x="300.0" y="698.0" name="top"/>
  <outline>
    <contour>
      <point x="406" y="0" type="line" identifier="z96TlnN0X3"/>
      <point x="591" y="698" type="line" identifier="hM87ck8PYm"/>
      <point x="432" y="698" type="line" identifier="bs3GyEgXIU"/>
      <point x="349" y="343" type="line" identifier="WkFLlaaivK"/>
      <point x="307" y="142" type="line" identifier="Ujuf2nlhsJ"/>
      <point x="299" y="142" type="line" identifier="1zwhJwN3T3"/>
      <point x="258" y="343" type="line" identifier="xyPxHbqcyR"/>
      <point x="176" y="698" type="line" identifier="10rlPWEtIo"/>
      <point x="9" y="698" type="line" identifier="psF1nvGV77"/>
      <point x="194" y="0" type="line" identifier="JslLdcxbGB"/>
    </contour>
  </outline>
</glyph>
<glyph name="W" format="2">
  <advance width="600"/>
  <unicode hex="0057"/>
  <anchor x="300.0" y="0.0" name="bottom"/>
  <anchor x="300.0" y="698.0" name="top"/>
  <outline>
    <contour>
      <point x="244" y="0" type="line" identifier="aigDLuF4lG"/>
      <point x="295" y="385" type="line" identifier="2gJrLCoTPE"/>
      <point x="305" y="385" type="line" identifier="Gk1Jf8SZ4R"/>
      <point x="356" y="0" type="line" identifier="8Hss1I0PVS"/>
      <point x="546" y="0" type="line" identifier="zlSfG9xu99"/>
      <point x="589" y="698" type="line" identifier="ZC1Tgg9S4U"/>
      <point x="465" y="698" type="line" identifier="kwinoLYZr9"/>
      <point x="445" y="276" type="line" identifier="rEZ7SrRZKX"/>
      <point x="439" y="148" type="line" identifier="rIeEsCajCa"/>
      <point x="430" y="148" type="line" identifier="24D3lQy8Qf"/>
      <point x="370" y="546" type="line" identifier="i4VTpEKCW1"/>
      <point x="235" y="546" type="line" identifier="rnwyxnhJnc"/>
      <point x="175" y="148" type="line" identifier="d94HdeuV4z"/>
      <point x="166" y="148" type="line" identifier="cEBmXQEn39"/>
      <point x="160" y="280" type="line" identifier="Elywu0gRF1"/>
      <point x="140" y="698" type="line" identifier="OPQGqp7wmO"/>
      <point x="11" y="698" type="line" identifier="5JrC6b5fzS"/>
      <point x="54" y="0" type="line" identifier="xNFfg6L1Iv"/>
    </contour>
  </outline>
</glyph>
<glyph name="X" format="2">
  <advance width="600"/>
  <unicode hex="0058"/>
  <anchor x="300.0" y="0.0" name="bottom"/>
  <anchor x="300.0" y="698.0" name="top"/>
  <outline>
    <contour>
      <point x="395" y="359" type="line" identifier="lFltcnTsJu"/>
      <point x="578" y="698" type="line" identifier="rfWFEFpBRO"/>
      <point x="421" y="698" type="line" identifier="4C7akxFHzk"/>
      <point x="361" y="587" type="line" identifier="LO7xAFXdJl"/>
      <point x="309" y="475" type="line" identifier="VidPpKhGuR"/>
      <point x="301" y="475" type="line" identifier="nJg7nPvMVs"/>
      <point x="250" y="587" type="line" identifier="gqTXXkTeVS"/>
      <point x="193" y="698" type="line" identifier="mNxoJbAbtL"/>
      <point x="22" y="698" type="line" identifier="sLM0blnYVd"/>
      <point x="205" y="361" type="line" identifier="Y61EIRpam6"/>
      <point x="9" y="0" type="line" identifier="SEjYe1AE49"/>
      <point x="166" y="0" type="line" identifier="sECh7gcjxl"/>
      <point x="240" y="139" type="line" identifier="LRjgflGiSM"/>
      <point x="290" y="249" type="line" identifier="cmWkLHuhUV"/>
      <point x="299" y="249" type="line" identifier="X3dJAhdECu"/>
      <point x="348" y="139" type="line" identifier="Sb45Nr0CU4"/>
      <point x="420" y="0" type="line" identifier="b6aljoIOwi"/>
      <point x="591" y="0" type="line" identifier="rKAoWidsIc"/>
    </contour>
  </outline>
</glyph>
<glyph name="Y" format="2">
  <advance width="600"/>
  <unicode hex="0059"/>
  <anchor x="300.0" y="0.0" name="bottom"/>
  <anchor x="300.0" y="698.0" name="top"/>
  <outline>
    <contour>
      <point x="375" y="0" type="line" identifier="UPtI5rh5MU"/>
      <point x="375" y="247" type="line" identifier="vEVrhSTxOX"/>
      <point x="596" y="698" type="line" identifier="Le2I32592t"/>
      <point x="435" y="698" type="line" identifier="2AGFgpiIYo"/>
      <point x="361" y="536" type="line" identifier="SN2sYKpZDI"/>
      <point x="307" y="399" type="line" identifier="q4ffBUgGrh"/>
      <point x="299" y="399" type="line" identifier="Lwe3lFk31m"/>
      <point x="245" y="536" type="line" identifier="BGssCQc3ds"/>
      <point x="171" y="698" type="line" identifier="h5OQ0KRsoP"/>
      <point x="4" y="698" type="line" identifier="fJXPEimEMh"/>
      <point x="225" y="247" type="line" identifier="i0XpG9C7xL"/>
      <point x="225" y="0" type="line" identifier="vo6oWlqxm1"/>
    </contour>
  </outline>
</glyph>
<glyph name="Z" format="2">
  <advance width="600"/>
  <unicode hex="005A"/>
  <anchor x="299.0" y="0.0" name="bottom"/>
  <anchor x="300.0" y="698.0" name="top"/>
  <outline>
    <contour>
      <point x="551" y="123" type="line" identifier="i7xsDpagaM"/>
      <point x="216" y="123" type="line" identifier="65qypwwcnE"/>
      <point x="541" y="567" type="line" identifier="dyeV410cmI"/>
      <point x="541" y="698" type="line" identifier="k6cjfSMDmK"/>
      <point x="58" y="698" type="line" identifier="kNN0QLGwju"/>
      <point x="58" y="575" type="line" identifier="VGTjMoQgD8"/>
      <point x="373" y="575" type="line" identifier="dfb7kEZa7w"/>
      <point x="48" y="131" type="line" identifier="9cCGY1qk6Q"/>
      <point x="48" y="0" type="line" identifier="U4G2pmAkiP"/>
      <point x="551" y="0" type="line" identifier="wWjq75IcDC"/>
    </contour>
  </outline>
</glyph>
<glyph name="bracketleft" format="2">
  <advance width="600"/>
  <unicode hex="005B"/>
  <outline>
    <contour>
      <point x="507" y="-138" type="line" identifier="crY5KHMGI4"/>
      <point x="507" y="-39" type="line" identifier="7nbJoNFfzO"/>
      <point x="302" y="-39" type="line" identifier="1YOl1ZRPRT"/>
      <point x="302" y="661" type="line" identifier="AlkXurP7Kl"/>
      <point x="507" y="661" type="line" identifier="hf5zyLRt5T"/>
      <point x="507" y="760" type="line" identifier="6VlrL7ziUm"/>
      <point x="183" y="760" type="line" identifier="hzi0gihTN3"/>
      <point x="183" y="-138" type="line" identifier="biu69hvuus"/>
    </contour>
  </outline>
</glyph>
<glyph name="backslash" format="2">
  <advance width="600"/>
  <unicode hex="005C"/>
  <outline>
    <contour>
      <point x="527" y="-138" type="line" identifier="LvYCFHzLJt"/>
      <point x="206" y="760" type="line" identifier="4rHwvZkKjD"/>
      <point x="73" y="760" type="line" identifier="jzaweWhYGM"/>
      <point x="394" y="-138" type="line" identifier="6rrjWrdGBs"/>
    </contour>
  </outline>
</glyph>
<glyph name="bracketright" format="2">
  <advance width="600"/>
  <unicode hex="005D"/>
  <outline>
    <contour>
      <point x="93" y="760" type="line" identifier="m3OY4Pvt1J"/>
      <point x="93" y="661" type="line" identifier="19FuEUJQE7"/>
      <point x="298" y="661" type="line" identifier="KXQ3bq4lUn"/>
      <point x="298" y="-39" type="line" identifier="jqfwb93pYl"/>
      <point x="93" y="-39" type="line" identifier="CTy3FmCEhw"/>
      <point x="93" y="-138" type="line" identifier="wOobBmolew"/>
      <point x="417" y="-138" type="line" identifier="q2QIVhK5Fn"/>
      <point x="417" y="760" type="line" identifier="iAbxBwRv2v"/>
    </contour>
  </outline>
</glyph>
<glyph name="asciicircum" format="2">
  <advance width="600"/>
  <unicode hex="005E"/>
  <outline>
    <contour>
      <point x="573" y="293" type="line" identifier="BjZlKoTHCe"/>
      <point x="379" y="698" type="line" identifier="YQTu0CkNyM"/>
      <point x="222" y="698" type="line" identifier="rQzvmZKUUM"/>
      <point x="27" y="293" type="line" identifier="jZnSmKbOhy"/>
      <point x="138" y="239" type="line" identifier="I7SuYiDHjr"/>
      <point x="291" y="562" type="line" identifier="Ug2lzGQS34"/>
      <point x="303" y="562" type="line" identifier="kazMwjHLyZ"/>
      <point x="456" y="239" type="line" identifier="DUJBQl4HQh"/>
    </contour>
  </outline>
</glyph>
<glyph name="underscore" format="2">
  <advance width="600"/>
  <unicode hex="005F"/>
  <outline>
    <contour>
      <point x="540" y="-192" type="line" identifier="HRP4QD5P7u"/>
      <point x="540" y="-71" type="line" identifier="7R9Gx4TZPI"/>
      <point x="60" y="-71" type="line" identifier="rI8g30wh6b"/>
      <point x="60" y="-192" type="line" identifier="pyXU5zXKOF"/>
    </contour>
  </outline>
</glyph>
<glyph name="grave" format="2">
  <advance width="600"/>
  <unicode hex="0060"/>
  <anchor x="300.0" y="516.0" name="_top"/>
  <outline>
    <contour>
      <point x="284" y="570" type="line" identifier="DT1q0sLIUn"/>
      <point x="372" y="613" type="line" identifier="SYZlQE7ti9"/>
      <point x="273" y="807" type="line" identifier="Z3Y4nQKzi4"/>
      <point x="150" y="746" type="line" identifier="jskIQB92t0"/>
    </contour>
  </outline>
</glyph>
<glyph name="a" format="2">
  <advance width="600"/>
  <unicode hex="0061"/>
  <anchor x="292.0" y="0.0" name="bottom"/>
  <anchor x="572.0" y="0.0" name="bottomright"/>
  <anchor x="292.0" y="516.0" name="top"/>
  <outline>
    <contour>
      <point x="572" y="0" type="line" identifier="vgLmFMiUte"/>
      <point x="572" y="107" type="line" identifier="dyDP3rRbuZ"/>
      <point x="515" y="107" type="line" identifier="a4KhJQU8Yg"/>
      <point x="515" y="333" type="line" smooth="yes" identifier="W22O1Jpgjg"/>
      <point x="515" y="463" identifier="5juXpuFlYk"/>
      <point x="431" y="528" identifier="cv66upuIkQ"/>
      <point x="290" y="528" type="curve" smooth="yes" identifier="Fr2uBp0Sfb"/>
      <point x="175" y="528" identifier="hN49csyWkg"/>
      <point x="100" y="485" identifier="sdvw3KKfra"/>
      <point x="66" y="427" type="curve" identifier="c8D0MRZ7Mq"/>
      <point x="147" y="355" type="line" identifier="0NVG3gE8A7"/>
      <point x="175" y="393" identifier="LA7y1k9lbq"/>
      <point x="211" y="420" identifier="NEvtUSd9Dg"/>
      <point x="273" y="420" type="curve" smooth="yes" identifier="UxwLPMpQKw"/>
      <point x="341" y="420" identifier="FHBspyUr0P"/>
      <point x="367" y="388" identifier="WXbVNUdkj7"/>
      <point x="367" y="327" type="curve" smooth="yes" identifier="JSh33sIaoG"/>
      <point x="367" y="301" type="line" identifier="B1lSF67Hd6"/>
      <point x="284" y="301" type="line" smooth="yes" identifier="anJc0fQNl4"/>
      <point x="133" y="301" identifier="iG6HqL9eZq"/>
      <point x="52" y="250" identifier="iOwU31gGuH"/>
      <point x="52" y="142" type="curve" smooth="yes" identifier="APJHYglOIY"/>
      <point x="52" y="45" identifier="wiF1e6NJUP"/>
      <point x="118" y="-12" identifier="DIoLZMLyOL"/>
      <point x="218" y="-12" type="curve" smooth="yes" identifier="JbDzPsbmhV"/>
      <point x="297" y="-12" identifier="fHVkSZirm6"/>
      <point x="357" y="24" identifier="midNkaMZBS"/>
      <point x="375" y="91" type="curve" identifier="Qo3yNCJoDH"/>
      <point x="380" y="91" type="line" identifier="GZerp8V1LV"/>
      <point x="386" y="33" identifier="ACSGFtkXOZ"/>
      <point x="426" y="0" identifier="0CTu4X2WBF"/>
      <point x="487" y="0" type="curve" smooth="yes" identifier="GxeGYXoSed"/>
    </contour>
    <contour>
      <point x="274" y="85" type="curve" smooth="yes" identifier="xKWB65wjWS"/>
      <point x="227" y="85" identifier="RHoYz4v6XC"/>
      <point x="197" y="104" identifier="SYfgjc2ARF"/>
      <point x="197" y="140" type="curve" smooth="yes" identifier="tEJtIcr4bN"/>
      <point x="197" y="160" type="line" smooth="yes" identifier="G6vyDyCrPC"/>
      <point x="197" y="200" identifier="nKjHZ3azDp"/>
      <point x="229" y="221" identifier="rANxIzKr6M"/>
      <point x="288" y="221" type="curve" smooth="yes" identifier="WnXsSVeml3"/>
      <point x="367" y="221" type="line" identifier="643rwNhOyU"/>
      <point x="367" y="159" type="line" smooth="yes" identifier="62MQC8lZan"/>
      <point x="367" y="111" identifier="UleFS8NfvJ"/>
      <point x="326" y="85" identifier="qp9aDR0HMl"/>
    </contour>
  </outline>
</glyph>
<glyph name="b" format="2">
  <advance width="600"/>
  <unicode hex="0062"/>
  <anchor x="310.0" y="0.0" name="bottom"/>
  <outline>
    <contour>
      <point x="59" y="0" type="line" identifier="YG9GoPYges"/>
      <point x="207" y="0" type="line" identifier="3QUm8mqCK9"/>
      <point x="207" y="94" type="line" identifier="uWMPDzbVYX"/>
      <point x="214" y="94" type="line" identifier="bijy2m18No"/>
      <point x="240" y="32" identifier="I41VT67sgZ"/>
      <point x="284" y="-12" identifier="K3a9Qeng5L"/>
      <point x="367" y="-12" type="curve" smooth="yes" identifier="XicWNOUi5R"/>
      <point x="481" y="-12" identifier="AS4RaJqHKv"/>
      <point x="561" y="71" identifier="RzCzHxzk3Z"/>
      <point x="561" y="258" type="curve" smooth="yes" identifier="ze8nNSFJSA"/>
      <point x="561" y="445" identifier="qTgFTAofFV"/>
      <point x="481" y="528" identifier="SJ5RpEbxbm"/>
      <point x="367" y="528" type="curve" smooth="yes" identifier="3YLQof0cWN"/>
      <point x="284" y="528" identifier="UF9YXOSvVa"/>
      <point x="240" y="484" identifier="dn29pNlcTL"/>
      <point x="214" y="422" type="curve" identifier="I0dC9dYbRv"/>
      <point x="207" y="422" type="line" identifier="IsREnYiSX2"/>
      <point x="207" y="740" type="line" identifier="Zn2a66fEkH"/>
      <point x="59" y="740" type="line" identifier="EWKIOsgdNJ"/>
    </contour>
    <contour>
      <point x="303" y="103" type="curve" smooth="yes" identifier="zrs4NDTWc8"/>
      <point x="251" y="103" identifier="pR1ffU8qeQ"/>
      <point x="207" y="128" identifier="wqqG6j8HCM"/>
      <point x="207" y="182" type="curve" identifier="nxqfqjXBQd"/>
      <point x="207" y="334" type="line" identifier="c8SyXBpwh0"/>
      <point x="207" y="388" identifier="jD9jegmrP5"/>
      <point x="251" y="413" identifier="kRVTOBa5iJ"/>
      <point x="303" y="413" type="curve" smooth="yes" identifier="ZdM74o3XXV"/>
      <point x="369" y="413" identifier="1ryiu9XWAK"/>
      <point x="407" y="370" identifier="jxlPfDLZL8"/>
      <point x="407" y="298" type="curve" smooth="yes" identifier="ImT9dLt5hh"/>
      <point x="407" y="218" type="line" identifier="a1ZAcJPXht"/>
      <point x="407" y="146" identifier="SsaXoU6ScF"/>
      <point x="369" y="103" identifier="R7GDNQjDsX"/>
    </contour>
  </outline>
</glyph>
<glyph name="c" format="2">
  <advance width="600"/>
  <unicode hex="0063"/>
  <anchor x="301.0" y="0.0" name="bottom"/>
  <anchor x="314.0" y="516.0" name="top"/>
  <outline>
    <contour>
      <point x="321" y="-12" type="curve" smooth="yes" identifier="0MqUJeyqZZ"/>
      <point x="436" y="-12" identifier="raOnW54dRP"/>
      <point x="506" y="39" identifier="3RjedN8HDe"/>
      <point x="543" y="114" type="curve" identifier="FuF5R42THV"/>
      <point x="431" y="178" type="line" identifier="o2kJlIPpEl"/>
      <point x="409" y="136" identifier="TDbbMTXhBQ"/>
      <point x="379" y="106" identifier="g8iIBkxEDr"/>
      <point x="322" y="106" type="curve" smooth="yes" identifier="nnfJ899aSS"/>
      <point x="252" y="106" identifier="gcxXLT18aE"/>
      <point x="214" y="148" identifier="1Y7C152QZ1"/>
      <point x="214" y="216" type="curve" smooth="yes" identifier="h13gND3Bcg"/>
      <point x="214" y="300" type="line" smooth="yes" identifier="m3WJ3cztxN"/>
      <point x="214" y="368" identifier="ECg5Mr3UA8"/>
      <point x="253" y="410" identifier="YWxR630bCF"/>
      <point x="320" y="410" type="curve" smooth="yes" identifier="mPOgURhRwf"/>
      <point x="375" y="410" identifier="cTyCdyTQYp"/>
      <point x="403" y="380" identifier="NtDwla70ob"/>
      <point x="421" y="340" type="curve" identifier="NgmFWiQzok"/>
      <point x="535" y="402" type="line" identifier="w1Nd0pB5YV"/>
      <point x="499" y="477" identifier="nsIeLvUOsj"/>
      <point x="433" y="528" identifier="DZUR3uYYxZ"/>
      <point x="320" y="528" type="curve" smooth="yes" identifier="RK91WLjaSm"/>
      <point x="159" y="528" identifier="G9XcOZcqGS"/>
      <point x="60" y="425" identifier="BKuYtTvIc0"/>
      <point x="60" y="258" type="curve" smooth="yes" identifier="tVT6XbUuwq"/>
      <point x="60" y="91" identifier="7dWKHdkL1E"/>
      <point x="158" y="-12" identifier="t2h5lCdxDO"/>
    </contour>
  </outline>
</glyph>
<glyph name="d" format="2">
  <advance width="600"/>
  <unicode hex="0064"/>
  <anchor x="290.0" y="0.0" name="bottom"/>
  <anchor x="592.0" y="740.0" name="topright"/>
  <outline>
    <contour>
      <point x="393" y="0" type="line" identifier="ii24GvC1im"/>
      <point x="541" y="0" type="line" identifier="lLV2FfIc7G"/>
      <point x="541" y="740" type="line" identifier="9NLM5lLutO"/>
      <point x="393" y="740" type="line" identifier="s2Ktn0RA0D"/>
      <point x="393" y="422" type="line" identifier="mU24cgNsPu"/>
      <point x="386" y="422" type="line" identifier="EvByaiipGi"/>
      <point x="360" y="484" identifier="k4GGnSdjwz"/>
      <point x="316" y="528" identifier="A0s7f4xb3s"/>
      <point x="233" y="528" type="curve" smooth="yes" identifier="i34nVEr1p2"/>
      <point x="119" y="528" identifier="aFiGbxE1Uo"/>
      <point x="39" y="445" identifier="Xe9TBkR3Xa"/>
      <point x="39" y="258" type="curve" smooth="yes" identifier="FZ5TqVcVb8"/>
      <point x="39" y="71" identifier="0NNn8xkRT5"/>
      <point x="119" y="-12" identifier="rZp15BaA2m"/>
      <point x="233" y="-12" type="curve" smooth="yes" identifier="Jxpgj9mjzE"/>
      <point x="316" y="-12" identifier="m4Scb6qmRr"/>
      <point x="360" y="32" identifier="ZkP59S1GUC"/>
      <point x="386" y="94" type="curve" identifier="USHtMoQNup"/>
      <point x="393" y="94" type="line" identifier="MRsLSDPLHY"/>
    </contour>
    <contour>
      <point x="297" y="103" type="curve" smooth="yes" identifier="V480mcQurg"/>
      <point x="231" y="103" identifier="QwkPSjwFvP"/>
      <point x="193" y="146" identifier="HxPddaNFaz"/>
      <point x="193" y="218" type="curve" smooth="yes" identifier="nMiZYZVs1X"/>
      <point x="193" y="298" type="line" identifier="bCzq99mq72"/>
      <point x="193" y="370" identifier="TNNjHx1ui0"/>
      <point x="231" y="413" identifier="OtXyL8Ttsx"/>
      <point x="297" y="413" type="curve" smooth="yes" identifier="0mXwbPfL5P"/>
      <point x="349" y="413" identifier="6NWosB6ga3"/>
      <point x="393" y="388" identifier="aqguZCxUcL"/>
      <point x="393" y="334" type="curve" identifier="Lwkdi4zE0m"/>
      <point x="393" y="182" type="line" identifier="HY5dtHgkyn"/>
      <point x="393" y="128" identifier="7FDwiqka8g"/>
      <point x="349" y="103" identifier="g59x6ZO3zA"/>
    </contour>
  </outline>
</glyph>
<glyph name="e" format="2">
  <advance width="600"/>
  <unicode hex="0065"/>
  <anchor x="306.0" y="0.0" name="bottom"/>
  <anchor x="409.0" y="0.0" name="bottomright"/>
  <anchor x="301.0" y="516.0" name="top"/>
  <outline>
    <contour>
      <point x="314" y="-12" type="curve" smooth="yes" identifier="QXbgDpyf93"/>
      <point x="425" y="-12" identifier="AnZEBp31Nd"/>
      <point x="495" y="30" identifier="WPSRFbkj9D"/>
      <point x="535" y="79" type="curve" identifier="YkbivIgsIB"/>
      <point x="455" y="166" type="line" identifier="gzw7jro6u8"/>
      <point x="423" y="128" identifier="HHVxDyMFVk"/>
      <point x="380" y="102" identifier="2jxtW6bYja"/>
      <point x="319" y="102" type="curve" smooth="yes" identifier="kEnQE1sTK7"/>
      <point x="240" y="102" identifier="X3BM5G0oGd"/>
      <point x="197" y="147" identifier="Xqx8AZ4i7E"/>
      <point x="197" y="213" type="curve" smooth="yes" identifier="KXseOnL5g5"/>
      <point x="197" y="222" type="line" identifier="vDoPBkde1r"/>
      <point x="550" y="222" type="line" identifier="6rtJAWNYcc"/>
      <point x="550" y="266" type="line" smooth="yes" identifier="vxTl0C0IFn"/>
      <point x="550" y="427" identifier="GUuY4Ytns2"/>
      <point x="455" y="528" identifier="7bwe20qpZx"/>
      <point x="301" y="528" type="curve" smooth="yes" identifier="sy4tsHdG7P"/>
      <point x="146" y="528" identifier="PgVPFP52hl"/>
      <point x="50" y="425" identifier="SOIT6bmv4O"/>
      <point x="50" y="256" type="curve" smooth="yes" identifier="sIl9TfxlPQ"/>
      <point x="50" y="91" identifier="KLfJmyM2An"/>
      <point x="141" y="-12" identifier="NooInMMq2E"/>
    </contour>
    <contour>
      <point x="302" y="422" type="curve" smooth="yes" identifier="nURkLlOWOU"/>
      <point x="366" y="422" identifier="cN4O8bBOK6"/>
      <point x="405" y="380" identifier="Yxl7U3x9dC"/>
      <point x="405" y="313" type="curve" smooth="yes" identifier="FeTf7GsvEj"/>
      <point x="405" y="305" type="line" identifier="OubpTYYGtB"/>
      <point x="197" y="305" type="line" identifier="GPNe61ag6W"/>
      <point x="197" y="313" type="line" smooth="yes" identifier="xYIlZYgury"/>
      <point x="197" y="379" identifier="6wZUwJCtMA"/>
      <point x="238" y="422" identifier="WDg0zkZ3oJ"/>
    </contour>
  </outline>
</glyph>
<glyph name="f" format="2">
  <advance width="600"/>
  <unicode hex="0066"/>
  <anchor x="297.0" y="0.0" name="bottom"/>
  <outline>
    <contour>
      <point x="71" y="0" type="line" identifier="3REwHh6Ox5"/>
      <point x="533" y="0" type="line" identifier="O7aBGmaXSe"/>
      <point x="533" y="115" type="line" identifier="rTvuGw8oSd"/>
      <point x="371" y="115" type="line" identifier="jc8RjCXAOf"/>
      <point x="371" y="401" type="line" identifier="TzQAbTT4KP"/>
      <point x="556" y="401" type="line" identifier="b10bYJUroj"/>
      <point x="556" y="516" type="line" identifier="v5QITRtuSr"/>
      <point x="371" y="516" type="line" identifier="VyzO0vT90z"/>
      <point x="371" y="625" type="line" identifier="tFWJXtJRtG"/>
      <point x="556" y="625" type="line" identifier="xgWAX13gBm"/>
      <point x="556" y="740" type="line" identifier="fq5QzKW6zZ"/>
      <point x="381" y="740" type="line" smooth="yes" identifier="MPx8lrDIGl"/>
      <point x="273" y="740" identifier="WXTVmm5GBN"/>
      <point x="223" y="678" identifier="vnNWvNYz33"/>
      <point x="223" y="591" type="curve" smooth="yes" identifier="iMLtSDvF2o"/>
      <point x="223" y="516" type="line" identifier="Ic653WqKNo"/>
      <point x="61" y="516" type="line" identifier="FdiuQVBS1E"/>
      <point x="61" y="401" type="line" identifier="k62yjf2mwM"/>
      <point x="223" y="401" type="line" identifier="Ox1WjbRzgg"/>
      <point x="223" y="115" type="line" identifier="yHPGBIEHt1"/>
      <point x="71" y="115" type="line" identifier="fMac0rYIyk"/>
    </contour>
  </outline>
</glyph>
<glyph name="g" format="2">
  <advance width="600"/>
  <unicode hex="0067"/>
  <anchor x="294.0" y="516.0" name="top"/>
  <outline>
    <contour>
      <point x="583" y="-52" type="curve" smooth="yes" identifier="M21MjSHM0D"/>
      <point x="583" y="35" identifier="PMsugg6MpR"/>
      <point x="526" y="97" identifier="fIgf5MHnWv"/>
      <point x="378" y="97" type="curve" smooth="yes" identifier="CujJE1KOdB"/>
      <point x="260" y="97" type="line" smooth="yes" identifier="EkMh4HC5oW"/>
      <point x="219" y="97" identifier="6ejBVMrPgX"/>
      <point x="184" y="99" identifier="v6jLSrtDn3"/>
      <point x="184" y="132" type="curve" smooth="yes" identifier="MWwJkfPBG2"/>
      <point x="184" y="150" identifier="IndkLxkFj9"/>
      <point x="195" y="162" identifier="4D6YavN809"/>
      <point x="210" y="170" type="curve" identifier="WeF3OC5kF0"/>
      <point x="235" y="163" identifier="oCFQmJyDkR"/>
      <point x="264" y="160" identifier="xZ4Ho9AIBA"/>
      <point x="294" y="160" type="curve" smooth="yes" identifier="ToWmm3NBYm"/>
      <point x="430" y="160" identifier="LXXLAg83RZ"/>
      <point x="520" y="225" identifier="wgurJ4pQk0"/>
      <point x="520" y="344" type="curve" smooth="yes" identifier="EuGIAOAEW2"/>
      <point x="520" y="417" identifier="87CPgqGK1O"/>
      <point x="487" y="469" identifier="KSrLyPfQDb"/>
      <point x="431" y="498" type="curve" identifier="dixsl7cien"/>
      <point x="431" y="507" type="line" identifier="A2UREtrqlM"/>
      <point x="555" y="507" type="line" identifier="3IrOmQlgZv"/>
      <point x="555" y="615" type="line" identifier="PZT7mcEp2u"/>
      <point x="464" y="615" type="line" smooth="yes" identifier="suRbPBfrYH"/>
      <point x="415" y="615" identifier="DnZyf26H5U"/>
      <point x="385" y="585" identifier="OMfgbnghDA"/>
      <point x="385" y="545" type="curve" smooth="yes" identifier="p7HhU64xCu"/>
      <point x="385" y="517" type="line" identifier="dWmw5rwfi4"/>
      <point x="358" y="524" identifier="g5NmZXuOb9"/>
      <point x="327" y="528" identifier="qYp5KpahEt"/>
      <point x="294" y="528" type="curve" smooth="yes" identifier="WILORUuRzS"/>
      <point x="159" y="528" identifier="EXeycVqA9S"/>
      <point x="70" y="464" identifier="OjeUZwWYYH"/>
      <point x="70" y="344" type="curve" smooth="yes" identifier="nwU4rOOTy6"/>
      <point x="70" y="268" identifier="U4agdiGC1i"/>
      <point x="106" y="214" identifier="XdqCt4z5gc"/>
      <point x="167" y="185" type="curve" identifier="cExBziG6Uu"/>
      <point x="167" y="179" type="line" identifier="CUMgpFpAWJ"/>
      <point x="111" y="166" identifier="hCzJ9OSa1b"/>
      <point x="74" y="145" identifier="BY88XSQXly"/>
      <point x="74" y="95" type="curve" smooth="yes" identifier="Cs8x6Se1Y3"/>
      <point x="74" y="50" identifier="cH1ETuu2mH"/>
      <point x="102" y="27" identifier="gmA8lZRpXQ"/>
      <point x="146" y="14" type="curve" identifier="1cvnpaBpO4"/>
      <point x="146" y="8" type="line" identifier="WaU5SDm6SW"/>
      <point x="84" y="-8" identifier="8oIGJGA1Qf"/>
      <point x="47" y="-35" identifier="Dlig6gZPdY"/>
      <point x="47" y="-93" type="curve" smooth="yes" identifier="gFTv20k1NE"/>
      <point x="47" y="-163" identifier="8vv2Fbq8GX"/>
      <point x="101" y="-212" identifier="4bd3yMvv9N"/>
      <point x="297" y="-212" type="curve" smooth="yes" identifier="QCiRyImx4M"/>
      <point x="493" y="-212" identifier="ZeMbieI9lB"/>
      <point x="583" y="-161" identifier="cOYob57LUY"/>
    </contour>
    <contour>
      <point x="443" y="-63" type="curve" smooth="yes" identifier="OowdhuTDE1"/>
      <point x="443" y="-98" identifier="DYTuffR4a2"/>
      <point x="413" y="-117" identifier="ErkmoalBS7"/>
      <point x="346" y="-117" type="curve" smooth="yes" identifier="9ugc7DXhnh"/>
      <point x="259" y="-117" type="line" smooth="yes" identifier="ictwbLmyCU"/>
      <point x="194" y="-117" identifier="aPWbiXV6Xq"/>
      <point x="169" y="-94" identifier="JQuDJHbmP2"/>
      <point x="169" y="-62" type="curve" smooth="yes" identifier="YX8EfuNGrw"/>
      <point x="169" y="-45" identifier="u0Hpiu9RiR"/>
      <point x="176" y="-31" identifier="bTkTGHOYXJ"/>
      <point x="189" y="-20" type="curve" identifier="pmwt6slT0b"/>
      <point x="366" y="-20" type="line" smooth="yes" identifier="IPdkbf8mBX"/>
      <point x="426" y="-20" identifier="uBC095uOQc"/>
      <point x="443" y="-36" identifier="e9UZBkqt9W"/>
    </contour>
    <contour>
      <point x="294" y="254" type="curve" smooth="yes" identifier="i1ZaKyjW7h"/>
      <point x="236" y="254" identifier="jo2PyhdUaO"/>
      <point x="210" y="287" identifier="2P2tuIDkgu"/>
      <point x="210" y="332" type="curve" smooth="yes" identifier="NkOOVjJ38Q"/>
      <point x="210" y="356" type="line" identifier="QbmXhDi9Gx"/>
      <point x="210" y="401" identifier="LodvDrU5xr"/>
      <point x="236" y="434" identifier="Rk3DVlKw6l"/>
      <point x="294" y="434" type="curve" smooth="yes" identifier="rgzFum71I6"/>
      <point x="353" y="434" identifier="KiSz6HxyLS"/>
      <point x="380" y="401" identifier="C1jAfJvciv"/>
      <point x="380" y="356" type="curve" smooth="yes" identifier="nRvaaWmwqv"/>
      <point x="380" y="332" type="line" smooth="yes" identifier="9dHvpnbBOu"/>
      <point x="380" y="287" identifier="BF17r69Na2"/>
      <point x="353" y="254" identifier="hx9oKDC5hI"/>
    </contour>
  </outline>
</glyph>
<glyph name="h" format="2">
  <advance width="600"/>
  <unicode hex="0068"/>
  <anchor x="302.0" y="0.0" name="bottom"/>
  <anchor x="139.0" y="698.0" name="top"/>
  <outline>
    <contour>
      <point x="65" y="0" type="line" identifier="ULxYWgmVm6"/>
      <point x="213" y="0" type="line" identifier="TIHexsIx2d"/>
      <point x="213" y="339" type="line" identifier="KeOXgRNmXC"/>
      <point x="213" y="389" identifier="TXDTjwteUI"/>
      <point x="258" y="414" identifier="uB4D1Le2DL"/>
      <point x="304" y="414" type="curve" smooth="yes" identifier="9FeYi1FnWs"/>
      <point x="362" y="414" identifier="zog5goEHQa"/>
      <point x="391" y="379" identifier="tbISQNpNQS"/>
      <point x="391" y="314" type="curve" smooth="yes" identifier="6Rzl68tYxp"/>
      <point x="391" y="0" type="line" identifier="vvm8hbF1sV"/>
      <point x="539" y="0" type="line" identifier="NcBK75sfKR"/>
      <point x="539" y="334" type="line" smooth="yes" identifier="N2C5CRiGvn"/>
      <point x="539" y="459" identifier="H0OqfqzhBK"/>
      <point x="470" y="528" identifier="sUR16NmnDL"/>
      <point x="371" y="528" type="curve" smooth="yes" identifier="vhbGACf3kR"/>
      <point x="288" y="528" identifier="75pmOtIgYQ"/>
      <point x="242" y="480" identifier="vrPU0Zffx8"/>
      <point x="219" y="422" type="curve" identifier="yYnakN3zvM"/>
      <point x="213" y="422" type="line" identifier="ZX6xpSOQ9g"/>
      <point x="213" y="740" type="line" identifier="jctLGCvnUI"/>
      <point x="65" y="740" type="line" identifier="5Djfg9rxSK"/>
    </contour>
  </outline>
</glyph>
<glyph name="i" format="2">
  <advance width="600"/>
  <unicode hex="0069"/>
  <anchor x="332.0" y="0.0" name="bottom"/>
  <anchor x="558.0" y="0.0" name="bottomright"/>
  <outline>
    <contour>
      <point x="332" y="582" type="curve" smooth="yes" identifier="tw1ru5bju4"/>
      <point x="398" y="582" identifier="SQii3gpBwj"/>
      <point x="421" y="613" identifier="sESqFlHvok"/>
      <point x="421" y="652" type="curve" smooth="yes" identifier="lV9YY93XIe"/>
      <point x="421" y="681" type="line" smooth="yes" identifier="hQrL4mFfeV"/>
      <point x="421" y="721" identifier="ryGOG5KHHj"/>
      <point x="398" y="751" identifier="mq7LrWd7jf"/>
      <point x="332" y="751" type="curve" smooth="yes" identifier="KERuiSwks3"/>
      <point x="266" y="751" identifier="cfHrzCsJLU"/>
      <point x="243" y="721" identifier="zF9g5zkLhG"/>
      <point x="243" y="681" type="curve" smooth="yes" identifier="3i7YZ8cHpB"/>
      <point x="243" y="652" type="line" smooth="yes" identifier="YYCFLCaqBs"/>
      <point x="243" y="613" identifier="FGDxJXVwRC"/>
      <point x="266" y="582" identifier="810mIpwLPx"/>
    </contour>
    <contour>
      <point x="94" y="0" type="line" identifier="N22Uaq1Wkg"/>
      <point x="558" y="0" type="line" identifier="E1wlAjZr1W"/>
      <point x="558" y="115" type="line" identifier="VxTFHfHTG0"/>
      <point x="406" y="115" type="line" identifier="zeeBYyFTbJ"/>
      <point x="406" y="516" type="line" identifier="vybpz899C7"/>
      <point x="94" y="516" type="line" identifier="pJGnDgRUEi"/>
      <point x="94" y="401" type="line" identifier="b5vUDTDC6U"/>
      <point x="258" y="401" type="line" identifier="xtZKkoCdrb"/>
      <point x="258" y="115" type="line" identifier="sqFiCOGyya"/>
      <point x="94" y="115" type="line" identifier="TrEJ1ebwVw"/>
    </contour>
  </outline>
</glyph>
<glyph name="j" format="2">
  <advance width="600"/>
  <unicode hex="006A"/>
  <outline>
    <contour>
      <point x="92" y="-200" type="line" identifier="seeJwR8Xpb"/>
      <point x="281" y="-200" type="line" smooth="yes" identifier="x5wDVyYhdg"/>
      <point x="387" y="-200" identifier="72q6LWd5Ft"/>
      <point x="438" y="-138" identifier="bVXFvQ6W5c"/>
      <point x="438" y="-51" type="curve" smooth="yes" identifier="Vz9fE2dT0I"/>
      <point x="438" y="516" type="line" identifier="NooADQycFF"/>
      <point x="90" y="516" type="line" identifier="wVVfCOiwQZ"/>
      <point x="90" y="401" type="line" identifier="XxV6KdxCMW"/>
      <point x="290" y="401" type="line" identifier="rVR5FA9AmG"/>
      <point x="290" y="-85" type="line" identifier="I2w67gtsek"/>
      <point x="92" y="-85" type="line" identifier="bBWwxqhElH"/>
    </contour>
    <contour>
      <point x="364" y="582" type="curve" smooth="yes" identifier="kWUJNCao4g"/>
      <point x="429" y="582" identifier="9nDAaGYH7A"/>
      <point x="453" y="613" identifier="2WuNM5FJwk"/>
      <point x="453" y="652" type="curve" smooth="yes" identifier="yHbZTDP4qY"/>
      <point x="453" y="681" type="line" smooth="yes" identifier="X641alp7ur"/>
      <point x="453" y="721" identifier="kd7kpKqdaD"/>
      <point x="429" y="751" identifier="CCHg4bgSSe"/>
      <point x="364" y="751" type="curve" smooth="yes" identifier="cimJF8t3X0"/>
      <point x="298" y="751" identifier="vh9CKEBMJE"/>
      <point x="275" y="721" identifier="bRgsfm3dNi"/>
      <point x="275" y="681" type="curve" smooth="yes" identifier="7dTJ89V7p3"/>
      <point x="275" y="652" type="line" smooth="yes" identifier="F41HFDsrpM"/>
      <point x="275" y="613" identifier="D03mntPfEK"/>
      <point x="298" y="582" identifier="DBySQ75A5z"/>
    </contour>
  </outline>
</glyph>
<glyph name="k" format="2">
  <advance width="600"/>
  <unicode hex="006B"/>
  <anchor x="308.0" y="0.0" name="bottom"/>
  <outline>
    <contour>
      <point x="65" y="0" type="line" identifier="wfoARlWDrp"/>
      <point x="213" y="0" type="line" identifier="aYCmLZvGpH"/>
      <point x="213" y="179" type="line" identifier="9XuzwHUEF9"/>
      <point x="262" y="228" type="line" identifier="homk9zq2Ux"/>
      <point x="412" y="0" type="line" identifier="zzYalEaa57"/>
      <point x="588" y="0" type="line" identifier="MMJDVI7ABZ"/>
      <point x="367" y="312" type="line" identifier="iphnMV3Fia"/>
      <point x="567" y="516" type="line" identifier="r9iIGuBQJe"/>
      <point x="397" y="516" type="line" identifier="8jWnfAa5RH"/>
      <point x="289" y="401" type="line" identifier="qKQchMZPWH"/>
      <point x="220" y="320" type="line" identifier="hWYEWIi2mu"/>
      <point x="213" y="320" type="line" identifier="xHYLRLmko4"/>
      <point x="213" y="740" type="line" identifier="OiKyVCAmjD"/>
      <point x="65" y="740" type="line" identifier="4fQM0vYftk"/>
    </contour>
  </outline>
</glyph>
<glyph name="m" format="2">
  <advance width="600"/>
  <unicode hex="006D"/>
  <anchor x="300.0" y="0.0" name="bottom"/>
  <anchor x="300.0" y="516.0" name="top"/>
  <outline>
    <contour>
      <point x="149" y="0" type="line" identifier="mT6KHMUn1W"/>
      <point x="149" y="368" type="line" identifier="AvfEXZUh4j"/>
      <point x="149" y="403" identifier="pBT4Dhl0RK"/>
      <point x="170" y="419" identifier="LNwP4ZeMws"/>
      <point x="197" y="419" type="curve" smooth="yes" identifier="xsSjqtRRXX"/>
      <point x="223" y="419" identifier="3HA9WUp34C"/>
      <point x="240" y="402" identifier="Lbv0NTJj86"/>
      <point x="240" y="354" type="curve" smooth="yes" identifier="J5u6YO7WMv"/>
      <point x="240" y="0" type="line" identifier="XKgZzwN24r"/>
      <point x="360" y="0" type="line" identifier="iadSgLBe9y"/>
      <point x="360" y="368" type="line" identifier="gHVb6hTsHH"/>
      <point x="360" y="403" identifier="YbwckI5o8K"/>
      <point x="381" y="419" identifier="jTh9VCjH8d"/>
      <point x="406" y="419" type="curve" smooth="yes" identifier="HeRU8UBO7N"/>
      <point x="433" y="419" identifier="ttreUDiCUH"/>
      <point x="451" y="402" identifier="y0pRiX3xez"/>
      <point x="451" y="354" type="curve" smooth="yes" identifier="VeGanSBrzR"/>
      <point x="451" y="0" type="line" identifier="sddaXN5KP6"/>
      <point x="570" y="0" type="line" identifier="maiuCF9mLR"/>
      <point x="570" y="369" type="line" smooth="yes" identifier="ONwEJYiRTA"/>
      <point x="570" y="475" identifier="vxvB2GnEpx"/>
      <point x="534" y="528" identifier="Z1Q9e7sWHJ"/>
      <point x="462" y="528" type="curve" smooth="yes" identifier="q47zRXyVEx"/>
      <point x="398" y="528" identifier="9aBk3dQ3we"/>
      <point x="369" y="487" identifier="DRfNoRXTPP"/>
      <point x="352" y="440" type="curve" identifier="5DgKKXZBS0"/>
      <point x="346" y="440" type="line" identifier="zufZKwdEUz"/>
      <point x="335" y="497" identifier="tBS9Mpvd0V"/>
      <point x="303" y="528" identifier="yu3WDXkYsb"/>
      <point x="254" y="528" type="curve" smooth="yes" identifier="SVZbZBX7ix"/>
      <point x="199" y="528" identifier="v5d2yw6UJ2"/>
      <point x="172" y="488" identifier="jNEz7Vq2Zy"/>
      <point x="156" y="440" type="curve" identifier="Xj2BsD0Pda"/>
      <point x="149" y="440" type="line" identifier="wX7iAibG4E"/>
      <point x="149" y="516" type="line" identifier="aU6k0kqGXO"/>
      <point x="30" y="516" type="line" identifier="0HU55ESqvU"/>
      <point x="30" y="0" type="line" identifier="SQVLW6M7J2"/>
    </contour>
  </outline>
</glyph>
<glyph name="n" format="2">
  <advance width="600"/>
  <unicode hex="006E"/>
  <anchor x="302.0" y="0.0" name="bottom"/>
  <anchor x="302.0" y="516.0" name="top"/>
  <outline>
    <contour>
      <point x="213" y="0" type="line" identifier="EcOsEdNb7s"/>
      <point x="213" y="339" type="line" identifier="6ea0xc78tP"/>
      <point x="213" y="389" identifier="Ae2t0yE4eR"/>
      <point x="258" y="414" identifier="euY1Mm4JLd"/>
      <point x="304" y="414" type="curve" smooth="yes" identifier="uOQBjXRQvP"/>
      <point x="362" y="414" identifier="DguWbpNyCa"/>
      <point x="391" y="379" identifier="0XFNjJw7R1"/>
      <point x="391" y="314" type="curve" smooth="yes" identifier="Ce5GmeVd4v"/>
      <point x="391" y="0" type="line" identifier="te7cwkJKlb"/>
      <point x="539" y="0" type="line" identifier="4UT5Ln5rva"/>
      <point x="539" y="334" type="line" smooth="yes" identifier="EKMHYz2eUf"/>
      <point x="539" y="459" identifier="hMTiQf9PNv"/>
      <point x="470" y="528" identifier="OJZFRNXjcJ"/>
      <point x="371" y="528" type="curve" smooth="yes" identifier="cxgsCOPw0U"/>
      <point x="288" y="528" identifier="9w0LiYHozm"/>
      <point x="242" y="480" identifier="Vl18y2Z3vk"/>
      <point x="219" y="422" type="curve" identifier="aGWRfacZTf"/>
      <point x="213" y="422" type="line" identifier="owd3BqRygw"/>
      <point x="213" y="516" type="line" identifier="6L7O0GjjAF"/>
      <point x="65" y="516" type="line" identifier="vuWjh0I22U"/>
      <point x="65" y="0" type="line" identifier="cu7JKOkcOD"/>
    </contour>
  </outline>
</glyph>
<glyph name="o" format="2">
  <advance width="600"/>
  <unicode hex="006F"/>
  <anchor x="300.0" y="0.0" name="bottom"/>
  <anchor x="300.0" y="516.0" name="top"/>
  <outline>
    <contour>
      <point x="300" y="-12" type="curve" smooth="yes" identifier="NKI4mreSMw"/>
      <point x="461" y="-12" identifier="kZ1fz36yut"/>
      <point x="559" y="91" identifier="ERzBL3WxiP"/>
      <point x="559" y="258" type="curve" smooth="yes" identifier="Cs5df5Bs27"/>
      <point x="559" y="425" identifier="1YWzAuogHK"/>
      <point x="461" y="528" identifier="GZRQGVTXsx"/>
      <point x="300" y="528" type="curve" smooth="yes" identifier="Y2L0Bnl3Zw"/>
      <point x="139" y="528" identifier="fiQNzvRcgy"/>
      <point x="41" y="425" identifier="c2Bu7VCtD2"/>
      <point x="41" y="258" type="curve" smooth="yes" identifier="Tu8GEXWKDF"/>
      <point x="41" y="91" identifier="JmiyZqbKdX"/>
      <point x="139" y="-12" identifier="kBGOOuVRO4"/>
    </contour>
    <contour>
      <point x="300" y="98" type="curve" smooth="yes" identifier="iCFHQ14xKB"/>
      <point x="234" y="98" identifier="mKjZsEDabF"/>
      <point x="194" y="141" identifier="ePheldnLuj"/>
      <point x="194" y="217" type="curve" smooth="yes" identifier="eiWAKi4bW6"/>
      <point x="194" y="299" type="line" identifier="HCDExjTbru"/>
      <point x="194" y="375" identifier="3JoPCt40fL"/>
      <point x="234" y="418" identifier="u9o8dWh8rz"/>
      <point x="300" y="418" type="curve" smooth="yes" identifier="1MmE7ecCCC"/>
      <point x="366" y="418" identifier="GzVr0vxSZe"/>
      <point x="406" y="375" identifier="ovXhx4Dtxq"/>
      <point x="406" y="299" type="curve" smooth="yes" identifier="RPsmX7gGPU"/>
      <point x="406" y="217" type="line" smooth="yes" identifier="3tje91INWV"/>
      <point x="406" y="141" identifier="Wx96WTUqpW"/>
      <point x="366" y="98" identifier="jNLRlrbHIa"/>
    </contour>
  </outline>
</glyph>
<glyph name="p" format="2">
  <advance width="600"/>
  <unicode hex="0070"/>
  <anchor x="310.0" y="516.0" name="top"/>
  <outline>
    <contour>
      <point x="59" y="-200" type="line" identifier="fkSk01uNUU"/>
      <point x="207" y="-200" type="line" identifier="ZSoqc2u7Ij"/>
      <point x="207" y="94" type="line" identifier="6phCKqE2HN"/>
      <point x="214" y="94" type="line" identifier="fkgOGJLqws"/>
      <point x="240" y="32" identifier="YMDLTSkYUS"/>
      <point x="284" y="-12" identifier="oz2mIvIh8Y"/>
      <point x="367" y="-12" type="curve" smooth="yes" identifier="RarbBVBC6K"/>
      <point x="481" y="-12" identifier="ocsGpdJ8eK"/>
      <point x="561" y="71" identifier="xrB2bS5urE"/>
      <point x="561" y="258" type="curve" smooth="yes" identifier="GMTuEXTLtJ"/>
      <point x="561" y="445" identifier="JXaV5M4QW3"/>
      <point x="481" y="528" identifier="pzjCkxSllp"/>
      <point x="367" y="528" type="curve" smooth="yes" identifier="DqCkWMDQ9j"/>
      <point x="284" y="528" identifier="sO14G1f6ne"/>
      <point x="240" y="484" identifier="JLqhx8dYGJ"/>
      <point x="214" y="422" type="curve" identifier="2PqJzA6Seo"/>
      <point x="207" y="422" type="line" identifier="wfRI0XLJpf"/>
      <point x="207" y="516" type="line" identifier="yvibp7vaBE"/>
      <point x="59" y="516" type="line" identifier="0wNblzPX4U"/>
    </contour>
    <contour>
      <point x="303" y="103" type="curve" smooth="yes" identifier="hDCWUqKHOh"/>
      <point x="251" y="103" identifier="YstQqb5iZw"/>
      <point x="207" y="128" identifier="5coFX9uH26"/>
      <point x="207" y="182" type="curve" identifier="p3zHrDHu8c"/>
      <point x="207" y="334" type="line" identifier="yMVtjS7mtB"/>
      <point x="207" y="388" identifier="p2WzuVaXxg"/>
      <point x="251" y="413" identifier="yeD9cniZ9E"/>
      <point x="303" y="413" type="curve" smooth="yes" identifier="HrP2qff2GP"/>
      <point x="369" y="413" identifier="2LFKcH4J5W"/>
      <point x="407" y="370" identifier="JGwYYJLAUS"/>
      <point x="407" y="298" type="curve" smooth="yes" identifier="YZ9ovysbwo"/>
      <point x="407" y="218" type="line" identifier="TXnbLiPt16"/>
      <point x="407" y="146" identifier="UZW9n7GCD7"/>
      <point x="369" y="103" identifier="vhbGOIpiZz"/>
    </contour>
  </outline>
</glyph>
<glyph name="q" format="2">
  <advance width="600"/>
  <unicode hex="0071"/>
  <anchor x="290.0" y="516.0" name="top"/>
  <outline>
    <contour>
      <point x="393" y="-200" type="line" identifier="PYuPmMlhJ9"/>
      <point x="541" y="-200" type="line" identifier="XXxsroZeDL"/>
      <point x="541" y="516" type="line" identifier="tfHGzC48Rc"/>
      <point x="393" y="516" type="line" identifier="ekVclIKnW0"/>
      <point x="393" y="422" type="line" identifier="NIV6vMuVne"/>
      <point x="386" y="422" type="line" identifier="ijoZ9RcLpU"/>
      <point x="360" y="484" identifier="2cjHTT1R9Q"/>
      <point x="316" y="528" identifier="M6pTItNTzm"/>
      <point x="233" y="528" type="curve" smooth="yes" identifier="pObqWJm9sb"/>
      <point x="119" y="528" identifier="7TFLdtkyXC"/>
      <point x="39" y="445" identifier="Ubx9CFXgHg"/>
      <point x="39" y="258" type="curve" smooth="yes" identifier="P6xYEbClMT"/>
      <point x="39" y="71" identifier="CSW143LY5l"/>
      <point x="119" y="-12" identifier="OhwIWwN2CS"/>
      <point x="233" y="-12" type="curve" smooth="yes" identifier="rm2VEiwA1A"/>
      <point x="316" y="-12" identifier="JDU7AAJEBU"/>
      <point x="360" y="32" identifier="ABqxNoBmzu"/>
      <point x="386" y="94" type="curve" identifier="wuTmBdbBDo"/>
      <point x="393" y="94" type="line" identifier="UOP9fy1F48"/>
    </contour>
    <contour>
      <point x="297" y="103" type="curve" smooth="yes" identifier="9j5ndAadVT"/>
      <point x="231" y="103" identifier="ImBnhtTNC1"/>
      <point x="193" y="146" identifier="6iyaFDsQZU"/>
      <point x="193" y="218" type="curve" smooth="yes" identifier="WyHX5w0EPo"/>
      <point x="193" y="298" type="line" identifier="LeNxt6ANMl"/>
      <point x="193" y="370" identifier="eZbMb4a615"/>
      <point x="231" y="413" identifier="x4NjZG3e4U"/>
      <point x="297" y="413" type="curve" smooth="yes" identifier="JiKsKaf7RV"/>
      <point x="349" y="413" identifier="wgkUmKTFQq"/>
      <point x="393" y="388" identifier="nZjXdMJQ6N"/>
      <point x="393" y="334" type="curve" identifier="oEIfTY3WE4"/>
      <point x="393" y="182" type="line" identifier="pMQaRVCCia"/>
      <point x="393" y="128" identifier="q8CfjWV2KQ"/>
      <point x="349" y="103" identifier="nVgef6HSvK"/>
    </contour>
  </outline>
</glyph>
<glyph name="r" format="2">
  <advance width="600"/>
  <unicode hex="0072"/>
  <anchor x="267.0" y="0.0" name="bottom"/>
  <anchor x="325.0" y="516.0" name="top"/>
  <outline>
    <contour>
      <point x="74" y="0" type="line" identifier="HOTTZbNXAS"/>
      <point x="470" y="0" type="line" identifier="q0VKxElAlZ"/>
      <point x="470" y="115" type="line" identifier="RP9LVBDrL1"/>
      <point x="341" y="115" type="line" identifier="mzCbTXO8qf"/>
      <point x="341" y="268" type="line" smooth="yes" identifier="uNsVqJGtRY"/>
      <point x="341" y="330" identifier="5FMMsQh4qV"/>
      <point x="379" y="380" identifier="KVAM8iht46"/>
      <point x="452" y="380" type="curve" smooth="yes" identifier="zmmfOwo10z"/>
      <point x="562" y="380" type="line" identifier="xyl7czBCIx"/>
      <point x="562" y="516" type="line" identifier="QtEjpbMGF8"/>
      <point x="513" y="516" type="line" smooth="yes" identifier="fLbPUfKzuO"/>
      <point x="411" y="516" identifier="ad5HUQf79O"/>
      <point x="367" y="446" identifier="FMBjV7B124"/>
      <point x="348" y="370" type="curve" identifier="WB0W6yUsDX"/>
      <point x="341" y="370" type="line" identifier="gZ1k77iWzi"/>
      <point x="341" y="516" type="line" identifier="Msg0X11tC6"/>
      <point x="74" y="516" type="line" identifier="1B8tEQYeW0"/>
      <point x="74" y="401" type="line" identifier="lxmzxOEGu6"/>
      <point x="193" y="401" type="line" identifier="6ljPwA9SeQ"/>
      <point x="193" y="115" type="line" identifier="6VsirqVCQl"/>
      <point x="74" y="115" type="line" identifier="jAY6ytxcdQ"/>
    </contour>
  </outline>
</glyph>
<glyph name="s" format="2">
  <advance width="600"/>
  <unicode hex="0073"/>
  <anchor x="293.0" y="0.0" name="bottom"/>
  <anchor x="305.0" y="516.0" name="top"/>
  <outline>
    <contour>
      <point x="294" y="-12" type="curve" smooth="yes" identifier="5JnzabFOSV"/>
      <point x="447" y="-12" identifier="sU1xYYWoj0"/>
      <point x="534" y="56" identifier="oOHTcD7ksI"/>
      <point x="534" y="163" type="curve" smooth="yes" identifier="WcoDmLrxEx"/>
      <point x="534" y="261" identifier="gJUzDPW7Lt"/>
      <point x="461" y="300" identifier="Obsdr52aBZ"/>
      <point x="368" y="314" type="curve" smooth="yes" identifier="ZY9iFCjBDL"/>
      <point x="286" y="327" type="line" smooth="yes" identifier="V6k7Z7yoIm"/>
      <point x="246" y="333" identifier="IU4EHnG4vN"/>
      <point x="222" y="342" identifier="g6JmcXCjCG"/>
      <point x="222" y="372" type="curve" smooth="yes" identifier="Q0LsmVtq37"/>
      <point x="222" y="406" identifier="UCkdr3FgsM"/>
      <point x="252" y="424" identifier="D7EMv3JR36"/>
      <point x="308" y="424" type="curve" smooth="yes" identifier="xztDrbRokR"/>
      <point x="375" y="424" identifier="EUnUlAa5nm"/>
      <point x="424" y="398" identifier="79yYr1yzSI"/>
      <point x="454" y="365" type="curve" identifier="SPQuC95wtO"/>
      <point x="528" y="449" type="line" identifier="G6H5oGbm2p"/>
      <point x="485" y="499" identifier="0fCOGiiCKU"/>
      <point x="414" y="528" identifier="LUkQ0UhRVy"/>
      <point x="313" y="528" type="curve" smooth="yes" identifier="9YqHsaAei3"/>
      <point x="164" y="528" identifier="rXFFFViOsL"/>
      <point x="77" y="463" identifier="Tily2onDzE"/>
      <point x="77" y="355" type="curve" smooth="yes" identifier="zDvs4cWs7q"/>
      <point x="77" y="257" identifier="TyCKYVQp4Z"/>
      <point x="150" y="218" identifier="P48tGDvVtd"/>
      <point x="242" y="204" type="curve" smooth="yes" identifier="nyvNGNE8KV"/>
      <point x="325" y="191" type="line" smooth="yes" identifier="e3hNBNBMIh"/>
      <point x="365" y="185" identifier="OQsTLPfu46"/>
      <point x="389" y="176" identifier="yd1ZFk5MuF"/>
      <point x="389" y="147" type="curve" smooth="yes" identifier="gzyA61TNnG"/>
      <point x="389" y="110" identifier="c8iCARNzSC"/>
      <point x="353" y="92" identifier="bu3MuhdoZn"/>
      <point x="295" y="92" type="curve" smooth="yes" identifier="83v37GbxGJ"/>
      <point x="226" y="92" identifier="x9qqIyWGAL"/>
      <point x="172" y="118" identifier="F8q3Mo0rcb"/>
      <point x="132" y="162" type="curve" identifier="tckX3K5Tha"/>
      <point x="49" y="85" type="line" identifier="EiR461YvMM"/>
      <point x="91" y="25" identifier="x4VaJpfCmX"/>
      <point x="180" y="-12" identifier="7HLYNDl5l1"/>
    </contour>
  </outline>
</glyph>
<glyph name="t" format="2">
  <advance width="600"/>
  <unicode hex="0074"/>
  <anchor x="361.0" y="0.0" name="bottom"/>
  <anchor x="396.0" y="780.0" name="topright"/>
  <outline>
    <contour>
      <point x="531" y="0" type="line" identifier="G5fwv5AlKU"/>
      <point x="531" y="115" type="line" identifier="R1AQGNqwu7"/>
      <point x="330" y="115" type="line" identifier="5f4BLAz8Ej"/>
      <point x="330" y="401" type="line" identifier="L50MAOYid7"/>
      <point x="531" y="401" type="line" identifier="NeKIBb27LL"/>
      <point x="531" y="516" type="line" identifier="w1uEiy9GjF"/>
      <point x="330" y="516" type="line" identifier="yNCxBe8bre"/>
      <point x="330" y="698" type="line" identifier="rVTAe1mJTb"/>
      <point x="194" y="698" type="line" identifier="NIg0YedfgA"/>
      <point x="194" y="577" type="line" smooth="yes" identifier="BHFSy0Y3ZW"/>
      <point x="194" y="531" identifier="iKCeMNmoGq"/>
      <point x="177" y="516" identifier="a3TENMk2GL"/>
      <point x="133" y="516" type="curve" smooth="yes" identifier="39QWpDNZLI"/>
      <point x="42" y="516" type="line" identifier="7F0D2Rcj0n"/>
      <point x="42" y="401" type="line" identifier="uVBDe6YzsT"/>
      <point x="182" y="401" type="line" identifier="YRMb5kr4Vz"/>
      <point x="182" y="149" type="line" smooth="yes" identifier="Z4P9WUOkhk"/>
      <point x="182" y="62" identifier="WILbbvtk8I"/>
      <point x="233" y="0" identifier="CfQtyeBxn4"/>
      <point x="340" y="0" type="curve" smooth="yes" identifier="wGIBFvZhI6"/>
    </contour>
  </outline>
</glyph>
<glyph name="u" format="2">
  <advance width="600"/>
  <unicode hex="0075"/>
  <anchor x="298.0" y="0.0" name="bottom"/>
  <anchor x="535.0" y="0.0" name="bottomright"/>
  <anchor x="298.0" y="516.0" name="top"/>
  <outline>
    <contour>
      <point x="387" y="0" type="line" identifier="F2NqZDNel2"/>
      <point x="535" y="0" type="line" identifier="fNbPLDzjm1"/>
      <point x="535" y="516" type="line" identifier="nXgDQ2JBGz"/>
      <point x="387" y="516" type="line" identifier="x04XIuVYF7"/>
      <point x="387" y="177" type="line" smooth="yes" identifier="DotY1yZudy"/>
      <point x="387" y="127" identifier="3ghz7eIezR"/>
      <point x="342" y="102" identifier="I5nj9Oxt34"/>
      <point x="296" y="102" type="curve" smooth="yes" identifier="x89tuYFLFJ"/>
      <point x="238" y="102" identifier="6zLs92CKFJ"/>
      <point x="209" y="137" identifier="wpnFDUY448"/>
      <point x="209" y="202" type="curve" smooth="yes" identifier="eef57r6SUc"/>
      <point x="209" y="516" type="line" identifier="eEXqqdCbyb"/>
      <point x="61" y="516" type="line" identifier="CkYSg1JSew"/>
      <point x="61" y="182" type="line" smooth="yes" identifier="AXeqpGOlPk"/>
      <point x="61" y="57" identifier="bbuvHB6d1U"/>
      <point x="130" y="-12" identifier="kyqlC7ZmQ1"/>
      <point x="229" y="-12" type="curve" smooth="yes" identifier="0SlFzQ2iVg"/>
      <point x="312" y="-12" identifier="HIfLTIYCRR"/>
      <point x="358" y="36" identifier="aWHqoYqoVL"/>
      <point x="381" y="94" type="curve" identifier="a94Ee3MD3s"/>
      <point x="387" y="94" type="line" identifier="FUFXn2kXfA"/>
    </contour>
  </outline>
</glyph>
<glyph name="v" format="2">
  <advance width="600"/>
  <unicode hex="0076"/>
  <anchor x="300.0" y="0.0" name="bottom"/>
  <anchor x="300.0" y="516.0" name="top"/>
  <outline>
    <contour>
      <point x="388" y="0" type="line" identifier="wRasuxBC9r"/>
      <point x="573" y="516" type="line" identifier="INHZYUg5TN"/>
      <point x="423" y="516" type="line" identifier="mFv3RwsXUk"/>
      <point x="356" y="295" type="line" identifier="eaODxhnHFK"/>
      <point x="307" y="123" type="line" identifier="fPWMPWaVgi"/>
      <point x="299" y="123" type="line" identifier="imvjj496eo"/>
      <point x="250" y="295" type="line" identifier="JiejsqIWHV"/>
      <point x="183" y="516" type="line" identifier="IQxOx9Ul5P"/>
      <point x="27" y="516" type="line" identifier="qRJdSKIipa"/>
      <point x="212" y="0" type="line" identifier="jil2JT8VIG"/>
    </contour>
  </outline>
</glyph>
<glyph name="w" format="2">
  <advance width="600"/>
  <unicode hex="0077"/>
  <anchor x="300.0" y="0.0" name="bottom"/>
  <anchor x="300.0" y="516.0" name="top"/>
  <outline>
    <contour>
      <point x="68" y="0" type="line" identifier="I2bNXy6ZI3"/>
      <point x="244" y="0" type="line" identifier="jne9fsuL3z"/>
      <point x="295" y="356" type="line" identifier="FLKOutjtCa"/>
      <point x="305" y="356" type="line" identifier="jOGwHjhoXs"/>
      <point x="356" y="0" type="line" identifier="n46cefzn7u"/>
      <point x="532" y="0" type="line" identifier="XN8fKl3nyd"/>
      <point x="593" y="516" type="line" identifier="KzZEy5PzLN"/>
      <point x="476" y="516" type="line" identifier="rrMmz6AhY9"/>
      <point x="438" y="98" type="line" identifier="PUQyRDE544"/>
      <point x="428" y="98" type="line" identifier="0nWF1npBvX"/>
      <point x="368" y="516" type="line" identifier="Q19M1gviTD"/>
      <point x="238" y="516" type="line" identifier="qRHgQCmdO0"/>
      <point x="177" y="98" type="line" identifier="wlHw337HMH"/>
      <point x="167" y="98" type="line" identifier="PROmjv0uzC"/>
      <point x="130" y="516" type="line" identifier="Bw0Ay4cNGQ"/>
      <point x="7" y="516" type="line" identifier="E6mFSMTfrE"/>
    </contour>
  </outline>
</glyph>
<glyph name="x" format="2">
  <advance width="600"/>
  <unicode hex="0078"/>
  <anchor x="300.0" y="0.0" name="bottom"/>
  <anchor x="300.0" y="516.0" name="top"/>
  <outline>
    <contour>
      <point x="179" y="0" type="line" identifier="MCWGwTiE7L"/>
      <point x="245" y="97" type="line" identifier="AqXuSbqqN5"/>
      <point x="289" y="166" type="line" identifier="tv6TohQ044"/>
      <point x="297" y="166" type="line" identifier="oV7fWJn9iQ"/>
      <point x="342" y="97" type="line" identifier="kw2fPiZz8H"/>
      <point x="407" y="0" type="line" identifier="h0XcbzqxRy"/>
      <point x="577" y="0" type="line" identifier="XmyKO2WCiS"/>
      <point x="384" y="270" type="line" identifier="D51Z6YwNdw"/>
      <point x="564" y="516" type="line" identifier="D0SlQzrM5E"/>
      <point x="409" y="516" type="line" identifier="Fs2gLd6X4D"/>
      <point x="353" y="433" type="line" identifier="58a123vRB3"/>
      <point x="310" y="366" type="line" identifier="KBGDZwLxck"/>
      <point x="302" y="366" type="line" identifier="Di0NeYAbj8"/>
      <point x="260" y="433" type="line" identifier="KWJ3C7U6Eb"/>
      <point x="205" y="516" type="line" identifier="0BSgCJ3fkQ"/>
      <point x="36" y="516" type="line" identifier="KQ0zJcILPf"/>
      <point x="216" y="262" type="line" identifier="lsn2iIVQsC"/>
      <point x="23" y="0" type="line" identifier="T8AaeVwECs"/>
    </contour>
  </outline>
</glyph>
<glyph name="y" format="2">
  <advance width="600"/>
  <unicode hex="0079"/>
  <anchor x="482.0" y="0.0" name="bottom"/>
  <anchor x="303.0" y="516.0" name="top"/>
  <outline>
    <contour>
      <point x="353" y="299" type="line" identifier="EAC0Zu0Hqx"/>
      <point x="308" y="149" type="line" identifier="u4sDUGhNNe"/>
      <point x="300" y="149" type="line" identifier="cCmA8hS8fQ"/>
      <point x="253" y="299" type="line" identifier="y7DqHMGEgx"/>
      <point x="178" y="516" type="line" identifier="eosnDqYdlL"/>
      <point x="19" y="516" type="line" identifier="3SS8TNztvp"/>
      <point x="227" y="3" type="line" identifier="rWsjyVI0Sn"/>
      <point x="195" y="-85" type="line" identifier="pkEhhyvnnR"/>
      <point x="71" y="-85" type="line" identifier="ZjEqPFzQEF"/>
      <point x="71" y="-200" type="line" identifier="p7wEhJiimA"/>
      <point x="173" y="-200" type="line" smooth="yes" identifier="SAvuN8oier"/>
      <point x="261" y="-200" identifier="8ncUNPOOXg"/>
      <point x="308" y="-158" identifier="YCt1sqwRev"/>
      <point x="338" y="-83" type="curve" smooth="yes" identifier="V1Ha5xp6qu"/>
      <point x="581" y="516" type="line" identifier="kG2LZvIDvW"/>
      <point x="430" y="516" type="line" identifier="FyVa7ZAqDv"/>
    </contour>
  </outline>
</glyph>
<glyph name="z" format="2">
  <advance width="600"/>
  <unicode hex="007A"/>
  <anchor x="300.0" y="0.0" name="bottom"/>
  <anchor x="300.0" y="516.0" name="top"/>
  <outline>
    <contour>
      <point x="534" y="0" type="line" identifier="N5KeCOqYcj"/>
      <point x="534" y="115" type="line" identifier="XztdgSUxmc"/>
      <point x="237" y="115" type="line" identifier="yJNVUAIly0"/>
      <point x="524" y="393" type="line" identifier="CzmyCxSqot"/>
      <point x="524" y="516" type="line" identifier="MqvV2FfCT4"/>
      <point x="76" y="516" type="line" identifier="8uGYwS2rT8"/>
      <point x="76" y="401" type="line" identifier="jjmZwDOj9p"/>
      <point x="353" y="401" type="line" identifier="eALdfyzjzs"/>
      <point x="66" y="123" type="line" identifier="wY6DOBqKhU"/>
      <point x="66" y="0" type="line" identifier="z2vRkevhWN"/>
    </contour>
  </outline>
</glyph>
<glyph name="braceleft" format="2">
  <advance width="600"/>
  <unicode hex="007B"/>
  <outline>
    <contour>
      <point x="508" y="-138" type="line" identifier="1dp23kUSTY"/>
      <point x="508" y="-39" type="line" identifier="JZK3FqvIgT"/>
      <point x="323" y="-39" type="line" identifier="Qag4D7mPum"/>
      <point x="323" y="9" type="line" smooth="yes" identifier="eYBxWfoZ01"/>
      <point x="323" y="59" identifier="tu0OYnZI5d"/>
      <point x="343" y="81" identifier="ax1NsZHYtX"/>
      <point x="363" y="107" type="curve" smooth="yes" identifier="68ne57YrPi"/>
      <point x="386" y="135" identifier="BwT9w3TZFB"/>
      <point x="410" y="166" identifier="9GN1rIDAxl"/>
      <point x="410" y="208" type="curve" smooth="yes" identifier="9wowwXEuiN"/>
      <point x="410" y="263" identifier="C4LlkbYUNQ"/>
      <point x="372" y="298" identifier="cgg3rO60nK"/>
      <point x="292" y="307" type="curve" identifier="bvJtCQUgae"/>
      <point x="292" y="315" type="line" identifier="JNTuH8qbqq"/>
      <point x="372" y="324" identifier="ibjI2XRFWU"/>
      <point x="410" y="359" identifier="V9YWcs3xAd"/>
      <point x="410" y="414" type="curve" smooth="yes" identifier="AYdW74QxBz"/>
      <point x="410" y="456" identifier="Cn4RjM2WLg"/>
      <point x="386" y="487" identifier="McyZviyw5y"/>
      <point x="363" y="515" type="curve" smooth="yes" identifier="Y9DmU8l7vy"/>
      <point x="343" y="541" identifier="apSxSYKDfM"/>
      <point x="323" y="563" identifier="mDkT2lqjwH"/>
      <point x="323" y="613" type="curve" smooth="yes" identifier="z6UoGHiRNd"/>
      <point x="323" y="661" type="line" identifier="pcfksZzmXi"/>
      <point x="508" y="661" type="line" identifier="abBhKXbojf"/>
      <point x="508" y="760" type="line" identifier="kyEaJOnSQ6"/>
      <point x="330" y="760" type="line" smooth="yes" identifier="da9jBEmJYj"/>
      <point x="239" y="760" identifier="sIxXesUakE"/>
      <point x="204" y="715" identifier="C678wW2o8n"/>
      <point x="204" y="652" type="curve" smooth="yes" identifier="e7xophS5uF"/>
      <point x="204" y="607" type="line" smooth="yes" identifier="99I5IlwT48"/>
      <point x="204" y="540" identifier="FVrBuSU9wX"/>
      <point x="236" y="508" identifier="aRsANrsnOM"/>
      <point x="260" y="480" type="curve" smooth="yes" identifier="KMz99j9Xlx"/>
      <point x="282" y="453" identifier="LgABO7Fr7P"/>
      <point x="290" y="436" identifier="LiBoin7kLc"/>
      <point x="290" y="415" type="curve" smooth="yes" identifier="gLyGHpStBE"/>
      <point x="290" y="381" identifier="0tzojRPDkp"/>
      <point x="253" y="361" identifier="G1VloXmegF"/>
      <point x="182" y="361" type="curve" smooth="yes" identifier="2oC3pApkwn"/>
      <point x="92" y="361" type="line" identifier="ijJOY6gGbP"/>
      <point x="92" y="261" type="line" identifier="mNufGXFOJm"/>
      <point x="182" y="261" type="line" smooth="yes" identifier="72NLQ8o2oV"/>
      <point x="253" y="261" identifier="5OcuXQyhru"/>
      <point x="290" y="241" identifier="dZaEoSuau5"/>
      <point x="290" y="207" type="curve" smooth="yes" identifier="gebASeQ1Dq"/>
      <point x="290" y="186" identifier="nNTfZzUnM2"/>
      <point x="282" y="169" identifier="TfYQkdcsrc"/>
      <point x="260" y="142" type="curve" smooth="yes" identifier="ufqzBeCEuI"/>
      <point x="236" y="114" identifier="hjDOAg8auI"/>
      <point x="204" y="82" identifier="XOt7jHCeXr"/>
      <point x="204" y="15" type="curve" smooth="yes" identifier="TJYQGltyxJ"/>
      <point x="204" y="-30" type="line" smooth="yes" identifier="rfWPuvSNtf"/>
      <point x="204" y="-93" identifier="bBobJWkpny"/>
      <point x="239" y="-138" identifier="HUaL2DPm7B"/>
      <point x="330" y="-138" type="curve" smooth="yes" identifier="Sti7hm5Nkx"/>
    </contour>
  </outline>
</glyph>
<glyph name="bar" format="2">
  <advance width="600"/>
  <unicode hex="007C"/>
  <outline>
    <contour>
      <point x="363" y="-138" type="line" identifier="Y2agCC0rDq"/>
      <point x="363" y="760" type="line" identifier="nQc8hP7Q3T"/>
      <point x="237" y="760" type="line" identifier="Q6MwRT7rEG"/>
      <point x="237" y="-138" type="line" identifier="pkpu7DDT96"/>
    </contour>
  </outline>
</glyph>
<glyph name="braceright" format="2">
  <advance width="600"/>
  <unicode hex="007D"/>
  <outline>
    <contour>
      <point x="92" y="760" type="line" identifier="8xMgzaNoUH"/>
      <point x="92" y="661" type="line" identifier="P6mbrQIwiT"/>
      <point x="277" y="661" type="line" identifier="EPjV2ShKqM"/>
      <point x="277" y="613" type="line" smooth="yes" identifier="6Z4IzHsC3R"/>
      <point x="277" y="563" identifier="kJct4NdApb"/>
      <point x="257" y="541" identifier="4logmr8kv5"/>
      <point x="237" y="515" type="curve" smooth="yes" identifier="ikJtVIMjfx"/>
      <point x="214" y="487" identifier="UZ8gRguwbp"/>
      <point x="190" y="456" identifier="d2YjZoBm5l"/>
      <point x="190" y="414" type="curve" smooth="yes" identifier="D9j0DUAMTL"/>
      <point x="190" y="359" identifier="uEsUvotlyx"/>
      <point x="228" y="324" identifier="BLtTL44gGh"/>
      <point x="308" y="315" type="curve" identifier="Ai0y9QVDaK"/>
      <point x="308" y="307" type="line" identifier="k8PTo31E53"/>
      <point x="228" y="298" identifier="T6mBdbiCCe"/>
      <point x="190" y="263" identifier="lI2CrpcU3n"/>
      <point x="190" y="208" type="curve" smooth="yes" identifier="8dTjPYkJzJ"/>
      <point x="190" y="166" identifier="pRKCsokwgc"/>
      <point x="214" y="135" identifier="SNWJG0ckrj"/>
      <point x="237" y="107" type="curve" smooth="yes" identifier="iVL0hC5B1F"/>
      <point x="257" y="81" identifier="hr9OeHGghT"/>
      <point x="277" y="59" identifier="K00M6VTlDL"/>
      <point x="277" y="9" type="curve" smooth="yes" identifier="IHFoH3dkup"/>
      <point x="277" y="-39" type="line" identifier="zSowpBU7KL"/>
      <point x="92" y="-39" type="line" identifier="0LasDrqCW5"/>
      <point x="92" y="-138" type="line" identifier="VuIm6PboNP"/>
      <point x="270" y="-138" type="line" smooth="yes" identifier="qQws5BDn0V"/>
      <point x="361" y="-138" identifier="B4i5OMDStU"/>
      <point x="396" y="-93" identifier="FowQiFvVq2"/>
      <point x="396" y="-30" type="curve" smooth="yes" identifier="rXp7TQDLJV"/>
      <point x="396" y="15" type="line" smooth="yes" identifier="0k3TlskjPd"/>
      <point x="396" y="82" identifier="U4Oj3lJCMV"/>
      <point x="364" y="114" identifier="5xaRk1IOTA"/>
      <point x="340" y="142" type="curve" smooth="yes" identifier="kY5z3Ddenv"/>
      <point x="318" y="169" identifier="Yr7TwDMNFR"/>
      <point x="310" y="186" identifier="2f0YKSX4pE"/>
      <point x="310" y="207" type="curve" smooth="yes" identifier="OgIrtyQVNQ"/>
      <point x="310" y="241" identifier="bUicm25cYo"/>
      <point x="347" y="261" identifier="dZe9tZSefb"/>
      <point x="418" y="261" type="curve" smooth="yes" identifier="eKDsrxH5lV"/>
      <point x="508" y="261" type="line" identifier="pZeJEp6FYZ"/>
      <point x="508" y="361" type="line" identifier="jbiIqvXh0t"/>
      <point x="418" y="361" type="line" smooth="yes" identifier="2k4VjROUA3"/>
      <point x="347" y="361" identifier="e1Nhj04uGl"/>
      <point x="310" y="381" identifier="IOqA2NLKjg"/>
      <point x="310" y="415" type="curve" smooth="yes" identifier="Pg1diTs0Gr"/>
      <point x="310" y="436" identifier="i96Zu7HcVt"/>
      <point x="318" y="453" identifier="DnohUZgacg"/>
      <point x="340" y="480" type="curve" smooth="yes" identifier="A8MjeMpQh2"/>
      <point x="364" y="508" identifier="wDgxG3w9k0"/>
      <point x="396" y="540" identifier="acyI01619b"/>
      <point x="396" y="607" type="curve" smooth="yes" identifier="2HzJ5aio0d"/>
      <point x="396" y="652" type="line" smooth="yes" identifier="8Up8sbAhIg"/>
      <point x="396" y="715" identifier="JK2PJ29EQx"/>
      <point x="361" y="760" identifier="xgNlQBsFFT"/>
      <point x="270" y="760" type="curve" smooth="yes" identifier="YQNrzkeCMU"/>
    </contour>
  </outline>
</glyph>
<glyph name="asciitilde" format="2">
  <advance width="600"/>
  <unicode hex="007E"/>
  <outline>
    <contour>
      <point x="392" y="173" type="curve" smooth="yes" identifier="yxqcffDKlo"/>
      <point x="502" y="173" identifier="OYKgw7WPN5"/>
      <point x="546" y="268" identifier="4TqfgoknJT"/>
      <point x="564" y="404" type="curve" identifier="WoafG73fFG"/>
      <point x="458" y="424" type="line" identifier="jZofxh5K5v"/>
      <point x="446" y="344" identifier="fxpEew3ya4"/>
      <point x="432" y="296" identifier="nB5HwVmfIv"/>
      <point x="399" y="296" type="curve" smooth="yes" identifier="Z5vDDuNybO"/>
      <point x="374" y="296" identifier="iiqQXkj7T8"/>
      <point x="363" y="322" identifier="4GTI2izIqm"/>
      <point x="336" y="360" type="curve" smooth="yes" identifier="ldDNnKq4mu"/>
      <point x="300" y="410" identifier="hRaZT7EnQW"/>
      <point x="262" y="436" identifier="vvfSUr61Ve"/>
      <point x="208" y="436" type="curve" smooth="yes" identifier="uX4jtqW3Tr"/>
      <point x="98" y="436" identifier="SlPIxBJSo4"/>
      <point x="54" y="341" identifier="75TPIMic7g"/>
      <point x="36" y="205" type="curve" identifier="cK2Z90CR13"/>
      <point x="142" y="185" type="line" identifier="AFqZ3Q4w0Y"/>
      <point x="154" y="265" identifier="lipsDepuRr"/>
      <point x="168" y="313" identifier="nwnYXhS5su"/>
      <point x="201" y="313" type="curve" smooth="yes" identifier="whE8gIAW9b"/>
      <point x="226" y="313" identifier="PqLoVdN2K7"/>
      <point x="237" y="287" identifier="cb5E1rUkl6"/>
      <point x="264" y="249" type="curve" smooth="yes" identifier="mzyDI7vXlH"/>
      <point x="300" y="199" identifier="srL0njYGiB"/>
      <point x="338" y="173" identifier="d6nhNcnozE"/>
    </contour>
  </outline>
</glyph>
<glyph name="exclamdown" format="2">
  <advance width="600"/>
  <unicode hex="00A1"/>
  <outline>
    <contour>
      <point x="381" y="-182" type="line" identifier="rdYav2n98f"/>
      <point x="381" y="21" type="line" identifier="4hGAz2D4IS"/>
      <point x="324" y="273" type="line" identifier="cJmfKuWG9M"/>
      <point x="276" y="273" type="line" identifier="JFMaIqwy65"/>
      <point x="219" y="21" type="line" identifier="UV91bVUHsi"/>
      <point x="219" y="-182" type="line" identifier="b74iEoFm01"/>
    </contour>
    <contour>
      <point x="300" y="341" type="curve" smooth="yes" identifier="QPvXq5ig3L"/>
      <point x="371" y="341" identifier="hpWcKFyjCy"/>
      <point x="398" y="376" identifier="PMLrI7vV9O"/>
      <point x="398" y="418" type="curve" smooth="yes" identifier="CRfdFy0jlU"/>
      <point x="398" y="450" type="line" smooth="yes" identifier="8sSqOXA0BM"/>
      <point x="398" y="493" identifier="HZeyu2ox9E"/>
      <point x="371" y="528" identifier="ooQGuVeKIp"/>
      <point x="300" y="528" type="curve" smooth="yes" identifier="Ca0SwQr3Zs"/>
      <point x="229" y="528" identifier="Djbaq9p5gN"/>
      <point x="202" y="493" identifier="kv06OUkm1C"/>
      <point x="202" y="450" type="curve" smooth="yes" identifier="BDLO0T6LPx"/>
      <point x="202" y="418" type="line" smooth="yes" identifier="TAEDr2Ben4"/>
      <point x="202" y="376" identifier="pWH3qG0uYV"/>
      <point x="229" y="341" identifier="bDsUpbS1vo"/>
    </contour>
  </outline>
</glyph>
<glyph name="cent" format="2">
  <advance width="600"/>
  <unicode hex="00A2"/>
  <outline>
    <contour>
      <point x="372" y="-114" type="line" identifier="8GRe5Tc57N"/>
      <point x="372" y="-8" type="line" identifier="VgisTsKa9l"/>
      <point x="457" y="5" identifier="nefIWiSiwS"/>
      <point x="512" y="51" identifier="KFvMctuhW4"/>
      <point x="543" y="114" type="curve" identifier="Nvnkk6LPCz"/>
      <point x="438" y="173" type="line" identifier="NvWPDpyDI4"/>
      <point x="422" y="143" identifier="TwtL1KdF8F"/>
      <point x="397" y="116" identifier="2WSxYMgm1U"/>
      <point x="363" y="104" type="curve" identifier="M5f2rRJH9F"/>
      <point x="363" y="411" type="line" identifier="cBBebjTYvg"/>
      <point x="394" y="398" identifier="E9u3M7gdUB"/>
      <point x="415" y="372" identifier="sUS7COaw5Q"/>
      <point x="428" y="344" type="curve" identifier="qVGafgeDDy"/>
      <point x="535" y="402" type="line" identifier="hnl8mA9RWA"/>
      <point x="505" y="465" identifier="UXKM0lna8X"/>
      <point x="454" y="511" identifier="BeOfRaxMHp"/>
      <point x="372" y="524" type="curve" identifier="G51xe1VMTm"/>
      <point x="372" y="630" type="line" identifier="w9X2GFC8tp"/>
      <point x="258" y="630" type="line" identifier="7C8qaOLf1Z"/>
      <point x="258" y="522" type="line" identifier="32D3ui1Ezl"/>
      <point x="134" y="499" identifier="oWoDdSjz0o"/>
      <point x="60" y="402" identifier="INMWP9seSK"/>
      <point x="60" y="258" type="curve" smooth="yes" identifier="fc8MJl3BkW"/>
      <point x="60" y="114" identifier="vojn0zcHJj"/>
      <point x="133" y="17" identifier="jPFnYOQOp0"/>
      <point x="258" y="-6" type="curve" identifier="bVPOsNpGQB"/>
      <point x="258" y="-114" type="line" identifier="pA28Yq3js2"/>
    </contour>
    <contour>
      <point x="202" y="216" type="curve" smooth="yes" identifier="PwDdfS0IsZ"/>
      <point x="202" y="300" type="line" smooth="yes" identifier="6BnHfC4hmg"/>
      <point x="202" y="353" identifier="amQ4UDjYKv"/>
      <point x="225" y="393" identifier="wDptNt99xW"/>
      <point x="268" y="410" type="curve" identifier="AMPun1HFay"/>
      <point x="268" y="106" type="line" identifier="tYcqkzea7A"/>
      <point x="224" y="124" identifier="QSYImP644C"/>
      <point x="202" y="164" identifier="oLazmV0BeG"/>
    </contour>
  </outline>
</glyph>
<glyph name="sterling" format="2">
  <advance width="600"/>
  <unicode hex="00A3"/>
  <outline>
    <contour>
      <point x="553" y="0" type="line" identifier="jaZzKLqIE9"/>
      <point x="553" y="128" type="line" identifier="75DEV2tTyJ"/>
      <point x="224" y="128" type="line" identifier="HO9tvThmF0"/>
      <point x="224" y="137" type="line" identifier="jjdM0p36IL"/>
      <point x="260" y="156" identifier="p5BOSKOlsX"/>
      <point x="302" y="194" identifier="x4enHN24ZK"/>
      <point x="302" y="262" type="curve" smooth="yes" identifier="u4HK41305l"/>
      <point x="302" y="269" type="line" identifier="FTiYOXe3Ja"/>
      <point x="442" y="269" type="line" identifier="cAEQEr71PJ"/>
      <point x="442" y="379" type="line" identifier="3a3G3iH7vc"/>
      <point x="267" y="379" type="line" identifier="gN1wvR4JhW"/>
      <point x="253" y="411" identifier="CR9cjwZm4T"/>
      <point x="239" y="443" identifier="WpiEbmDg4L"/>
      <point x="239" y="480" type="curve" smooth="yes" identifier="vVl9szz4H8"/>
      <point x="239" y="544" identifier="ySclKkZU7X"/>
      <point x="278" y="581" identifier="XAJ2ROyyVD"/>
      <point x="340" y="581" type="curve" smooth="yes" identifier="NN56bSfdu0"/>
      <point x="395" y="581" identifier="qx1ZAZPKQ2"/>
      <point x="429" y="552" identifier="nfy0OZEThg"/>
      <point x="460" y="512" type="curve" identifier="RLXVdQJgRO"/>
      <point x="559" y="605" type="line" identifier="4sztOLxzNP"/>
      <point x="508" y="672" identifier="iOCLWFp6uW"/>
      <point x="436" y="710" identifier="s3LkDT5JKG"/>
      <point x="335" y="710" type="curve" smooth="yes" identifier="n81XD2cwgy"/>
      <point x="186" y="710" identifier="VU0LN7Fr0Y"/>
      <point x="86" y="627" identifier="8RB1O3EMkG"/>
      <point x="86" y="504" type="curve" smooth="yes" identifier="vccwXcGU1V"/>
      <point x="86" y="456" identifier="mxrLLfG40N"/>
      <point x="101" y="416" identifier="hPqgbh3MJY"/>
      <point x="117" y="379" type="curve" identifier="ilQ3qg3mt8"/>
      <point x="46" y="379" type="line" identifier="gQqrtZET5G"/>
      <point x="46" y="269" type="line" identifier="mWhCxZdeot"/>
      <point x="153" y="269" type="line" identifier="UumOM2Slrf"/>
      <point x="154" y="265" identifier="qU9lcWVLmU"/>
      <point x="154" y="261" identifier="V508ooUqAW"/>
      <point x="154" y="257" type="curve" smooth="yes" identifier="1Bq66bakm8"/>
      <point x="154" y="201" identifier="zKiG0uI0Jr"/>
      <point x="122" y="159" identifier="LdJPXnXEJR"/>
      <point x="69" y="136" type="curve" identifier="CLTlUEf5Kg"/>
      <point x="69" y="0" type="line" identifier="DCNPqf5Uep"/>
    </contour>
  </outline>
</glyph>
<glyph name="currency" format="2">
  <advance width="600"/>
  <unicode hex="00A4"/>
  <outline>
    <contour>
      <point x="300" y="107" type="curve" smooth="yes" identifier="2drZ8hKPZq"/>
      <point x="334" y="107" identifier="oFgsTSBO59"/>
      <point x="364" y="112" identifier="jAwROak3Vc"/>
      <point x="391" y="121" type="curve" identifier="uMiCVFYGOw"/>
      <point x="453" y="16" type="line" identifier="5Th4UIYs1Z"/>
      <point x="554" y="75" type="line" identifier="Kg8tKrR5El"/>
      <point x="488" y="187" type="line" identifier="kN9w9QXm7d"/>
      <point x="520" y="228" identifier="aK8xzben5t"/>
      <point x="539" y="283" identifier="SEKt3SPIpE"/>
      <point x="539" y="349" type="curve" smooth="yes" identifier="oi6R8kzwIz"/>
      <point x="539" y="415" identifier="B2sYw8bPyv"/>
      <point x="520" y="470" identifier="HLbfWqzv9p"/>
      <point x="488" y="511" type="curve" identifier="nS1Mxnq1T4"/>
      <point x="554" y="623" type="line" identifier="hIuluUi2Y0"/>
      <point x="453" y="682" type="line" identifier="PzxS7HhflA"/>
      <point x="391" y="577" type="line" identifier="TnJwwJyVBG"/>
      <point x="364" y="586" identifier="VPfmuBWepp"/>
      <point x="334" y="591" identifier="pSjERCdtFE"/>
      <point x="300" y="591" type="curve" smooth="yes" identifier="WIIrAe7zK5"/>
      <point x="266" y="591" identifier="xu0hepHV4N"/>
      <point x="236" y="586" identifier="i4q9UAWttn"/>
      <point x="209" y="577" type="curve" identifier="fJPepX9s49"/>
      <point x="147" y="682" type="line" identifier="uStLayNhNf"/>
      <point x="46" y="623" type="line" identifier="rqZA8Euwzo"/>
      <point x="112" y="511" type="line" identifier="rUIzCKLQEZ"/>
      <point x="80" y="470" identifier="fHoFY6wO3D"/>
      <point x="61" y="415" identifier="hBDp69JFxQ"/>
      <point x="61" y="349" type="curve" smooth="yes" identifier="vw8XXVKDhF"/>
      <point x="61" y="283" identifier="5IP4BS1f9T"/>
      <point x="80" y="228" identifier="eQ2AStP7P2"/>
      <point x="112" y="187" type="curve" identifier="UqlmopEaWM"/>
      <point x="46" y="75" type="line" identifier="kAHbdp7FcC"/>
      <point x="147" y="16" type="line" identifier="sPQNwLPh67"/>
      <point x="209" y="121" type="line" identifier="vpD6ciD1ae"/>
      <point x="236" y="112" identifier="plYZls1MFX"/>
      <point x="266" y="107" identifier="ithwOaUVXB"/>
    </contour>
    <contour>
      <point x="300" y="214" type="curve" smooth="yes" identifier="nou6vmMdo5"/>
      <point x="243" y="214" identifier="J4MtClvQhk"/>
      <point x="209" y="253" identifier="eLxKRFTUWp"/>
      <point x="209" y="321" type="curve" smooth="yes" identifier="RUnOpvcXNz"/>
      <point x="209" y="377" type="line" smooth="yes" identifier="eF1zI9wVLT"/>
      <point x="209" y="445" identifier="TPOQwFoD04"/>
      <point x="243" y="484" identifier="1lNvHMSlQr"/>
      <point x="300" y="484" type="curve" smooth="yes" identifier="kv8cY7S8nh"/>
      <point x="357" y="484" identifier="8P6HLrxW7S"/>
      <point x="391" y="445" identifier="RLRkaYRQyV"/>
      <point x="391" y="377" type="curve" smooth="yes" identifier="KDq6mKCmjj"/>
      <point x="391" y="321" type="line" smooth="yes" identifier="QpPzzCiHdT"/>
      <point x="391" y="253" identifier="GY9M0owJ60"/>
      <point x="357" y="214" identifier="j6vHC4iNXa"/>
    </contour>
  </outline>
</glyph>
<glyph name="yen" format="2">
  <advance width="600"/>
  <unicode hex="00A5"/>
  <outline>
    <contour>
      <point x="56" y="0" type="line" identifier="KyKEDAbhAr"/>
      <point x="544" y="0" type="line" identifier="9693LV7P8j"/>
      <point x="544" y="113" type="line" identifier="kOEODvdG1W"/>
      <point x="371" y="113" type="line" identifier="ooswGLRAID"/>
      <point x="371" y="221" type="line" identifier="FreOB8hm9c"/>
      <point x="544" y="221" type="line" identifier="9ug4MnmsXy"/>
      <point x="544" y="334" type="line" identifier="zZUgjQWnSs"/>
      <point x="441" y="334" type="line" identifier="8vdRoFXEf0"/>
      <point x="600" y="698" type="line" identifier="k5w9MqgE5O"/>
      <point x="449" y="698" type="line" identifier="ZKicTe7Las"/>
      <point x="307" y="334" type="line" identifier="9KeTDgE3ST"/>
      <point x="297" y="334" type="line" identifier="fjFVS124vq"/>
      <point x="156" y="698" type="line" identifier="98WclDbR5e"/>
      <point x="0" y="698" type="line" identifier="iABpuXd46o"/>
      <point x="160" y="334" type="line" identifier="R9VbhwBwz9"/>
      <point x="56" y="334" type="line" identifier="psHCLKy8kU"/>
      <point x="56" y="221" type="line" identifier="E62PALixDa"/>
      <point x="229" y="221" type="line" identifier="4SiZsbXDws"/>
      <point x="229" y="113" type="line" identifier="GEfStB3abn"/>
      <point x="56" y="113" type="line" identifier="KNVzw8YOZI"/>
    </contour>
  </outline>
</glyph>
<glyph name="brokenbar" format="2">
  <advance width="600"/>
  <unicode hex="00A6"/>
  <outline>
    <contour>
      <point x="363" y="401" type="line" identifier="IbZWLFFKQ0"/>
      <point x="363" y="760" type="line" identifier="bViXMBlRAl"/>
      <point x="237" y="760" type="line" identifier="XKiIN4IRPR"/>
      <point x="237" y="401" type="line" identifier="DUVS1fIVbk"/>
    </contour>
    <contour>
      <point x="363" y="-138" type="line" identifier="6ZgxgJl7O9"/>
      <point x="363" y="221" type="line" identifier="aZRN0vRtOz"/>
      <point x="237" y="221" type="line" identifier="s94SGngOYy"/>
      <point x="237" y="-138" type="line" identifier="bLvAWsOtcJ"/>
    </contour>
  </outline>
</glyph>
<glyph name="section" format="2">
  <advance width="600"/>
  <unicode hex="00A7"/>
  <outline>
    <contour>
      <point x="511" y="3" type="curve" smooth="yes" identifier="doGgNkMoEw"/>
      <point x="511" y="59" identifier="2XMpSAZckt"/>
      <point x="487" y="108" identifier="Vqi1PZPtB4"/>
      <point x="432" y="143" type="curve" identifier="ZV7sWpzQ5k"/>
      <point x="432" y="159" type="line" identifier="2qRHl1pHUV"/>
      <point x="507" y="190" identifier="xfLlrj32lg"/>
      <point x="542" y="239" identifier="bnNuVVSCwt"/>
      <point x="542" y="296" type="curve" smooth="yes" identifier="Pvqpx7ywx2"/>
      <point x="542" y="355" identifier="Q9UXPyaYAf"/>
      <point x="503" y="415" identifier="reqqbH7WkI"/>
      <point x="388" y="446" type="curve" smooth="yes" identifier="QuZfyxLmF6"/>
      <point x="310" y="467" type="line" smooth="yes" identifier="YApdqWCfnb"/>
      <point x="249" y="483" identifier="rZApeXdJD9"/>
      <point x="221" y="501" identifier="LNfo737F0r"/>
      <point x="221" y="537" type="curve" smooth="yes" identifier="0oYHxD193U"/>
      <point x="221" y="578" identifier="j75UlrkrI6"/>
      <point x="259" y="605" identifier="84KcOyHPjN"/>
      <point x="317" y="605" type="curve" smooth="yes" identifier="AoOdZzMK1r"/>
      <point x="367" y="605" identifier="Xin2VBkjuq"/>
      <point x="411" y="585" identifier="QS7B9wpONu"/>
      <point x="446" y="550" type="curve" identifier="T4WV72i5H6"/>
      <point x="519" y="638" type="line" identifier="PBxgV67fia"/>
      <point x="461" y="691" identifier="LieQOzAYfV"/>
      <point x="387" y="710" identifier="SWIv3T2pIT"/>
      <point x="318" y="710" type="curve" smooth="yes" identifier="VQJF7znvYo"/>
      <point x="187" y="710" identifier="pvQaAyEjaP"/>
      <point x="96" y="640" identifier="z6JuSYREIW"/>
      <point x="96" y="531" type="curve" smooth="yes" identifier="19BtJUqfXN"/>
      <point x="96" y="475" identifier="wduAcV9HNr"/>
      <point x="120" y="426" identifier="0oa5Msun8H"/>
      <point x="175" y="391" type="curve" identifier="InFbTz7Z51"/>
      <point x="175" y="375" type="line" identifier="ibxH0johtI"/>
      <point x="100" y="344" identifier="YEbJEgdJWR"/>
      <point x="65" y="295" identifier="zyuFOmPsBA"/>
      <point x="65" y="238" type="curve" smooth="yes" identifier="r9aYC8smRa"/>
      <point x="65" y="179" identifier="IacrFCDV70"/>
      <point x="104" y="119" identifier="H0541JGgAG"/>
      <point x="219" y="88" type="curve" smooth="yes" identifier="Z6DO8GzKxt"/>
      <point x="297" y="67" type="line" smooth="yes" identifier="dqMQNjfGtr"/>
      <point x="358" y="51" identifier="u0CeWZm6Sp"/>
      <point x="386" y="33" identifier="btWws2KzbL"/>
      <point x="386" y="-3" type="curve" smooth="yes" identifier="k12wcDZuqI"/>
      <point x="386" y="-44" identifier="BXGSPiq1Yr"/>
      <point x="348" y="-71" identifier="eTI9Od6FRC"/>
      <point x="290" y="-71" type="curve" smooth="yes" identifier="LAUIXzbgTu"/>
      <point x="240" y="-71" identifier="JLb6YLldW2"/>
      <point x="196" y="-51" identifier="5JEq5SWliB"/>
      <point x="161" y="-16" type="curve" identifier="J0XZesbZaf"/>
      <point x="88" y="-104" type="line" identifier="DJlab7lO4I"/>
      <point x="146" y="-157" identifier="bcY1hOV9hE"/>
      <point x="220" y="-176" identifier="rg67TuToZr"/>
      <point x="289" y="-176" type="curve" smooth="yes" identifier="koJoE2ogXf"/>
      <point x="420" y="-176" identifier="YPEgh3k7E6"/>
      <point x="511" y="-106" identifier="8Qu65LYfRG"/>
    </contour>
    <contour>
      <point x="419" y="252" type="curve" smooth="yes" identifier="Nj1eApv9jA"/>
      <point x="419" y="221" identifier="Lw9RoiM1ym"/>
      <point x="405" y="194" identifier="CMIhWe5CY0"/>
      <point x="381" y="168" type="curve" identifier="8mmh8yesMv"/>
      <point x="371" y="172" identifier="Cwtf5st9rr"/>
      <point x="360" y="176" identifier="WENagBDonp"/>
      <point x="348" y="179" type="curve" smooth="yes" identifier="AViHxgTZEw"/>
      <point x="271" y="200" type="line" smooth="yes" identifier="AyKaducsee"/>
      <point x="205" y="218" identifier="SCQQOyW43z"/>
      <point x="188" y="248" identifier="izubgAx3cn"/>
      <point x="188" y="282" type="curve" smooth="yes" identifier="k0tspDaVIU"/>
      <point x="188" y="313" identifier="lhSwr8576W"/>
      <point x="202" y="340" identifier="IViHk13XXC"/>
      <point x="226" y="366" type="curve" identifier="r6cARRDCB9"/>
      <point x="236" y="362" identifier="OxltwK7g4l"/>
      <point x="247" y="358" identifier="P1xUDWpL64"/>
      <point x="259" y="355" type="curve" smooth="yes" identifier="25r2TYJwvF"/>
      <point x="336" y="334" type="line" smooth="yes" identifier="rSjIKzKfJV"/>
      <point x="402" y="316" identifier="FEZKSPSik9"/>
      <point x="419" y="286" identifier="CCW9ZBXmUl"/>
    </contour>
  </outline>
</glyph>
<glyph name="dieresis" format="2">
  <advance width="600"/>
  <unicode hex="00A8"/>
  <anchor x="300.0" y="516.0" name="_top"/>
  <outline>
    <contour>
      <point x="190" y="591" type="curve" smooth="yes" identifier="12PVuSL6aM"/>
      <point x="250" y="591" identifier="kBmHH4XzS3"/>
      <point x="271" y="619" identifier="mj316bGTgb"/>
      <point x="271" y="654" type="curve" smooth="yes" identifier="ggRIRAYLJX"/>
      <point x="271" y="680" type="line" smooth="yes" identifier="JoWbN6PnRG"/>
      <point x="271" y="715" identifier="dRhPWbXUHU"/>
      <point x="250" y="742" identifier="YAGO3Fctb0"/>
      <point x="190" y="742" type="curve" smooth="yes" identifier="X7kLqdGzYH"/>
      <point x="131" y="742" identifier="A42jM2p92F"/>
      <point x="110" y="715" identifier="cllooTrUcf"/>
      <point x="110" y="680" type="curve" smooth="yes" identifier="bGEWphGFpO"/>
      <point x="110" y="654" type="line" smooth="yes" identifier="NEzgahsfdy"/>
      <point x="110" y="619" identifier="GmMhZij0QY"/>
      <point x="131" y="591" identifier="XEeexRcjsW"/>
    </contour>
    <contour>
      <point x="410" y="591" type="curve" smooth="yes" identifier="xoCsprJmfT"/>
      <point x="469" y="591" identifier="ZuB6fkozpq"/>
      <point x="490" y="619" identifier="CJWzFmTqbC"/>
      <point x="490" y="654" type="curve" smooth="yes" identifier="yl2L3wS2Z8"/>
      <point x="490" y="680" type="line" smooth="yes" identifier="hrLrr7N8ME"/>
      <point x="490" y="715" identifier="P9g8J1nAyn"/>
      <point x="469" y="742" identifier="ovHE0l9Z6C"/>
      <point x="410" y="742" type="curve" smooth="yes" identifier="KrgABwvECF"/>
      <point x="350" y="742" identifier="SsuHg5Rtrj"/>
      <point x="329" y="715" identifier="LaKQDMF38L"/>
      <point x="329" y="680" type="curve" smooth="yes" identifier="Lpl9kAHkkZ"/>
      <point x="329" y="654" type="line" smooth="yes" identifier="xTvaeN4LQb"/>
      <point x="329" y="619" identifier="FNUzdsvQ4X"/>
      <point x="350" y="591" identifier="3ouhyRS2AD"/>
    </contour>
  </outline>
</glyph>
<glyph name="copyright" format="2">
  <advance width="600"/>
  <unicode hex="00A9"/>
  <outline>
    <contour>
      <point x="300" y="18" type="curve" smooth="yes" identifier="7Xwk3skxOW"/>
      <point x="467" y="18" identifier="8YMj77GnMk"/>
      <point x="600" y="145" identifier="nfm8U878eU"/>
      <point x="600" y="349" type="curve" smooth="yes" identifier="qAbGdnhTAc"/>
      <point x="600" y="553" identifier="S3DaIPBijK"/>
      <point x="467" y="680" identifier="ABSrTLSHaN"/>
      <point x="300" y="680" type="curve" smooth="yes" identifier="aYvjbkH8DO"/>
      <point x="133" y="680" identifier="9eGU47MFAj"/>
      <point x="0" y="553" identifier="F08979fqln"/>
      <point x="0" y="349" type="curve" smooth="yes" identifier="QSIAsfY3rM"/>
      <point x="0" y="145" identifier="41FrZknW8n"/>
      <point x="133" y="18" identifier="fAwTYn46Sa"/>
    </contour>
    <contour>
      <point x="300" y="73" type="curve" smooth="yes" identifier="4VPo4VXalN"/>
      <point x="163" y="73" identifier="uLXI7JmPmp"/>
      <point x="63" y="182" identifier="z4Wpg5tQrb"/>
      <point x="63" y="319" type="curve" smooth="yes" identifier="UzEAaqhOOj"/>
      <point x="63" y="379" type="line" smooth="yes" identifier="ANgGPkRsEw"/>
      <point x="63" y="516" identifier="ONd609VK8A"/>
      <point x="163" y="625" identifier="eOkQ0sCJa4"/>
      <point x="300" y="625" type="curve" smooth="yes" identifier="r1hAk1zNez"/>
      <point x="437" y="625" identifier="oKhKcSkHyl"/>
      <point x="537" y="516" identifier="LczmrVvXFU"/>
      <point x="537" y="379" type="curve" smooth="yes" identifier="svRuuH44ym"/>
      <point x="537" y="319" type="line" smooth="yes" identifier="atq5BVyxXm"/>
      <point x="537" y="182" identifier="rmLjrRtnPf"/>
      <point x="437" y="73" identifier="2IOM8LGwRl"/>
    </contour>
    <contour>
      <point x="309" y="153" type="curve" smooth="yes" identifier="RXIQdUH4RJ"/>
      <point x="399" y="153" identifier="bEUkpafjUI"/>
      <point x="446" y="201" identifier="gzJXZ64HCD"/>
      <point x="469" y="255" type="curve" identifier="SgYj8y2aem"/>
      <point x="384" y="298" type="line" identifier="MMwufK6V7o"/>
      <point x="370" y="269" identifier="rRWjQnU6a7"/>
      <point x="349" y="246" identifier="v3MpCb7nzl"/>
      <point x="312" y="246" type="curve" smooth="yes" identifier="F54iKjGSy7"/>
      <point x="271" y="246" identifier="tN7lGZVwEg"/>
      <point x="247" y="274" identifier="srAxy6i9yt"/>
      <point x="247" y="313" type="curve" smooth="yes" identifier="gnKT2CAbnh"/>
      <point x="247" y="386" type="line" smooth="yes" identifier="a2f50sTMmt"/>
      <point x="247" y="424" identifier="yB13Gibbaj"/>
      <point x="271" y="452" identifier="Wyfb5zcSYD"/>
      <point x="311" y="452" type="curve" smooth="yes" identifier="jL3jCgfMbJ"/>
      <point x="345" y="452" identifier="mcYzspATlR"/>
      <point x="365" y="431" identifier="OKxSJ9PFVQ"/>
      <point x="378" y="400" type="curve" identifier="wsRfiMrl6O"/>
      <point x="463" y="443" type="line" identifier="SM2rdbYIQ8"/>
      <point x="439" y="503" identifier="OlFUmyPQu3"/>
      <point x="391" y="545" identifier="IKNi3JIPbi"/>
      <point x="309" y="545" type="curve" smooth="yes" identifier="GVEfQstDJC"/>
      <point x="201" y="545" identifier="o798blWi1Q"/>
      <point x="125" y="468" identifier="c3rGC1oPGy"/>
      <point x="125" y="348" type="curve" smooth="yes" identifier="BRqjtTSLdb"/>
      <point x="125" y="231" identifier="cFn6YNBLGR"/>
      <point x="198" y="153" identifier="VoGyhVBYcg"/>
    </contour>
  </outline>
</glyph>
<glyph name="ordfeminine" format="2">
  <advance width="600"/>
  <unicode hex="00AA"/>
  <outline>
    <contour>
      <point x="489" y="340" type="line" identifier="aCz3OiteMx"/>
      <point x="489" y="415" type="line" identifier="Y6Qo2VN4BH"/>
      <point x="449" y="415" type="line" identifier="3mdSfkWhiR"/>
      <point x="449" y="573" type="line" smooth="yes" identifier="GWH3PcqgVn"/>
      <point x="449" y="664" identifier="b3Mwz9mGey"/>
      <point x="390" y="710" identifier="gEaom3DIiN"/>
      <point x="292" y="710" type="curve" smooth="yes" identifier="rDaXRyX09a"/>
      <point x="211" y="710" identifier="lVBlSo4zJc"/>
      <point x="159" y="680" identifier="Dv2YoCwKRi"/>
      <point x="135" y="639" type="curve" identifier="MOxSlwGVGm"/>
      <point x="191" y="589" type="line" identifier="H2VqPyTYnF"/>
      <point x="211" y="615" identifier="QRaJ1z8HJL"/>
      <point x="236" y="634" identifier="gk0WuXeMeH"/>
      <point x="280" y="634" type="curve" smooth="yes" identifier="nvhCpjzDiu"/>
      <point x="327" y="634" identifier="jj0lwMGsSf"/>
      <point x="345" y="612" identifier="dlb36MfEYN"/>
      <point x="345" y="569" type="curve" smooth="yes" identifier="ol6K1x365y"/>
      <point x="345" y="551" type="line" identifier="C3prkUc1JR"/>
      <point x="287" y="551" type="line" smooth="yes" identifier="AV565p2IF3"/>
      <point x="182" y="551" identifier="3Ap7xkhtde"/>
      <point x="125" y="515" identifier="gMo2iiEp6F"/>
      <point x="125" y="440" type="curve" smooth="yes" identifier="akn5jxSpsn"/>
      <point x="125" y="372" identifier="ZNocMFpphw"/>
      <point x="171" y="332" identifier="OFvgLshsjM"/>
      <point x="241" y="332" type="curve" smooth="yes" identifier="CbRgVRJbXJ"/>
      <point x="296" y="332" identifier="zEcVI6nufd"/>
      <point x="338" y="357" identifier="Cz5XgjidGH"/>
      <point x="351" y="404" type="curve" identifier="nnIurLZdv6"/>
      <point x="355" y="404" type="line" identifier="Fwmr6J1Nsi"/>
      <point x="359" y="363" identifier="f5J95cermD"/>
      <point x="387" y="340" identifier="sW76TjISwS"/>
      <point x="429" y="340" type="curve" smooth="yes" identifier="L8y2PWWAH0"/>
    </contour>
    <contour>
      <point x="345" y="495" type="line" identifier="UtttuhAso3"/>
      <point x="345" y="452" type="line" smooth="yes" identifier="UcNANla6fw"/>
      <point x="345" y="418" identifier="RSh9DcRTau"/>
      <point x="317" y="400" identifier="v4teHW1flL"/>
      <point x="280" y="400" type="curve" smooth="yes" identifier="QpOHXVGkqW"/>
      <point x="247" y="400" identifier="sxg0vJEoeU"/>
      <point x="226" y="413" identifier="W547ALjpTu"/>
      <point x="226" y="438" type="curve" smooth="yes" identifier="MzK412DO3W"/>
      <point x="226" y="452" type="line" smooth="yes" identifier="GB1CEdE1Sq"/>
      <point x="226" y="480" identifier="2gt5guQdQe"/>
      <point x="249" y="495" identifier="0pkg3fF0aT"/>
      <point x="290" y="495" type="curve" smooth="yes" identifier="mZ9afm9Bk1"/>
    </contour>
  </outline>
</glyph>
<glyph name="logicalnot" format="2">
  <advance width="600"/>
  <unicode hex="00AC"/>
  <outline>
    <contour>
      <point x="522" y="54" type="line" identifier="LAcI0J5EfE"/>
      <point x="522" y="364" type="line" identifier="LbXGerhprS"/>
      <point x="62" y="364" type="line" identifier="cXmaZqZ64t"/>
      <point x="62" y="246" type="line" identifier="y7tVd94J5I"/>
      <point x="401" y="246" type="line" identifier="fFo8nI9ifb"/>
      <point x="401" y="54" type="line" identifier="FtwIycxdjT"/>
    </contour>
  </outline>
</glyph>
<glyph name="registered" format="2">
  <advance width="600"/>
  <unicode hex="00AE"/>
  <outline>
    <contour>
      <point x="300" y="346" type="curve" smooth="yes" identifier="Zqh75KSKwp"/>
      <point x="402" y="346" identifier="huSke0n0xY"/>
      <point x="483" y="424" identifier="sq2zNfujQQ"/>
      <point x="483" y="528" type="curve" smooth="yes" identifier="djrouJeWa5"/>
      <point x="483" y="632" identifier="uZc8kZ4eGm"/>
      <point x="402" y="710" identifier="IRS79PhzeN"/>
      <point x="300" y="710" type="curve" smooth="yes" identifier="Ko8h3n5HRb"/>
      <point x="198" y="710" identifier="dtkTOU2Kpg"/>
      <point x="117" y="632" identifier="HvLA9CtW73"/>
      <point x="117" y="528" type="curve" smooth="yes" identifier="YUtYLU6hFp"/>
      <point x="117" y="424" identifier="yv5EOs0dPM"/>
      <point x="198" y="346" identifier="YfufVlMkTO"/>
    </contour>
    <contour>
      <point x="300" y="387" type="curve" smooth="yes" identifier="FdY5zDNU3U"/>
      <point x="223" y="387" identifier="i4ovGo6kU6"/>
      <point x="165" y="439" identifier="XRXQSZ0E7u"/>
      <point x="165" y="518" type="curve" smooth="yes" identifier="ErJeQ9gMD2"/>
      <point x="165" y="538" type="line" smooth="yes" identifier="TORbTCR2Wz"/>
      <point x="165" y="617" identifier="cNe3sEorZO"/>
      <point x="223" y="669" identifier="PydqI58X7R"/>
      <point x="300" y="669" type="curve" smooth="yes" identifier="H0ADtIACcL"/>
      <point x="377" y="669" identifier="QuaM31B6HL"/>
      <point x="435" y="617" identifier="zikLNiZpFT"/>
      <point x="435" y="538" type="curve" smooth="yes" identifier="PRBrqFLAAu"/>
      <point x="435" y="518" type="line" smooth="yes" identifier="gxs4UnehEz"/>
      <point x="435" y="439" identifier="eJIFFhxDI9"/>
      <point x="377" y="387" identifier="bt9CFH88T4"/>
    </contour>
    <contour>
      <point x="278" y="490" type="line" identifier="hyKgkeCTrX"/>
      <point x="300" y="490" type="line" identifier="PvGdXRGlJk"/>
      <point x="330" y="436" type="line" identifier="fhmtObUUq2"/>
      <point x="391" y="436" type="line" identifier="g8i4KfdMGc"/>
      <point x="352" y="501" type="line" identifier="oWIGsm9gv6"/>
      <point x="373" y="511" identifier="tEI8EZ1kUc"/>
      <point x="386" y="530" identifier="pNgQRbz2Tm"/>
      <point x="386" y="558" type="curve" smooth="yes" identifier="mTvPrbnPe1"/>
      <point x="386" y="594" identifier="wS9fi0miru"/>
      <point x="364" y="621" identifier="xqseSimYfE"/>
      <point x="314" y="621" type="curve" smooth="yes" identifier="x6dWn8ua8a"/>
      <point x="222" y="621" type="line" identifier="f2h6eIQSWE"/>
      <point x="222" y="436" type="line" identifier="Sw38v7S3Vq"/>
      <point x="278" y="436" type="line" identifier="7re4uqVjDf"/>
    </contour>
    <contour>
      <point x="278" y="531" type="line" identifier="FUEZpK2lQV"/>
      <point x="278" y="578" type="line" identifier="VdtAnPz8fa"/>
      <point x="302" y="578" type="line" smooth="yes" identifier="W6blUXxSBU"/>
      <point x="318" y="578" identifier="cPnzC28JSW"/>
      <point x="328" y="570" identifier="YHxTTWS9nC"/>
      <point x="328" y="558" type="curve" smooth="yes" identifier="6eM3RJxNAH"/>
      <point x="328" y="551" type="line" smooth="yes" identifier="n4k8WJLOn9"/>
      <point x="328" y="538" identifier="RPqb6aD06j"/>
      <point x="318" y="531" identifier="fQKT0a3jqn"/>
      <point x="302" y="531" type="curve" smooth="yes" identifier="IufsH2wKGI"/>
    </contour>
  </outline>
</glyph>
<glyph name="macron" format="2">
  <advance width="600"/>
  <unicode hex="00AF"/>
  <anchor x="300.0" y="516.0" name="_top"/>
  <outline>
    <contour>
      <point x="147" y="615" type="line" identifier="5rwsrsX1E6"/>
      <point x="453" y="615" type="line" identifier="LGvLUvDYXi"/>
      <point x="453" y="718" type="line" identifier="a7QHnwQ8pV"/>
      <point x="147" y="718" type="line" identifier="HFVPp3Kbye"/>
    </contour>
  </outline>
</glyph>
<glyph name="degree" format="2">
  <advance width="600"/>
  <unicode hex="00B0"/>
  <outline>
    <contour>
      <point x="300" y="334" type="curve" smooth="yes" identifier="H7QlWqX2sM"/>
      <point x="406" y="334" identifier="0sWAPYSJ5a"/>
      <point x="488" y="415" identifier="1C9ibmUari"/>
      <point x="488" y="522" type="curve" smooth="yes" identifier="v99NFQ7NuA"/>
      <point x="488" y="629" identifier="KxXztxGjOn"/>
      <point x="406" y="710" identifier="nJ7B1v7T7D"/>
      <point x="300" y="710" type="curve" smooth="yes" identifier="lYpeBHGKPQ"/>
      <point x="194" y="710" identifier="z4TZ82TgFC"/>
      <point x="112" y="629" identifier="Cvk7JZbTBG"/>
      <point x="112" y="522" type="curve" smooth="yes" identifier="9fMMXjpRC4"/>
      <point x="112" y="415" identifier="xI0ELjk45Z"/>
      <point x="194" y="334" identifier="d7Z1yGAe8c"/>
    </contour>
    <contour>
      <point x="300" y="429" type="curve" smooth="yes" identifier="Vf44J8TDsB"/>
      <point x="248" y="429" identifier="8tU3agmEcG"/>
      <point x="214" y="470" identifier="0BD97CmmUz"/>
      <point x="214" y="522" type="curve" smooth="yes" identifier="bWSd6zfnvH"/>
      <point x="214" y="574" identifier="Br0IJXJDZN"/>
      <point x="248" y="615" identifier="Djl5vVKLxa"/>
      <point x="300" y="615" type="curve" smooth="yes" identifier="4lprc9HWul"/>
      <point x="352" y="615" identifier="tjzij6WvTV"/>
      <point x="386" y="574" identifier="hw1oYQjVHS"/>
      <point x="386" y="522" type="curve" smooth="yes" identifier="vmG2eqkPQy"/>
      <point x="386" y="470" identifier="i94o1pYde1"/>
      <point x="352" y="429" identifier="vBGIsicD0d"/>
    </contour>
  </outline>
</glyph>
<glyph name="plusminus" format="2">
  <advance width="600"/>
  <unicode hex="00B1"/>
  <outline>
    <contour>
      <point x="364" y="184" type="line" identifier="rvf7IzpwM0"/>
      <point x="364" y="350" type="line" identifier="wuNkBq8c8u"/>
      <point x="538" y="350" type="line" identifier="9jkV8r34ES"/>
      <point x="538" y="468" type="line" identifier="GqrROeeBYq"/>
      <point x="364" y="468" type="line" identifier="Sxp6tQzb38"/>
      <point x="364" y="634" type="line" identifier="75U2Q2XQSk"/>
      <point x="236" y="634" type="line" identifier="Mpi5zvCq0i"/>
      <point x="236" y="468" type="line" identifier="AVrqpB8sYN"/>
      <point x="62" y="468" type="line" identifier="bKeVRxN1Yc"/>
      <point x="62" y="350" type="line" identifier="roDKaqsuKk"/>
      <point x="236" y="350" type="line" identifier="qok2DALMiu"/>
      <point x="236" y="184" type="line" identifier="1llXkr1Jn4"/>
    </contour>
    <contour>
      <point x="538" y="0" type="line" identifier="LVBBEi6vO0"/>
      <point x="538" y="119" type="line" identifier="AiaiDjwfH6"/>
      <point x="62" y="119" type="line" identifier="CYDLmDoccq"/>
      <point x="62" y="0" type="line" identifier="hebOZgmfrv"/>
    </contour>
  </outline>
</glyph>
<glyph name="twosuperior" format="2">
  <advance width="600"/>
  <unicode hex="00B2"/>
  <outline>
    <contour>
      <point x="450" y="412" type="line" identifier="Qf5POOPJep"/>
      <point x="273" y="412" type="line" identifier="55LC0YnehA"/>
      <point x="332" y="445" type="line" smooth="yes" identifier="Sk994422ib"/>
      <point x="391" y="478" identifier="NqtZ8F9XQU"/>
      <point x="446" y="522" identifier="9ahuF2MxKB"/>
      <point x="446" y="590" type="curve" smooth="yes" identifier="F1CpYLFh9V"/>
      <point x="446" y="656" identifier="pjOJTFHklZ"/>
      <point x="394" y="704" identifier="5u9gppIVCp"/>
      <point x="304" y="704" type="curve" smooth="yes" identifier="MVdRCAIcSG"/>
      <point x="220" y="704" identifier="gczIegPfjM"/>
      <point x="169" y="662" identifier="Qzgb5mH7Y1"/>
      <point x="150" y="606" type="curve" identifier="3UWsDA3cuU"/>
      <point x="239" y="573" type="line" identifier="dDehdATdel"/>
      <point x="246" y="597" identifier="DE21qcG1Ft"/>
      <point x="261" y="618" identifier="X5XnD9wj3p"/>
      <point x="294" y="618" type="curve" smooth="yes" identifier="wXFNgkXkBm"/>
      <point x="313" y="618" identifier="ALOqRidL38"/>
      <point x="337" y="611" identifier="95NNSTzBdX"/>
      <point x="337" y="584" type="curve" smooth="yes" identifier="QeBlbPlgD9"/>
      <point x="337" y="583" type="line" smooth="yes" identifier="rAI9fGoPqN"/>
      <point x="337" y="553" identifier="0YHYDy6Its"/>
      <point x="320" y="538" identifier="5yWoms4hzT"/>
      <point x="270" y="500" type="curve" smooth="yes" identifier="384o1apY5j"/>
      <point x="161" y="417" type="line" identifier="O6Wd8Pw8cR"/>
      <point x="161" y="329" type="line" identifier="tbMJiLwn76"/>
      <point x="450" y="329" type="line" identifier="p2jXLmPrxb"/>
    </contour>
  </outline>
</glyph>
<glyph name="threesuperior" format="2">
  <advance width="600"/>
  <unicode hex="00B3"/>
  <outline>
    <contour>
      <point x="251" y="558" type="line" identifier="QYmkGHbvmU"/>
      <point x="251" y="476" type="line" identifier="zbxq58D56L"/>
      <point x="282" y="476" type="line" smooth="yes" identifier="Cqls84Tj3a"/>
      <point x="318" y="476" identifier="jFJt4ciEgx"/>
      <point x="343" y="466" identifier="Na5Th7KwLh"/>
      <point x="343" y="440" type="curve" smooth="yes" identifier="07DcdpIuk1"/>
      <point x="343" y="438" type="line" smooth="yes" identifier="lmmKNBFBSS"/>
      <point x="343" y="416" identifier="HIOuGSYG0m"/>
      <point x="324" y="402" identifier="g061Z81uU8"/>
      <point x="293" y="402" type="curve" smooth="yes" identifier="Ino1qwzC1S"/>
      <point x="253" y="402" identifier="ZSLWeNkFeb"/>
      <point x="229" y="425" identifier="JxkNHbQZyK"/>
      <point x="214" y="456" type="curve" identifier="atQ2qhsGXC"/>
      <point x="138" y="398" type="line" identifier="w4ncCbCuYV"/>
      <point x="164" y="357" identifier="QYk08in6xV"/>
      <point x="207" y="323" identifier="MjLzzAZl2S"/>
      <point x="293" y="323" type="curve" smooth="yes" identifier="wUmRFdtodx"/>
      <point x="386" y="323" identifier="V5Ehjvui8c"/>
      <point x="450" y="365" identifier="z1TD5wzhv9"/>
      <point x="450" y="433" type="curve" smooth="yes" identifier="HrdRgqYylM"/>
      <point x="450" y="480" identifier="kaRhZrFm0s"/>
      <point x="418" y="510" identifier="V6w20HGDQ4"/>
      <point x="368" y="518" type="curve" identifier="u56zxpt6jR"/>
      <point x="368" y="522" type="line" identifier="R4wdSoBuYx"/>
      <point x="409" y="527" identifier="4vGPo6toM8"/>
      <point x="444" y="557" identifier="zpAvEnRxlL"/>
      <point x="444" y="603" type="curve" smooth="yes" identifier="MYBaRC231R"/>
      <point x="444" y="663" identifier="71GKmPNNw2"/>
      <point x="388" y="704" identifier="MCLWu4JjAI"/>
      <point x="294" y="704" type="curve" smooth="yes" identifier="6sbYxVKbxl"/>
      <point x="224" y="704" identifier="rCeyT138Jv"/>
      <point x="184" y="682" identifier="qj7uCBIqw2"/>
      <point x="149" y="641" type="curve" identifier="sFBjdVgULG"/>
      <point x="211" y="582" type="line" identifier="eE3jmHoTzY"/>
      <point x="232" y="610" identifier="jRbuKHos6N"/>
      <point x="263" y="625" identifier="aeOKVYaoHz"/>
      <point x="291" y="625" type="curve" smooth="yes" identifier="zDi0QSMRpA"/>
      <point x="320" y="625" identifier="ECuzTEv5n2"/>
      <point x="336" y="610" identifier="P0VLT0P5yD"/>
      <point x="336" y="593" type="curve" smooth="yes" identifier="9R9eTOISrg"/>
      <point x="336" y="589" type="line" smooth="yes" identifier="SfkD8VP2Ur"/>
      <point x="336" y="572" identifier="iWvyyNPXeJ"/>
      <point x="321" y="558" identifier="yEIXLA4f6h"/>
      <point x="285" y="558" type="curve" smooth="yes" identifier="cfs5dJIZ6j"/>
    </contour>
  </outline>
</glyph>
<glyph name="acute" format="2">
  <advance width="600"/>
  <unicode hex="00B4"/>
  <anchor x="300.0" y="516.0" name="_top"/>
  <outline>
    <contour>
      <point x="450" y="746" type="line" identifier="yLAegNNRbZ"/>
      <point x="327" y="807" type="line" identifier="84H01kl7dy"/>
      <point x="228" y="613" type="line" identifier="PQt5QIy3n8"/>
      <point x="316" y="570" type="line" identifier="EPQgEXhiqI"/>
    </contour>
  </outline>
</glyph>
<glyph name="mu" format="2">
  <advance width="600"/>
  <unicode hex="00B5"/>
  <outline>
    <contour>
      <point x="213" y="-200" type="line" identifier="eFph5Qbu9m"/>
      <point x="213" y="-103" type="line" identifier="4zhlizqWN3"/>
      <point x="184" y="30" type="line" identifier="NIaaRTJL92"/>
      <point x="190" y="30" type="line" identifier="8r81tutcJB"/>
      <point x="212" y="-3" identifier="wAKZMeCHXW"/>
      <point x="237" y="-12" identifier="0WTyxkqMpy"/>
      <point x="263" y="-12" type="curve" smooth="yes" identifier="6GOLdLcoEf"/>
      <point x="327" y="-12" identifier="BlfO4eVG3g"/>
      <point x="365" y="40" identifier="DhMooWvsGw"/>
      <point x="381" y="94" type="curve" identifier="lMDSVZUu9I"/>
      <point x="387" y="94" type="line" identifier="iHYQxHbme3"/>
      <point x="387" y="0" type="line" identifier="z0WwS9yVWA"/>
      <point x="535" y="0" type="line" identifier="kp2hd9RaxX"/>
      <point x="535" y="516" type="line" identifier="4uyDYSIq1q"/>
      <point x="387" y="516" type="line" identifier="q2DqBwrEXU"/>
      <point x="387" y="177" type="line" smooth="yes" identifier="WxEKYoGBLy"/>
      <point x="387" y="127" identifier="p0yPrDMxno"/>
      <point x="343" y="102" identifier="DmuA03w5uP"/>
      <point x="298" y="102" type="curve" smooth="yes" identifier="9lDi7nCi2r"/>
      <point x="241" y="102" identifier="6ifJzIPwuh"/>
      <point x="213" y="140" identifier="B8dglPWv9X"/>
      <point x="213" y="212" type="curve" smooth="yes" identifier="mb4NU29LxR"/>
      <point x="213" y="516" type="line" identifier="m46Fu4oEp9"/>
      <point x="65" y="516" type="line" identifier="LP7as3GxMo"/>
      <point x="65" y="-200" type="line" identifier="FJa5ZQvGVE"/>
    </contour>
  </outline>
</glyph>
<glyph name="paragraph" format="2">
  <advance width="600"/>
  <unicode hex="00B6"/>
  <outline>
    <contour>
      <point x="245" y="-149" type="line" identifier="0diHwuPdLz"/>
      <point x="364" y="-149" type="line" identifier="eJaMuUZh4f"/>
      <point x="364" y="582" type="line" identifier="2PoZmGmFTr"/>
      <point x="433" y="582" type="line" identifier="jTgUD9BFlm"/>
      <point x="433" y="-149" type="line" identifier="qL2VBUw3vw"/>
      <point x="552" y="-149" type="line" identifier="PimtTnQKcS"/>
      <point x="552" y="698" type="line" identifier="hCFRksUZlB"/>
      <point x="245" y="698" type="line" smooth="yes" identifier="LfWnzd843W"/>
      <point x="121" y="698" identifier="oWPs7XqEAX"/>
      <point x="20" y="603" identifier="FAu7YnggqJ"/>
      <point x="20" y="472" type="curve" smooth="yes" identifier="HDwgJWFYNp"/>
      <point x="20" y="341" identifier="yeD2wOEoBt"/>
      <point x="121" y="246" identifier="ldkIywaaHo"/>
      <point x="245" y="246" type="curve" identifier="eK8vS4hdaP"/>
    </contour>
  </outline>
</glyph>
<glyph name="periodcentered" format="2">
  <advance width="600"/>
  <unicode hex="00B7"/>
  <outline>
    <contour>
      <point x="300" y="204" type="curve" smooth="yes" identifier="dhXp2XoGKf"/>
      <point x="375" y="204" identifier="G5xkm7bbZi"/>
      <point x="405" y="242" identifier="OZ6a4rOod1"/>
      <point x="405" y="287" type="curve" smooth="yes" identifier="fMsC00BtWZ"/>
      <point x="405" y="322" type="line" smooth="yes" identifier="vfTEzEWw7B"/>
      <point x="405" y="367" identifier="EAtNGixpA6"/>
      <point x="375" y="405" identifier="s88gPl8RtK"/>
      <point x="300" y="405" type="curve" smooth="yes" identifier="r24A3yural"/>
      <point x="225" y="405" identifier="uGmb1tCX49"/>
      <point x="195" y="367" identifier="M9yPQxqI6Y"/>
      <point x="195" y="322" type="curve" smooth="yes" identifier="ehdubZRs2i"/>
      <point x="195" y="287" type="line" smooth="yes" identifier="wMyaPOB3gv"/>
      <point x="195" y="242" identifier="3Tl7C1VP08"/>
      <point x="225" y="204" identifier="PYe8B8Zqp7"/>
    </contour>
  </outline>
</glyph>
<glyph name="cedilla" format="2">
  <advance width="600"/>
  <unicode hex="00B8"/>
  <anchor x="300.0" y="0.0" name="_bottom"/>
  <outline>
    <contour>
      <point x="314" y="-212" type="curve" smooth="yes" identifier="da2YR9fUC1"/>
      <point x="382" y="-212" identifier="LOFIX3u3qH"/>
      <point x="446" y="-189" identifier="p3jCeLqiCf"/>
      <point x="446" y="-121" type="curve" smooth="yes" identifier="U07fUcL83e"/>
      <point x="446" y="-72" identifier="9IvZXMkvqM"/>
      <point x="413" y="-52" identifier="BfAjfzzlFR"/>
      <point x="373" y="-52" type="curve" smooth="yes" identifier="Pjf9GnxgwE"/>
      <point x="357" y="-52" identifier="3DuywkqG6v"/>
      <point x="341" y="-55" identifier="KVmqJmOTP3"/>
      <point x="325" y="-59" type="curve" identifier="xpTsMZWvEJ"/>
      <point x="321" y="-55" type="line" identifier="chByhjMJnc"/>
      <point x="339" y="30" type="line" identifier="07BepYIqN1"/>
      <point x="272" y="30" type="line" identifier="qJpsviGDNq"/>
      <point x="250" y="-74" type="line" identifier="TaMSug5YjA"/>
      <point x="271" y="-76" type="line" smooth="yes" identifier="t0xJEyRpoG"/>
      <point x="333" y="-82" identifier="nxa8Oa2MsO"/>
      <point x="346" y="-101" identifier="y8keVpc8Ho"/>
      <point x="346" y="-116" type="curve" smooth="yes" identifier="AnvU0lUpex"/>
      <point x="346" y="-133" identifier="n0zFZBPRuE"/>
      <point x="327" y="-141" identifier="UfIqlIk5pN"/>
      <point x="302" y="-141" type="curve" smooth="yes" identifier="oVmrZ6oByz"/>
      <point x="271" y="-141" identifier="jCwNhQzgZg"/>
      <point x="249" y="-128" identifier="zwernb098u"/>
      <point x="236" y="-112" type="curve" identifier="gri0yzrbg1"/>
      <point x="190" y="-168" type="line" identifier="51lqRFT6pU"/>
      <point x="207" y="-188" identifier="Ewd4UOSESP"/>
      <point x="245" y="-212" identifier="ONEcsg5dAY"/>
    </contour>
  </outline>
</glyph>
<glyph name="onesuperior" format="2">
  <advance width="600"/>
  <unicode hex="00B9"/>
  <outline>
    <contour>
      <point x="463" y="329" type="line" identifier="xm62GOzGXW"/>
      <point x="463" y="408" type="line" identifier="6vNOrOoICC"/>
      <point x="382" y="408" type="line" identifier="gtoZ5PtQ2b"/>
      <point x="382" y="698" type="line" identifier="WblBfi6CUZ"/>
      <point x="232" y="698" type="line" identifier="uySGOX4BaR"/>
      <point x="147" y="583" type="line" identifier="Wo7cSIkKCg"/>
      <point x="214" y="535" type="line" identifier="EaQqFFWFj5"/>
      <point x="275" y="618" type="line" identifier="M8g3yAWXUH"/>
      <point x="281" y="618" type="line" identifier="PfIhzFmhuN"/>
      <point x="281" y="408" type="line" identifier="ViYnwbElAo"/>
      <point x="188" y="408" type="line" identifier="k0SAVZHohg"/>
      <point x="188" y="329" type="line" identifier="x6zcxWCWHR"/>
    </contour>
  </outline>
</glyph>
<glyph name="ordmasculine" format="2">
  <advance width="600"/>
  <unicode hex="00BA"/>
  <outline>
    <contour>
      <point x="300" y="332" type="curve" smooth="yes" identifier="g3xM4w8dLo"/>
      <point x="413" y="332" identifier="7fR3PD4hLd"/>
      <point x="481" y="404" identifier="JjrwesmX6y"/>
      <point x="481" y="521" type="curve" smooth="yes" identifier="RVcxVJhIrz"/>
      <point x="481" y="638" identifier="99CqUNBwgB"/>
      <point x="413" y="710" identifier="24LT5o2WHr"/>
      <point x="300" y="710" type="curve" smooth="yes" identifier="2fcLAlMK8S"/>
      <point x="187" y="710" identifier="YL8TEQe43E"/>
      <point x="119" y="638" identifier="XFpVIq9FL8"/>
      <point x="119" y="521" type="curve" smooth="yes" identifier="HH6bRaLcth"/>
      <point x="119" y="404" identifier="ucO4GB9v8U"/>
      <point x="187" y="332" identifier="UQLXwpNpum"/>
    </contour>
    <contour>
      <point x="300" y="409" type="curve" smooth="yes" identifier="pCk3CcqwBF"/>
      <point x="254" y="409" identifier="oK7RV6KlTG"/>
      <point x="226" y="439" identifier="ZhM0GnE8wx"/>
      <point x="226" y="492" type="curve" smooth="yes" identifier="Qk3BtbIMac"/>
      <point x="226" y="550" type="line" smooth="yes" identifier="gHIQ9W43Xc"/>
      <point x="226" y="603" identifier="U19hsrhSqO"/>
      <point x="254" y="633" identifier="wMop9IFYFB"/>
      <point x="300" y="633" type="curve" smooth="yes" identifier="NrQyvHKAmw"/>
      <point x="346" y="633" identifier="s91b8jPrCw"/>
      <point x="374" y="603" identifier="aIusVFzrfY"/>
      <point x="374" y="550" type="curve" smooth="yes" identifier="9oCSpk3nWD"/>
      <point x="374" y="492" type="line" smooth="yes" identifier="fsqWsTzA8C"/>
      <point x="374" y="439" identifier="V3avjlSxv2"/>
      <point x="346" y="409" identifier="ctInne32hk"/>
    </contour>
  </outline>
</glyph>
